<svg width="2048" height="1170" viewBox="0 0 2048 1170" fill="none" xmlns="http://www.w3.org/2000/svg">
<rect width="2048" height="1170" fill="white"/>
<path d="M107.091 925H95.2727L129.455 831.909H141.091L175.273 925H163.455L135.636 846.636H134.909L107.091 925ZM111.455 888.636H159.091V898.636H111.455V888.636ZM199.045 883V925H188.318V855.182H198.682V866.091H199.591C201.227 862.545 203.712 859.697 207.045 857.545C210.379 855.364 214.682 854.273 219.955 854.273C224.682 854.273 228.818 855.242 232.364 857.182C235.909 859.091 238.667 862 240.636 865.909C242.606 869.788 243.591 874.697 243.591 880.636V925H232.864V881.364C232.864 875.879 231.439 871.606 228.591 868.545C225.742 865.455 221.833 863.909 216.864 863.909C213.439 863.909 210.379 864.652 207.682 866.136C205.015 867.621 202.909 869.788 201.364 872.636C199.818 875.485 199.045 878.939 199.045 883ZM273.92 883V925H263.193V855.182H273.557V866.091H274.466C276.102 862.545 278.587 859.697 281.92 857.545C285.254 855.364 289.557 854.273 294.83 854.273C299.557 854.273 303.693 855.242 307.239 857.182C310.784 859.091 313.542 862 315.511 865.909C317.481 869.788 318.466 874.697 318.466 880.636V925H307.739V881.364C307.739 875.879 306.314 871.606 303.466 868.545C300.617 865.455 296.708 863.909 291.739 863.909C288.314 863.909 285.254 864.652 282.557 866.136C279.89 867.621 277.784 869.788 276.239 872.636C274.693 875.485 273.92 878.939 273.92 883ZM338.068 925V855.182H348.795V925H338.068ZM343.523 843.545C341.432 843.545 339.629 842.833 338.114 841.409C336.629 839.985 335.886 838.273 335.886 836.273C335.886 834.273 336.629 832.561 338.114 831.136C339.629 829.712 341.432 829 343.523 829C345.614 829 347.402 829.712 348.886 831.136C350.402 832.561 351.159 834.273 351.159 836.273C351.159 838.273 350.402 839.985 348.886 841.409C347.402 842.833 345.614 843.545 343.523 843.545ZM397.716 926.455C390.989 926.455 385.186 924.97 380.307 922C375.458 919 371.716 914.818 369.08 909.455C366.473 904.061 365.17 897.788 365.17 890.636C365.17 883.485 366.473 877.182 369.08 871.727C371.716 866.242 375.383 861.97 380.08 858.909C384.807 855.818 390.322 854.273 396.625 854.273C400.261 854.273 403.852 854.879 407.398 856.091C410.943 857.303 414.17 859.273 417.08 862C419.989 864.697 422.307 868.273 424.034 872.727C425.761 877.182 426.625 882.667 426.625 889.182V893.727H372.807V884.455H415.716C415.716 880.515 414.928 877 413.352 873.909C411.807 870.818 409.595 868.379 406.716 866.591C403.867 864.803 400.504 863.909 396.625 863.909C392.352 863.909 388.655 864.97 385.534 867.091C382.443 869.182 380.064 871.909 378.398 875.273C376.731 878.636 375.898 882.242 375.898 886.091V892.273C375.898 897.545 376.807 902.015 378.625 905.682C380.473 909.318 383.034 912.091 386.307 914C389.58 915.879 393.383 916.818 397.716 916.818C400.534 916.818 403.08 916.424 405.352 915.636C407.655 914.818 409.64 913.606 411.307 912C412.973 910.364 414.261 908.333 415.17 905.909L425.534 908.818C424.443 912.333 422.61 915.424 420.034 918.091C417.458 920.727 414.277 922.788 410.489 924.273C406.701 925.727 402.443 926.455 397.716 926.455ZM484.216 925H472.398L506.58 831.909H518.216L552.398 925H540.58L512.761 846.636H512.034L484.216 925ZM488.58 888.636H536.216V898.636H488.58V888.636ZM565.443 951.182V855.182H575.807V866.273H577.08C577.867 865.061 578.958 863.515 580.352 861.636C581.777 859.727 583.807 858.03 586.443 856.545C589.11 855.03 592.716 854.273 597.261 854.273C603.14 854.273 608.322 855.742 612.807 858.682C617.292 861.621 620.792 865.788 623.307 871.182C625.822 876.576 627.08 882.939 627.08 890.273C627.08 897.667 625.822 904.076 623.307 909.5C620.792 914.894 617.307 919.076 612.852 922.045C608.398 924.985 603.261 926.455 597.443 926.455C592.958 926.455 589.367 925.712 586.67 924.227C583.973 922.712 581.898 921 580.443 919.091C578.989 917.152 577.867 915.545 577.08 914.273H576.17V951.182H565.443ZM575.989 890.091C575.989 895.364 576.761 900.015 578.307 904.045C579.852 908.045 582.11 911.182 585.08 913.455C588.049 915.697 591.686 916.818 595.989 916.818C600.473 916.818 604.216 915.636 607.216 913.273C610.246 910.879 612.519 907.667 614.034 903.636C615.58 899.576 616.352 895.061 616.352 890.091C616.352 885.182 615.595 880.758 614.08 876.818C612.595 872.848 610.337 869.712 607.307 867.409C604.307 865.076 600.534 863.909 595.989 863.909C591.625 863.909 587.958 865.015 584.989 867.227C582.019 869.409 579.777 872.47 578.261 876.409C576.746 880.318 575.989 884.879 575.989 890.091ZM643.443 951.182V855.182H653.807V866.273H655.08C655.867 865.061 656.958 863.515 658.352 861.636C659.777 859.727 661.807 858.03 664.443 856.545C667.11 855.03 670.716 854.273 675.261 854.273C681.14 854.273 686.322 855.742 690.807 858.682C695.292 861.621 698.792 865.788 701.307 871.182C703.822 876.576 705.08 882.939 705.08 890.273C705.08 897.667 703.822 904.076 701.307 909.5C698.792 914.894 695.307 919.076 690.852 922.045C686.398 924.985 681.261 926.455 675.443 926.455C670.958 926.455 667.367 925.712 664.67 924.227C661.973 922.712 659.898 921 658.443 919.091C656.989 917.152 655.867 915.545 655.08 914.273H654.17V951.182H643.443ZM653.989 890.091C653.989 895.364 654.761 900.015 656.307 904.045C657.852 908.045 660.11 911.182 663.08 913.455C666.049 915.697 669.686 916.818 673.989 916.818C678.473 916.818 682.216 915.636 685.216 913.273C688.246 910.879 690.519 907.667 692.034 903.636C693.58 899.576 694.352 895.061 694.352 890.091C694.352 885.182 693.595 880.758 692.08 876.818C690.595 872.848 688.337 869.712 685.307 867.409C682.307 865.076 678.534 863.909 673.989 863.909C669.625 863.909 665.958 865.015 662.989 867.227C660.019 869.409 657.777 872.47 656.261 876.409C654.746 880.318 653.989 884.879 653.989 890.091ZM732.17 831.909V925H721.443V831.909H732.17ZM781.091 926.455C774.364 926.455 768.561 924.97 763.682 922C758.833 919 755.091 914.818 752.455 909.455C749.848 904.061 748.545 897.788 748.545 890.636C748.545 883.485 749.848 877.182 752.455 871.727C755.091 866.242 758.758 861.97 763.455 858.909C768.182 855.818 773.697 854.273 780 854.273C783.636 854.273 787.227 854.879 790.773 856.091C794.318 857.303 797.545 859.273 800.455 862C803.364 864.697 805.682 868.273 807.409 872.727C809.136 877.182 810 882.667 810 889.182V893.727H756.182V884.455H799.091C799.091 880.515 798.303 877 796.727 873.909C795.182 870.818 792.97 868.379 790.091 866.591C787.242 864.803 783.879 863.909 780 863.909C775.727 863.909 772.03 864.97 768.909 867.091C765.818 869.182 763.439 871.909 761.773 875.273C760.106 878.636 759.273 882.242 759.273 886.091V892.273C759.273 897.545 760.182 902.015 762 905.682C763.848 909.318 766.409 912.091 769.682 914C772.955 915.879 776.758 916.818 781.091 916.818C783.909 916.818 786.455 916.424 788.727 915.636C791.03 914.818 793.015 913.606 794.682 912C796.348 910.364 797.636 908.333 798.545 905.909L808.909 908.818C807.818 912.333 805.985 915.424 803.409 918.091C800.833 920.727 797.652 922.788 793.864 924.273C790.076 925.727 785.818 926.455 781.091 926.455ZM835.773 831.909V840.091C835.773 842.576 835.318 845.227 834.409 848.045C833.53 850.833 832.227 853.545 830.5 856.182C828.803 858.788 826.742 861.061 824.318 863L818.5 858.273C820.409 855.545 822.061 852.712 823.455 849.773C824.879 846.803 825.591 843.636 825.591 840.273V831.909H835.773ZM889.523 870.818L879.886 873.545C879.28 871.939 878.386 870.379 877.205 868.864C876.053 867.318 874.477 866.045 872.477 865.045C870.477 864.045 867.917 863.545 864.795 863.545C860.523 863.545 856.962 864.53 854.114 866.5C851.295 868.439 849.886 870.909 849.886 873.909C849.886 876.576 850.856 878.682 852.795 880.227C854.735 881.773 857.765 883.061 861.886 884.091L872.25 886.636C878.492 888.152 883.144 890.47 886.205 893.591C889.265 896.682 890.795 900.667 890.795 905.545C890.795 909.545 889.644 913.121 887.341 916.273C885.068 919.424 881.886 921.909 877.795 923.727C873.705 925.545 868.947 926.455 863.523 926.455C856.402 926.455 850.508 924.909 845.841 921.818C841.174 918.727 838.22 914.212 836.977 908.273L847.159 905.727C848.129 909.485 849.962 912.303 852.659 914.182C855.386 916.061 858.947 917 863.341 917C868.341 917 872.311 915.939 875.25 913.818C878.22 911.667 879.705 909.091 879.705 906.091C879.705 903.667 878.856 901.636 877.159 900C875.462 898.333 872.856 897.091 869.341 896.273L857.705 893.545C851.311 892.03 846.614 889.682 843.614 886.5C840.644 883.288 839.159 879.273 839.159 874.455C839.159 870.515 840.265 867.03 842.477 864C844.72 860.97 847.765 858.591 851.614 856.864C855.492 855.136 859.886 854.273 864.795 854.273C871.705 854.273 877.129 855.788 881.068 858.818C885.038 861.848 887.856 865.848 889.523 870.818ZM944.398 925V831.909H975.852C983.155 831.909 989.125 833.227 993.761 835.864C998.428 838.47 1001.88 842 1004.12 846.455C1006.37 850.909 1007.49 855.879 1007.49 861.364C1007.49 866.848 1006.37 871.833 1004.12 876.318C1001.91 880.803 998.489 884.379 993.852 887.045C989.216 889.682 983.277 891 976.034 891H953.489V881H975.67C980.67 881 984.686 880.136 987.716 878.409C990.746 876.682 992.943 874.348 994.307 871.409C995.701 868.439 996.398 865.091 996.398 861.364C996.398 857.636 995.701 854.303 994.307 851.364C992.943 848.424 990.731 846.121 987.67 844.455C984.61 842.758 980.549 841.909 975.489 841.909H955.67V925H944.398ZM1024.19 925V855.182H1034.56V865.727H1035.28C1036.56 862.273 1038.86 859.47 1042.19 857.318C1045.53 855.167 1049.28 854.091 1053.47 854.091C1054.25 854.091 1055.24 854.106 1056.42 854.136C1057.6 854.167 1058.5 854.212 1059.1 854.273V865.182C1058.74 865.091 1057.91 864.955 1056.6 864.773C1055.33 864.561 1053.98 864.455 1052.56 864.455C1049.16 864.455 1046.13 865.167 1043.47 866.591C1040.83 867.985 1038.74 869.924 1037.19 872.409C1035.68 874.864 1034.92 877.667 1034.92 880.818V925H1024.19ZM1098.06 926.455C1091.75 926.455 1086.22 924.955 1081.47 921.955C1076.74 918.955 1073.04 914.758 1070.38 909.364C1067.74 903.97 1066.42 897.667 1066.42 890.455C1066.42 883.182 1067.74 876.833 1070.38 871.409C1073.04 865.985 1076.74 861.773 1081.47 858.773C1086.22 855.773 1091.75 854.273 1098.06 854.273C1104.36 854.273 1109.88 855.773 1114.6 858.773C1119.36 861.773 1123.06 865.985 1125.69 871.409C1128.36 876.833 1129.69 883.182 1129.69 890.455C1129.69 897.667 1128.36 903.97 1125.69 909.364C1123.06 914.758 1119.36 918.955 1114.6 921.955C1109.88 924.955 1104.36 926.455 1098.06 926.455ZM1098.06 916.818C1102.84 916.818 1106.78 915.591 1109.88 913.136C1112.97 910.682 1115.25 907.455 1116.74 903.455C1118.22 899.455 1118.97 895.121 1118.97 890.455C1118.97 885.788 1118.22 881.439 1116.74 877.409C1115.25 873.379 1112.97 870.121 1109.88 867.636C1106.78 865.152 1102.84 863.909 1098.06 863.909C1093.27 863.909 1089.33 865.152 1086.24 867.636C1083.15 870.121 1080.86 873.379 1079.38 877.409C1077.89 881.439 1077.15 885.788 1077.15 890.455C1077.15 895.121 1077.89 899.455 1079.38 903.455C1080.86 907.455 1083.15 910.682 1086.24 913.136C1089.33 915.591 1093.27 916.818 1098.06 916.818ZM1172.43 926.455C1166.61 926.455 1161.48 924.985 1157.02 922.045C1152.57 919.076 1149.08 914.894 1146.57 909.5C1144.05 904.076 1142.8 897.667 1142.8 890.273C1142.8 882.939 1144.05 876.576 1146.57 871.182C1149.08 865.788 1152.58 861.621 1157.07 858.682C1161.55 855.742 1166.73 854.273 1172.61 854.273C1177.16 854.273 1180.75 855.03 1183.39 856.545C1186.05 858.03 1188.08 859.727 1189.48 861.636C1190.9 863.515 1192.01 865.061 1192.8 866.273H1193.7V831.909H1204.43V925H1194.07V914.273H1192.8C1192.01 915.545 1190.89 917.152 1189.43 919.091C1187.98 921 1185.9 922.712 1183.2 924.227C1180.51 925.712 1176.92 926.455 1172.43 926.455ZM1173.89 916.818C1178.19 916.818 1181.83 915.697 1184.8 913.455C1187.77 911.182 1190.02 908.045 1191.57 904.045C1193.11 900.015 1193.89 895.364 1193.89 890.091C1193.89 884.879 1193.13 880.318 1191.61 876.409C1190.1 872.47 1187.86 869.409 1184.89 867.227C1181.92 865.015 1178.25 863.909 1173.89 863.909C1169.34 863.909 1165.55 865.076 1162.52 867.409C1159.52 869.712 1157.27 872.848 1155.75 876.818C1154.27 880.758 1153.52 885.182 1153.52 890.091C1153.52 895.061 1154.28 899.576 1155.8 903.636C1157.34 907.667 1159.61 910.879 1162.61 913.273C1165.64 915.636 1169.4 916.818 1173.89 916.818ZM1269.57 896.455V855.182H1280.3V925H1269.57V913.182H1268.84C1267.2 916.727 1264.66 919.742 1261.2 922.227C1257.75 924.682 1253.39 925.909 1248.11 925.909C1243.75 925.909 1239.87 924.955 1236.48 923.045C1233.08 921.106 1230.42 918.197 1228.48 914.318C1226.54 910.409 1225.57 905.485 1225.57 899.545V855.182H1236.3V898.818C1236.3 903.909 1237.72 907.97 1240.57 911C1243.45 914.03 1247.11 915.545 1251.57 915.545C1254.23 915.545 1256.95 914.864 1259.7 913.5C1262.49 912.136 1264.83 910.045 1266.7 907.227C1268.61 904.409 1269.57 900.818 1269.57 896.455ZM1328.31 926.455C1321.76 926.455 1316.13 924.909 1311.4 921.818C1306.67 918.727 1303.03 914.47 1300.49 909.045C1297.94 903.621 1296.67 897.424 1296.67 890.455C1296.67 883.364 1297.97 877.106 1300.58 871.682C1303.22 866.227 1306.88 861.97 1311.58 858.909C1316.31 855.818 1321.82 854.273 1328.12 854.273C1333.03 854.273 1337.46 855.182 1341.4 857C1345.34 858.818 1348.56 861.364 1351.08 864.636C1353.59 867.909 1355.16 871.727 1355.76 876.091H1345.03C1344.22 872.909 1342.4 870.091 1339.58 867.636C1336.79 865.152 1333.03 863.909 1328.31 863.909C1324.13 863.909 1320.46 865 1317.31 867.182C1314.19 869.333 1311.75 872.379 1309.99 876.318C1308.26 880.227 1307.4 884.818 1307.4 890.091C1307.4 895.485 1308.25 900.182 1309.94 904.182C1311.67 908.182 1314.09 911.288 1317.22 913.5C1320.37 915.712 1324.06 916.818 1328.31 916.818C1331.09 916.818 1333.62 916.333 1335.9 915.364C1338.17 914.394 1340.09 913 1341.67 911.182C1343.25 909.364 1344.37 907.182 1345.03 904.636H1355.76C1355.16 908.758 1353.66 912.47 1351.26 915.773C1348.9 919.045 1345.76 921.652 1341.85 923.591C1337.97 925.5 1333.46 926.455 1328.31 926.455ZM1401.81 855.182V864.273H1365.62V855.182H1401.81ZM1376.17 838.455H1386.9V905C1386.9 908.03 1387.34 910.303 1388.22 911.818C1389.13 913.303 1390.28 914.303 1391.67 914.818C1393.09 915.303 1394.59 915.545 1396.17 915.545C1397.35 915.545 1398.32 915.485 1399.08 915.364C1399.84 915.212 1400.44 915.091 1400.9 915L1403.08 924.636C1402.35 924.909 1401.34 925.182 1400.03 925.455C1398.73 925.758 1397.08 925.909 1395.08 925.909C1392.05 925.909 1389.08 925.258 1386.17 923.955C1383.29 922.652 1380.9 920.667 1378.99 918C1377.11 915.333 1376.17 911.97 1376.17 907.909V838.455ZM1455.4 925V831.909H1486.85C1494.16 831.909 1500.13 833.227 1504.76 835.864C1509.43 838.47 1512.88 842 1515.12 846.455C1517.37 850.909 1518.49 855.879 1518.49 861.364C1518.49 866.848 1517.37 871.833 1515.12 876.318C1512.91 880.803 1509.49 884.379 1504.85 887.045C1500.22 889.682 1494.28 891 1487.03 891H1464.49V881H1486.67C1491.67 881 1495.69 880.136 1498.72 878.409C1501.75 876.682 1503.94 874.348 1505.31 871.409C1506.7 868.439 1507.4 865.091 1507.4 861.364C1507.4 857.636 1506.7 854.303 1505.31 851.364C1503.94 848.424 1501.73 846.121 1498.67 844.455C1495.61 842.758 1491.55 841.909 1486.49 841.909H1466.67V925H1455.4ZM1562.81 926.455C1556.5 926.455 1550.97 924.955 1546.22 921.955C1541.49 918.955 1537.79 914.758 1535.12 909.364C1532.49 903.97 1531.17 897.667 1531.17 890.455C1531.17 883.182 1532.49 876.833 1535.12 871.409C1537.79 865.985 1541.49 861.773 1546.22 858.773C1550.97 855.773 1556.5 854.273 1562.81 854.273C1569.11 854.273 1574.63 855.773 1579.35 858.773C1584.11 861.773 1587.81 865.985 1590.44 871.409C1593.11 876.833 1594.44 883.182 1594.44 890.455C1594.44 897.667 1593.11 903.97 1590.44 909.364C1587.81 914.758 1584.11 918.955 1579.35 921.955C1574.63 924.955 1569.11 926.455 1562.81 926.455ZM1562.81 916.818C1567.59 916.818 1571.53 915.591 1574.62 913.136C1577.72 910.682 1580 907.455 1581.49 903.455C1582.97 899.455 1583.72 895.121 1583.72 890.455C1583.72 885.788 1582.97 881.439 1581.49 877.409C1580 873.379 1577.72 870.121 1574.62 867.636C1571.53 865.152 1567.59 863.909 1562.81 863.909C1558.02 863.909 1554.08 865.152 1550.99 867.636C1547.9 870.121 1545.61 873.379 1544.12 877.409C1542.64 881.439 1541.9 885.788 1541.9 890.455C1541.9 895.121 1542.64 899.455 1544.12 903.455C1545.61 907.455 1547.9 910.682 1550.99 913.136C1554.08 915.591 1558.02 916.818 1562.81 916.818ZM1610.82 925V855.182H1621.18V865.727H1621.91C1623.18 862.273 1625.48 859.47 1628.82 857.318C1632.15 855.167 1635.91 854.091 1640.09 854.091C1640.88 854.091 1641.86 854.106 1643.05 854.136C1644.23 854.167 1645.12 854.212 1645.73 854.273V865.182C1645.36 865.091 1644.53 864.955 1643.23 864.773C1641.95 864.561 1640.61 864.455 1639.18 864.455C1635.79 864.455 1632.76 865.167 1630.09 866.591C1627.45 867.985 1625.36 869.924 1623.82 872.409C1622.3 874.864 1621.55 877.667 1621.55 880.818V925H1610.82ZM1693.18 855.182V864.273H1657V855.182H1693.18ZM1667.55 838.455H1678.27V905C1678.27 908.03 1678.71 910.303 1679.59 911.818C1680.5 913.303 1681.65 914.303 1683.05 914.818C1684.47 915.303 1685.97 915.545 1687.55 915.545C1688.73 915.545 1689.7 915.485 1690.45 915.364C1691.21 915.212 1691.82 915.091 1692.27 915L1694.45 924.636C1693.73 924.909 1692.71 925.182 1691.41 925.455C1690.11 925.758 1688.45 925.909 1686.45 925.909C1683.42 925.909 1680.45 925.258 1677.55 923.955C1674.67 922.652 1672.27 920.667 1670.36 918C1668.48 915.333 1667.55 911.97 1667.55 907.909V838.455ZM1740.41 855.182V864.273H1702.77V855.182H1740.41ZM1714.05 925V845.545C1714.05 841.545 1714.98 838.212 1716.86 835.545C1718.74 832.879 1721.18 830.879 1724.18 829.545C1727.18 828.212 1730.35 827.545 1733.68 827.545C1736.32 827.545 1738.47 827.758 1740.14 828.182C1741.8 828.606 1743.05 829 1743.86 829.364L1740.77 838.636C1740.23 838.455 1739.47 838.227 1738.5 837.955C1737.56 837.682 1736.32 837.545 1734.77 837.545C1731.23 837.545 1728.67 838.439 1727.09 840.227C1725.55 842.015 1724.77 844.636 1724.77 848.091V925H1714.05ZM1780.93 926.455C1774.63 926.455 1769.1 924.955 1764.34 921.955C1759.61 918.955 1755.92 914.758 1753.25 909.364C1750.61 903.97 1749.3 897.667 1749.3 890.455C1749.3 883.182 1750.61 876.833 1753.25 871.409C1755.92 865.985 1759.61 861.773 1764.34 858.773C1769.1 855.773 1774.63 854.273 1780.93 854.273C1787.23 854.273 1792.75 855.773 1797.48 858.773C1802.23 861.773 1805.93 865.985 1808.57 871.409C1811.23 876.833 1812.57 883.182 1812.57 890.455C1812.57 897.667 1811.23 903.97 1808.57 909.364C1805.93 914.758 1802.23 918.955 1797.48 921.955C1792.75 924.955 1787.23 926.455 1780.93 926.455ZM1780.93 916.818C1785.72 916.818 1789.66 915.591 1792.75 913.136C1795.84 910.682 1798.13 907.455 1799.61 903.455C1801.1 899.455 1801.84 895.121 1801.84 890.455C1801.84 885.788 1801.1 881.439 1799.61 877.409C1798.13 873.379 1795.84 870.121 1792.75 867.636C1789.66 865.152 1785.72 863.909 1780.93 863.909C1776.14 863.909 1772.2 865.152 1769.11 867.636C1766.02 870.121 1763.73 873.379 1762.25 877.409C1760.77 881.439 1760.02 885.788 1760.02 890.455C1760.02 895.121 1760.77 899.455 1762.25 903.455C1763.73 907.455 1766.02 910.682 1769.11 913.136C1772.2 915.591 1776.14 916.818 1780.93 916.818ZM1839.67 831.909V925H1828.94V831.909H1839.67ZM1859.32 925V855.182H1870.05V925H1859.32ZM1864.77 843.545C1862.68 843.545 1860.88 842.833 1859.36 841.409C1857.88 839.985 1857.14 838.273 1857.14 836.273C1857.14 834.273 1857.88 832.561 1859.36 831.136C1860.88 829.712 1862.68 829 1864.77 829C1866.86 829 1868.65 829.712 1870.14 831.136C1871.65 832.561 1872.41 834.273 1872.41 836.273C1872.41 838.273 1871.65 839.985 1870.14 841.409C1868.65 842.833 1866.86 843.545 1864.77 843.545ZM1918.06 926.455C1911.75 926.455 1906.22 924.955 1901.47 921.955C1896.74 918.955 1893.04 914.758 1890.38 909.364C1887.74 903.97 1886.42 897.667 1886.42 890.455C1886.42 883.182 1887.74 876.833 1890.38 871.409C1893.04 865.985 1896.74 861.773 1901.47 858.773C1906.22 855.773 1911.75 854.273 1918.06 854.273C1924.36 854.273 1929.88 855.773 1934.6 858.773C1939.36 861.773 1943.06 865.985 1945.69 871.409C1948.36 876.833 1949.69 883.182 1949.69 890.455C1949.69 897.667 1948.36 903.97 1945.69 909.364C1943.06 914.758 1939.36 918.955 1934.6 921.955C1929.88 924.955 1924.36 926.455 1918.06 926.455ZM1918.06 916.818C1922.84 916.818 1926.78 915.591 1929.88 913.136C1932.97 910.682 1935.25 907.455 1936.74 903.455C1938.22 899.455 1938.97 895.121 1938.97 890.455C1938.97 885.788 1938.22 881.439 1936.74 877.409C1935.25 873.379 1932.97 870.121 1929.88 867.636C1926.78 865.152 1922.84 863.909 1918.06 863.909C1913.27 863.909 1909.33 865.152 1906.24 867.636C1903.15 870.121 1900.86 873.379 1899.38 877.409C1897.89 881.439 1897.15 885.788 1897.15 890.455C1897.15 895.121 1897.89 899.455 1899.38 903.455C1900.86 907.455 1903.15 910.682 1906.24 913.136C1909.33 915.591 1913.27 916.818 1918.06 916.818Z" fill="black"/>
<g clip-path="url(#clip0_317_71)">
<path d="M1160.61 409.418C1151.27 381.416 1130.18 363.336 1099.64 357.13C1091.69 355.513 1083.91 354.694 1076.52 354.694C1057.85 354.694 1043.7 359.893 1033.45 366.007C1033.5 362.887 1033.33 356.233 1031.74 346.752C1033.06 346.831 1035.1 346.92 1037.73 346.92C1050.74 346.92 1074.96 344.746 1091 330.189C1112.87 310.321 1109.27 276.337 1109.11 274.899L1108.32 268.001L1100.72 267.286C1100.41 267.257 1097.56 267 1093.1 267C1080.09 267 1055.87 269.174 1039.84 283.732C1029.96 292.704 1025.28 304.552 1023.13 314.984C1018.44 302.234 1011.66 287.682 1001.83 271.852C999.284 267.745 993.546 266.29 989.022 268.608C984.497 270.924 982.898 276.132 985.449 280.241C1014 326.224 1014.72 360.795 1014.64 366.341C1004.39 360.288 990.201 355.453 971.484 355.453C971.483 355.453 971.48 355.453 971.477 355.453C964.086 355.453 956.308 355.893 948.357 357.509C917.816 363.715 896.732 381.606 887.386 409.608C878.742 435.507 882.068 464.647 886.379 484.611C890.959 505.822 903.23 529.579 919.207 548.235C928.317 558.873 938.213 567.361 948.62 573.51C961.331 581.021 974.488 584.818 987.723 584.818C1000.42 584.818 1012.57 581.364 1024 574.538C1035.43 581.364 1047.58 584.81 1060.28 584.81C1073.52 584.81 1086.67 581 1099.38 573.489C1109.79 567.341 1119.69 558.827 1128.8 548.19C1144.77 529.534 1157.04 505.732 1161.63 484.517C1165.93 464.549 1169.26 435.315 1160.61 409.418ZM1151.61 411.894C1147.72 400.23 1141.55 390.507 1133.3 382.9C1141.55 390.507 1147.72 400.231 1151.61 411.894Z" fill="black"/>
</g>
<defs>
<clipPath id="clip0_317_71">
<rect width="350" height="317.816" fill="white" transform="translate(849 267)"/>
</clipPath>
</defs>
</svg>
