<svg viewBox="0 120 3199.999999999999 1960" fill="none" xmlns="http://www.w3.org/2000/svg" xmlns:xlink="http://www.w3.org/1999/xlink" overflow="visible" width="3199.999999999999px" height="1960px"><g id="Master/Scenes/Back in Town"><path id="City" opacity="0.5" fill-rule="evenodd" clip-rule="evenodd" d="M3200 1395.08C3196.52 1395.08 3193.71 1397.36 3193.71 1400.16V1402.66C3193.71 1405.49 3190.78 1407.77 3187.27 1407.73C3177.86 1407.63 3172.11 1407.56 3172.11 1407.56V1411.85H3163.65V1360.35C3163.65 1357.55 3160.83 1355.28 3157.35 1355.28H3152.31C3148.83 1355.28 3146.01 1353.01 3146.01 1350.21V1335.9C3146.01 1331.88 3141.97 1328.63 3136.99 1328.63H3032.64C3027.65 1328.63 3023.62 1331.88 3023.62 1335.9V1451.98C3023.62 1455.99 3019.57 1459.25 3014.59 1459.25H2987.95C2982.96 1459.25 2978.93 1462.5 2978.93 1466.51V1557.05C2978.93 1561.07 2974.88 1564.32 2969.9 1564.32H2965.7C2960.71 1564.32 2956.68 1561.07 2956.68 1557.05V1552.55C2956.68 1548.54 2952.63 1545.28 2947.65 1545.28H2925.14C2921.67 1545.28 2918.85 1543.02 2918.85 1540.21V1537.81C2918.85 1535 2916.02 1532.73 2912.55 1532.73H2907.33C2903.85 1532.73 2901.03 1530.46 2901.03 1527.66V1522.08C2901.03 1518.06 2896.99 1514.82 2892.01 1514.82H2887.81C2882.82 1514.82 2878.78 1518.06 2878.78 1522.08V1559.25C2878.78 1562.05 2875.96 1564.32 2872.48 1564.32H2869.93C2866.46 1564.32 2866.51 1562.05 2866.51 1559.25V1472.89C2866.51 1472.49 2866.47 1472.1 2866.4 1471.71H2803.76C2803.69 1472.1 2803.65 1472.49 2803.65 1472.89V1554.06C2803.65 1557.39 2800.83 1561.05 2796.81 1561.86L2789.97 1561.91V1179.89C2789.97 1175.88 2785.92 1172.62 2780.94 1172.62H2635.29C2630.3 1172.62 2626.26 1175.88 2626.26 1179.89V1333.68C2626.26 1337.69 2622.22 1340.95 2617.23 1340.95H2611.84C2606.85 1340.95 2602.81 1344.2 2602.81 1348.21V1452.81H2595.56L2591.43 1437.05C2589.48 1429.59 2576.38 1429.29 2573.89 1436.66L2570.26 1447.45C2569.19 1450.61 2565.62 1452.81 2561.55 1452.81H2536.16C2531.17 1452.81 2527.13 1449.56 2527.13 1445.54V1270.76C2527.13 1266.75 2523.09 1263.49 2518.11 1263.49H2505C2500.01 1263.49 2495.97 1266.75 2495.97 1270.76V1364.14C2495.97 1368.16 2491.93 1371.41 2486.94 1371.41H2415.97C2410.98 1371.41 2406.94 1368.16 2406.94 1364.14V1362.55C2406.94 1358.53 2402.9 1355.28 2397.92 1355.28H2373.71C2368.72 1355.28 2364.68 1358.53 2364.68 1362.55V1371.32C2364.68 1375.33 2360.64 1378.58 2355.65 1378.58H2342.53C2337.54 1378.58 2333.5 1375.33 2333.5 1371.32V1367.92C2333.5 1363.91 2329.46 1360.65 2324.47 1360.65H2309.16C2304.18 1360.65 2300.13 1363.91 2300.13 1367.92V1446.89C2300.13 1450.82 2296.25 1454.03 2291.37 1454.15C2283.9 1454.34 2276.59 1454.44 2270.91 1454.34C2265.74 1454.26 2261.67 1457.55 2261.79 1461.71C2262.11 1473.25 2261.01 1493.11 2260.35 1503.55C2260.11 1507.41 2256.14 1510.41 2251.34 1510.41H2244.26C2239.27 1510.41 2235.23 1513.66 2235.23 1517.68V1563.96C2235.23 1567.98 2231.19 1571.23 2226.2 1571.23H2224.25C2219.26 1571.23 2215.22 1567.98 2215.22 1563.96V1476.42C2215.22 1475.23 2214.86 1474.05 2214.16 1473L2201.08 1453.23C2197.54 1447.89 2187.92 1448.17 2184.86 1453.7L2170.3 1480.08C2169.79 1481.01 2169.52 1482.02 2169.52 1483.03V1545.46C2169.52 1548.26 2166.7 1550.53 2163.22 1550.53H2158.89C2155.41 1550.53 2152.59 1548.26 2152.59 1545.46V1303.89C2152.59 1299.88 2148.54 1296.63 2143.56 1296.63H2043.98C2039 1296.63 2034.96 1299.88 2034.96 1303.89V1332.29C2034.96 1335.08 2032.14 1337.36 2028.66 1337.36H2028.23C2024.75 1337.36 2021.93 1339.63 2021.93 1342.43V1417.38C2021.93 1421.39 2017.89 1424.65 2012.91 1424.65H1988.67C1983.68 1424.65 1979.64 1421.39 1979.64 1417.38V1308.77C1979.64 1304.76 1975.6 1301.51 1970.61 1301.51H1913.65C1908.67 1301.51 1904.63 1298.25 1904.63 1294.24V1209.77C1904.63 1205.76 1900.59 1202.51 1895.6 1202.51H1818.28C1813.29 1202.51 1809.25 1205.76 1809.25 1209.77V1244.07C1809.25 1248.08 1805.21 1251.33 1800.22 1251.33H1699.58V1156.12C1699.58 1153.32 1696.76 1151.05 1693.28 1151.05H1688.4C1684.92 1151.05 1682.1 1148.78 1682.1 1145.98V1056.26C1682.1 1053.46 1679.28 1051.19 1675.8 1051.19H1670.91C1667.44 1051.19 1664.62 1048.92 1664.62 1046.12L1475.46 1042.81C1475.46 1045.39 1473.05 1047.57 1469.86 1047.86L1466.75 1048.13C1463.56 1048.42 1461.15 1050.59 1461.15 1053.18V1149.77H1451.61V1428.35C1451.61 1430.56 1450.37 1432.65 1448.22 1434.03L1440.31 1439.12C1438.16 1440.49 1436.91 1442.59 1436.91 1444.8V1451.62C1436.05 1451.61 1435.44 1451.6 1435.44 1451.6V1473.48C1435.44 1477.5 1431.4 1480.75 1426.42 1480.75H1423.8C1418.82 1480.75 1414.78 1477.5 1414.78 1473.48V1201.24C1414.78 1197.22 1410.74 1193.97 1405.76 1193.97H1326.39C1321.41 1193.97 1317.37 1197.22 1317.37 1201.24V1502.28L1270.11 1467.58C1268.41 1466.22 1267.47 1464.37 1267.47 1462.44V1247.74V1222.75C1267.47 1218.73 1263.42 1215.48 1258.44 1215.48H1247.57C1242.58 1215.48 1238.54 1212.22 1238.54 1208.21V1201.24C1238.54 1197.22 1234.5 1193.97 1229.51 1193.97H1171.41C1166.42 1193.97 1162.38 1190.72 1162.38 1186.7V1056.43C1162.38 1052.41 1158.34 1049.16 1153.36 1049.16H1103.86C1098.88 1049.16 1094.84 1052.41 1094.84 1056.43V1340.8C1094.84 1344.82 1090.8 1348.08 1085.81 1348.08H1040.78C1035.81 1348.08 1031.76 1344.82 1031.76 1340.8V1102.8C1031.76 1098.78 1027.72 1095.53 1022.73 1095.53H958.872C953.887 1095.53 949.844 1098.78 949.844 1102.8V1473.48C949.844 1477.5 945.806 1480.75 940.821 1480.75H938.213C933.228 1480.75 929.19 1477.5 929.19 1473.48V1465.11C929.19 1460.96 924.888 1457.64 919.731 1457.82L902.983 1458.39C897.825 1458.56 893.524 1455.24 893.524 1451.08V1426.29H893.581V1412.74C893.581 1408.73 889.543 1405.47 884.558 1405.47H871.44C866.455 1405.47 862.411 1402.22 862.411 1398.21V1387.55H852.429V1224.04C852.429 1220.03 848.386 1216.77 843.401 1216.77H748.537C743.551 1216.77 739.508 1220.03 739.508 1224.04V1365.94C739.508 1369.95 735.47 1373.21 730.485 1373.21H726.396C721.41 1373.21 717.373 1369.95 717.373 1365.94V1224.04C717.373 1220.03 713.329 1216.77 708.35 1216.77H625.064C620.079 1216.77 616.036 1220.03 616.036 1224.04V1339.05C616.036 1343.06 611.998 1346.32 607.013 1346.32H593.252C588.266 1346.32 584.223 1349.57 584.223 1353.59V1399.47L579.324 1397.17C575.55 1395.38 570.743 1396.04 567.9 1398.71L560.681 1405.52C559.285 1406.83 558.521 1408.51 558.521 1410.24V1424.43C558.521 1426.85 556.402 1428.93 553.461 1429.4L549.309 1430.07C546.362 1430.55 544.249 1432.64 544.249 1435.05V1538.49C544.249 1542.5 540.211 1545.75 535.226 1545.75H530.844C525.858 1545.75 521.821 1542.5 521.821 1538.49V1352.81C521.821 1350.88 520.867 1349.03 519.179 1347.67L514.825 1344.16C513.131 1342.8 512.183 1340.95 512.183 1339.03V1305.05C512.183 1303.13 511.23 1301.28 509.535 1299.92L495.464 1288.59C493.77 1287.22 492.816 1285.37 492.816 1283.45V1197.95C492.816 1195.97 491.817 1194.08 490.048 1192.71L468.43 1175.97C466.661 1174.6 465.656 1172.71 465.656 1170.74V1145.24L461.486 1141.03V1119.81C461.486 1118.33 454.169 1111.58 454.169 1110.1V1086.32C454.169 1083.9 452.05 1081.82 449.103 1081.35C449.103 1081.35 443.727 1078.74 443.727 1076.33V1050.21L439.558 1047.68V1028.34L433.292 1024.13V1008.1C433.292 1007.03 432.999 1005.97 432.436 1005.01L424.946 886H420.771H415.539V1015.79C415.539 1016.85 415.246 1017.9 414.689 1018.86L401.249 1042.02C400.692 1042.99 400.399 1044.03 400.399 1045.1V1062.75C400.399 1064.68 399.446 1066.53 397.757 1067.9C397.757 1067.9 384.22 1079.88 384.22 1081.8V1107.39H373.503V1136.19C373.503 1137.53 372.842 1138.82 371.665 1139.77L367.776 1142.91C366.599 1143.86 365.938 1145.15 365.938 1146.49V1169.21L360.195 1173.83V1199.89H354.027V1284.19C354.027 1286.99 351.207 1289.26 347.726 1289.26H344.843C341.362 1289.26 338.542 1291.53 338.542 1294.33V1304.85C338.542 1308.87 334.499 1312.13 329.514 1312.13C324.528 1312.13 320.491 1315.37 320.491 1319.39V1522.55C320.491 1526.57 316.447 1529.82 311.468 1529.82H307.625C302.634 1529.82 298.597 1526.57 298.597 1522.55V1514.18C298.597 1511.38 295.777 1509.11 292.302 1509.11H292.296C288.816 1509.11 285.996 1506.84 285.996 1504.04V1325.43C285.996 1321.42 281.952 1318.16 276.973 1318.16H90.6389C85.6536 1318.16 81.616 1321.42 81.616 1325.43V1553.14C81.616 1557.04 77.7794 1560.29 72.9319 1560.41C66.9128 1560.56 46.8568 1560.51 42.7503 1560.1C42.2046 1560.06 41.7049 1560.17 41.1823 1560.22V1488.02C41.1823 1484.01 37.1389 1480.75 32.1594 1480.75H9.02487C4.03958 1480.75 0.00195312 1484.01 0.00195312 1488.02V2000.79C0.00195312 2004.81 4.04532 2008.06 9.03061 2008.06L3200 2001.42V1395.08Z" fill="url(#paint0_linear_301_10848d5858dc0-0121-4545-b3d5-f2c53691a47a)"/><g id="Floor"><path id="Path 4" d="M1343.7 2002.5C1345.64 2002.5 1347.2 2004.07 1347.2 2006C1347.2 2007.87 1345.74 2009.4 1343.89 2009.49L1343.7 2009.5H510C508.067 2009.5 506.5 2007.93 506.5 2006C506.5 2004.13 507.964 2002.6 509.808 2002.51L510 2002.5H1343.7Z" fill="#090E2B"/><path id="Path 4 Copy 3" d="M2690.23 2005C2692.16 2005 2693.73 2006.57 2693.73 2008.5C2693.73 2010.37 2692.26 2011.9 2690.42 2011.99L2690.23 2012H1647.29C1645.36 2012 1643.79 2010.43 1643.79 2008.5C1643.79 2006.63 1645.26 2005.1 1647.1 2005.01L1647.29 2005H2690.23Z" fill="#090E2B"/></g><g id="Flying Objects" opacity="0.5" transform="translate(132 -107) scale(1 1)"><g id="Flying Objects/Cloud 1"><path id="cloud" fill-rule="evenodd" clip-rule="evenodd" d="M171.044 473.895C161.387 459.137 151.9 436.733 163.002 423.548C169.563 415.755 180.669 416.373 188.629 421.934C196.591 427.495 202.142 436.87 207.441 445.961C198.936 424.955 190.257 403.137 189.653 379.753C189.05 356.369 198.845 330.873 217.134 323.328C236.095 315.504 256.284 328.774 272.648 342.761C307.585 372.621 339.188 408.19 366.334 448.196C364.619 435.639 362.903 422.76 364.903 410.263C366.902 397.765 373.426 385.527 383.427 381.605C393.344 377.714 404.064 382.624 413.373 388.304C445.411 407.843 473.144 437.617 493 473.793C490.055 473.793 494.421 478.67 491.476 478.67L171.044 473.895Z" fill="#F0F1FF"/></g></g><g id="Flying Objects" opacity="0.5" transform="translate(2500 -107) scale(1 1)"><g id="Flying Objects/Cloud 1"><path id="cloud" fill-rule="evenodd" clip-rule="evenodd" d="M171.044 473.895C161.387 459.137 151.9 436.733 163.002 423.548C169.563 415.755 180.669 416.373 188.629 421.934C196.591 427.495 202.142 436.87 207.441 445.961C198.936 424.955 190.257 403.137 189.653 379.753C189.05 356.369 198.845 330.873 217.134 323.328C236.095 315.504 256.284 328.774 272.648 342.761C307.585 372.621 339.188 408.19 366.334 448.196C364.619 435.639 362.903 422.76 364.903 410.263C366.902 397.765 373.426 385.527 383.427 381.605C393.344 377.714 404.064 382.624 413.373 388.304C445.411 407.843 473.144 437.617 493 473.793C490.055 473.793 494.421 478.67 491.476 478.67L171.044 473.895Z" fill="#F0F1FF"/></g></g><g id="Flying Objects" opacity="0.5" transform="matrix(-1 0 0 1 1949 -186) scale(1 1)"><g id="Flying Objects/Cloud 1"><path id="cloud" fill-rule="evenodd" clip-rule="evenodd" d="M171.044 473.895C161.387 459.137 151.9 436.733 163.002 423.548C169.563 415.755 180.669 416.373 188.629 421.934C196.591 427.495 202.142 436.87 207.441 445.961C198.936 424.955 190.257 403.137 189.653 379.753C189.05 356.369 198.845 330.873 217.134 323.328C236.095 315.504 256.284 328.774 272.648 342.761C307.585 372.621 339.188 408.19 366.334 448.196C364.619 435.639 362.903 422.76 364.903 410.263C366.902 397.765 373.426 385.527 383.427 381.605C393.344 377.714 404.064 382.624 413.373 388.304C445.411 407.843 473.144 437.617 493 473.793C490.055 473.793 494.421 478.67 491.476 478.67L171.044 473.895Z" fill="#F0F1FF"/></g></g><g id="Master/Character/Standing [colors]" transform="translate(1687 509.5) scale(1 1)"><g id="Master/Character/Standing [colors]"><g id="Lower Body/Standing" transform="translate(-64 629) scale(1 1)"><g id="Lower Body/Standing/Walking 2"><path id="leg-2" fill-rule="evenodd" clip-rule="evenodd" d="M801 747.688C802.13 758.518 834.14 827.459 834.14 827.459C852.388 831.665 883.25 810.154 879.722 804.322C876.195 798.49 861.354 729 861.354 729C861.354 729 813.162 739.77 801 747.688" fill="#b75858"/><path id="leg-1" fill-rule="evenodd" clip-rule="evenodd" d="M271.575 679C271.575 679 236.248 731.727 219.944 748.545C204.877 764.086 252.552 794 252.552 794L330 719.908L271.575 679Z" fill="#b75858"/><path id="pant" fill-rule="evenodd" clip-rule="evenodd" d="M812.636 370.807C833.322 472.312 862.428 689.154 867 728.962C833.431 749.112 783.399 768.69 778.435 766.884C777.456 766.528 776.062 756.413 765.768 743.232C758.122 733.439 766.998 722.667 758.014 705.467C752.954 695.779 748.774 693.582 748.887 672.382C748.919 666.21 746.422 647.889 744.814 641.642C728.117 576.739 711.117 504.272 695.221 450.757C672.52 374.321 601.527 251.59 601.527 251.59C601.527 251.59 571.896 344.449 540.536 422.884C481.274 571.098 354.398 741.893 343.473 751.365C337.687 756.38 260.476 706.024 256 676.918C271.602 653.767 264.047 653.137 274.435 635.817C279.818 626.842 288.328 626.942 293.391 611.907C298.137 597.822 297.803 589.742 311.974 576.689C330.423 559.698 341.064 531.222 347.274 519.221C379.68 456.595 409.797 387.02 418.593 330.016C451.475 116.905 446.064 72.8723 512.302 0.421702C579.053 -1.91741 636.901 -0.972368 688.017 0.421702C689.413 32.8883 790.364 261.525 812.636 370.807Z" fill="#001386"/><g id="shoe-1"><path id="Fill 7" fill-rule="evenodd" clip-rule="evenodd" d="M327.67 852.488C322.415 829.363 297.251 826.707 281.95 804.618C277.629 798.38 282.34 784.816 273.928 779.907C261.679 772.758 261.121 792.611 240.209 771.449C234.672 765.847 236.562 754.982 227.23 746.789C225.713 745.458 223.136 739.795 214.272 745.496C209.33 748.673 181.434 767.495 180.986 780.686C213.029 811.247 235.817 839.7 260.198 852.224C277.964 861.35 291.192 864.312 324.119 866.762C331.249 867.293 329.031 858.477 327.67 852.488" fill="#090E2B"/><path id="Fill 9" fill-rule="evenodd" clip-rule="evenodd" d="M308.13 870.85C275.176 870.85 261.836 863.504 241.061 847.904C223.726 834.886 207.247 817.329 194.026 804.301C171.429 782.034 175.275 776.727 178.359 773.064C184.917 765.273 189.515 763.109 191.984 762.887C209.185 761.34 211.174 791.943 208.995 803.439C225.75 821.26 238.325 835.946 253.408 846.051C274.47 860.163 287.574 862.513 327.703 865.78C324.825 871.746 316.669 870.85 308.13 870.85" fill="#FFB201"/><path id="Fill 12" fill-rule="evenodd" clip-rule="evenodd" d="M264.902 815.62C264.323 817.261 278.846 811.953 286.814 813.277C287.063 813.318 281.146 816.266 278.178 820.27C276.673 822.3 276.119 823.515 278.333 822.876C291.347 819.123 295.016 820.759 296.593 820.443C301.29 819.504 294.054 816.085 283.943 818.378C286.394 816.817 290.253 814.241 289.59 812.625C287.33 807.116 265.913 812.755 264.902 815.62" fill="#FFB201"/></g><path id="Fill 14" fill-rule="evenodd" clip-rule="evenodd" d="M614.374 218.774C611.466 229.242 607.297 242.804 603.945 250.791C602.448 254.359 602.224 252.627 602 252.237C606.555 230.249 613.166 208.253 619.106 186.501C624.951 167.998 629.2 137.528 639 122C628.918 151.512 622.905 188.066 614.374 218.774Z" fill="white"/><g id="shoe-2"><path id="Fill 16" fill-rule="evenodd" clip-rule="evenodd" d="M991.636 799.287C980.838 785.371 940.441 788.323 911.138 790.091C901.275 790.685 884.063 782.119 878.351 784.382C870.034 787.678 884.698 802.294 856.022 811.021C848.43 813.332 845.016 805.629 828.184 809.734C825.449 810.401 821.244 811.353 820.073 818.917C819.419 823.134 823.069 857.718 835.559 867.807C890.509 849.357 945.988 827.522 994.182 809.417C998.888 807.648 994.399 802.848 991.636 799.287" fill="#090E2B"/><path id="Fill 18" fill-rule="evenodd" clip-rule="evenodd" d="M985.912 818.675L855.415 868.927C846.757 872.485 832.511 874.261 828.575 867.424C825.635 862.317 823.412 849.671 823.562 848.721C824.612 842.1 852.381 837.228 866.76 853.045C915.992 839.146 996.322 805.85 996.322 805.85C996.322 805.85 1000.18 812.618 985.912 818.675" fill="#FFB201"/><path id="Fill 21" fill-rule="evenodd" clip-rule="evenodd" d="M920.736 799.46C921.639 791.092 922.716 789.301 920.82 788.728C916.284 787.357 901.204 802.21 901.573 807.637C901.85 811.705 910.011 796.661 919.051 791.562C916.434 796.632 916.822 809.105 919.89 805.471C934.843 787.764 938.74 789.183 938.616 788.772C938.031 786.82 930.315 787.885 920.736 799.46" fill="#FFB201"/></g><path id="Fill 23" fill-rule="evenodd" clip-rule="evenodd" d="M288 683C308.821 702.793 330.901 721.303 355 737C329.265 729.245 305.634 702.126 288 683" fill="#FFB201"/><path id="Fill 25" fill-rule="evenodd" clip-rule="evenodd" d="M864 705C856.172 711.877 845.458 715.019 836.363 719.891C827.307 724.367 816.517 730.379 807 731C818.063 723.896 830.523 719.754 842.253 714.006C849.066 711.357 857.1 705.054 864 705" fill="#FFB201"/></g></g><g id="Upper Body/Standing" transform="translate(69 -172) scale(1 1)"><g id="Upper Body/Standing/Shopping Coffee 2"><path id="bag-strap" fill-rule="evenodd" clip-rule="evenodd" d="M313.84 757.399L300 838L305.25 837.521L321 755L313.84 757.399Z" fill="#FFB201"/><path id="hand-2" fill-rule="evenodd" clip-rule="evenodd" d="M786.278 651.104C791.328 648.209 789.737 624.695 795.918 633.205C797.456 635.322 798.809 642.202 798.809 642.202L825.796 643.888C825.796 643.888 827.483 633.786 829.539 624.524C831.594 615.263 837.176 645.929 827.434 655.305C825.581 657.087 817.066 660.752 801.529 665.838C791.592 669.09 654.315 745.947 629.674 738.491C604.891 730.994 567 673.73 567 673.73L611.667 617C611.667 617 643.704 680.164 652.756 680.164C656.404 680.164 668.94 673.73 716.076 665.838C733.396 662.938 781.228 653.999 786.278 651.104Z" fill="#b75858"/><path id="Fill 5" fill-rule="evenodd" clip-rule="evenodd" d="M535.966 496.521C515.179 487.803 510.291 487.92 503.667 480.315C500.834 477.063 496.656 459.369 499.284 444.998C501.913 430.625 448.171 421 448.171 421C448.171 421 455.081 469.499 445.997 475.853C440.959 479.378 425 484.677 425 484.677C474.558 527.808 489.045 535.214 503.667 534.995C537.052 534.498 535.966 496.521 535.966 496.521Z" fill="#b75858"/><path id="hand-1" fill-rule="evenodd" clip-rule="evenodd" d="M221.443 756.389C170.321 798.14 148.683 817.874 144.52 817.412C99.5236 812.411 62.5232 856.15 75.6994 856C88.8755 855.85 105.516 850.798 126.498 846.506C144.529 842.818 223.348 814.437 292.06 772.598C335.667 746.045 337.207 760.001 374.723 671.493C385.805 645.35 321.137 634.704 321.137 634.704C329.097 620.364 309.306 649.023 292.427 697.131C286.323 714.53 272.181 714.953 221.443 756.389Z" fill="#b75858"/><path id="Tshirt" fill-rule="evenodd" clip-rule="evenodd" d="M432.562 484.937C433.703 485.777 435.342 487.286 437.474 489.249C447.321 498.318 467.69 517.076 498.147 524.345C525.786 530.944 526.338 499.566 524.389 492.646C523.228 488.53 535.26 493.039 546.804 499.979C547.243 500.242 547.652 500.548 548.034 500.891C553.162 505.124 580.614 531.429 627 640.963C613.882 667.152 571.08 692.527 571.08 692.527L563.112 677.229C562.963 677.818 562.811 678.41 562.656 679.005C559.841 689.806 563.611 716.345 567.784 745.731C571.14 769.362 574.758 794.833 575.424 815.441C575.838 828.282 539.628 824.178 495.478 819.173C451.819 814.225 400.397 808.396 368.945 817.202C351.574 822.065 361.753 795.511 373.171 765.726C378.398 752.092 383.884 737.781 387.106 725.496C392.261 705.841 392.764 693.575 393.319 680.039C393.566 674.014 393.824 667.737 394.506 660.445C384.181 680.051 373.527 698.618 368.867 704.1C358.825 715.913 312.948 694.739 297 666.164C297 666.164 312.345 630.173 329.131 589.076C353.369 529.736 369.351 507.991 380.081 499.272C380.649 498.354 382.181 497.282 384.741 496.044C387.562 494.428 389.93 493.683 391.932 493.092C400.084 490.126 412.524 486.464 429.763 482.013C430.163 481.91 430.515 482.429 430.971 483.1C431.381 483.704 431.875 484.431 432.562 484.937Z" fill="#3615F6"/><path id="Fill 16" fill-rule="evenodd" clip-rule="evenodd" d="M825.168 655H799.557C798.147 655 796.954 653.959 796.77 652.566L789 594H833L827.97 652.438C827.844 653.888 826.627 655 825.168 655" fill="#FFB201"/><path id="Combined Shape" fill-rule="evenodd" clip-rule="evenodd" d="M561.779 676.605C561.73 677.084 562.462 677.142 562.526 676.699L562.773 675.316C571.447 626.809 575.371 604.861 556.637 557.065C555.096 556.247 556.975 563.363 558.242 568.161C558.737 570.033 559.138 571.553 559.206 572.11C561.789 581.708 564.171 591.741 565.808 601.527C568.116 618.497 566.12 635.614 564.129 652.687C563.197 660.676 562.267 668.655 561.779 676.605ZM396.982 651.627C396.495 652.604 395.993 653.61 395.474 654.655C393.144 659.342 394.187 659.574 394.537 659.574C396.527 659.574 407.203 641.121 408.259 638.709C409.381 636.925 420.042 608.722 415.476 611.166C413.841 614.346 409.03 625.415 407.618 628.664L407.608 628.688C404.187 637.172 401.132 643.302 396.982 651.627Z" fill="#090E2B"/><path id="Fill 27" fill-rule="evenodd" clip-rule="evenodd" d="M826.743 655.087C832.512 650.345 837.806 620.668 830.278 622.047C822.751 623.425 819.445 625.615 814 657.016C814.246 659.993 820.973 659.83 826.743 655.087Z" fill="#b75858"/><path id="Fill 30" fill-rule="evenodd" clip-rule="evenodd" d="M830 591H792L793.853 583.834C794.285 582.162 795.743 581 797.408 581H824.592C826.257 581 827.714 582.162 828.146 583.834L830 591Z" fill="#111B56"/><path id="Fill 32" fill-rule="evenodd" clip-rule="evenodd" d="M786 596H836V587H786V596Z" fill="#090E2B"/><g id="Bag"><path id="Fill 14" fill-rule="evenodd" clip-rule="evenodd" d="M418.535 632.191C421.584 616.608 425.467 596.261 428.832 580.736C435.516 550.133 444.088 503.857 406.481 487.712C401.899 486.773 409.502 484.942 414.277 484C415.975 484.277 437.052 495.21 440.748 520.406C445.532 553.029 437.364 578.213 431.549 609.692C416.443 682.16 400.349 769.365 386.24 842.678C385.613 846.268 379.734 845.56 380.318 841.713C393.432 769.265 405.093 702.061 418.535 632.191Z" fill="#FFB201"/><path id="Fill 20" fill-rule="evenodd" clip-rule="evenodd" d="M420.303 947.617C396.228 985.886 275.922 979.141 256.276 938.422C242.624 910.128 294.86 833.933 294.86 833.933L393.638 839.471C393.638 839.471 437.032 921.026 420.303 947.617" fill="#090E2B"/><path id="Fill 23" fill-rule="evenodd" clip-rule="evenodd" d="M393.217 859.247C390.742 878.214 381.175 897.082 365.062 907.971C326.422 933.246 296.2 899.726 294.769 860.6C294.61 858.117 293.046 831.686 297.217 837.855C297.135 859.48 299.522 883.47 314.158 900.468C329.172 918.14 356.327 912.56 371.125 897.469C381.912 887.278 388.633 873.436 392.22 859.061C392.328 858.464 393.331 858.619 393.217 859.247" fill="white"/></g></g></g><g id="Head" transform="translate(399 26) scale(1 1)"><g id="Head/Long Hair Hat Blue"><path id="Path 10" fill-rule="evenodd" clip-rule="evenodd" d="M70.2562 97.4989C70.2562 97.4989 48.6944 43.7932 97.6996 26.2653C146.705 8.73743 185.296 17.9742 190.236 59.3052C198.158 125.599 94.9178 158.925 70.2562 97.4989Z" fill="#090E2B"/><path id="Fill 1" fill-rule="evenodd" clip-rule="evenodd" d="M146.176 222.265C53.2246 222.265 -22 206.483 -22 143.464C-22 80.4452 31.2017 46.2417 130.855 31.5907C230.508 16.9396 302 13.2005 302 96.4541C302 159.474 239.129 222.265 146.176 222.265Z" fill="#090E2B"/><path id="Fill 3" fill-rule="evenodd" clip-rule="evenodd" d="M-106.282 235.5C-66.068 209.611 -17.1446 224.379 8.88736 215.123C51.1954 200.08 45.4882 152.69 85.35 135.013C96.1764 100.832 126.661 83.7612 171.659 83.7612C242.273 83.7612 244.239 140.447 245.971 150C252.336 185.102 239.116 253.488 252.47 276.992C274.888 316.454 264.527 342.215 252.837 351.627C240.235 361.774 203.569 352.484 195.614 345.892C180.433 333.313 165.115 328.377 165.115 286.672C157.189 274.503 156.722 270.9 158.512 256.127C160.666 238.353 162.691 222.274 124.435 215.123C127.545 245.856 132.654 267.017 118.354 282.576C104.054 298.134 89.6971 298.134 72.0618 304C35.0071 316.324 22.5879 420.655 -90.4692 376.973C-151.085 354.33 -146.495 261.389 -106.282 235.5Z" fill="#001386"/><path id="Combined Shape" fill-rule="evenodd" clip-rule="evenodd" d="M232.575 234.655C240.592 218.767 243.748 193.622 234.766 156.81C232.702 148.348 231.768 140.973 230.975 134.711C228.319 113.731 227.245 105.249 190.535 110.271C163.009 114.037 120.164 131.23 112.624 161.39C112.624 161.39 112.49 163.053 112.357 165.813C101.569 153.837 85.3501 166.516 85.3501 176.746C85.3501 199.59 104.018 209.45 115.276 206.802C115.616 207.955 115.99 209.053 116.402 210.081C116.754 210.962 117.114 211.894 117.491 212.87C120.63 220.991 124.935 232.132 135.518 241.803C146.77 252.086 166.782 263.904 198.631 262.784C215.143 262.203 223.139 253.358 232.575 234.655Z" fill="#b75858"/><path id="Fill 8" fill-rule="evenodd" clip-rule="evenodd" d="M110.261 179.03C107.388 173.262 100.467 169.688 94.4889 173.724C93.1359 174.637 94.9599 175.262 95.5309 175.198C102.632 174.269 105.451 176.21 107.784 180.247C105.553 180.794 103.324 182.779 103.039 185.021C102.865 186.397 103.341 190.47 104.391 189.185C105.117 188.297 103.517 182.239 108.806 182.792C108.886 182.81 108.958 182.814 109.033 182.821C109.282 183.419 111.273 184.657 112.128 183.619C112.652 182.985 111.573 181.667 110.261 179.03" fill="#090E2B"/><path id="Fill 9" fill-rule="evenodd" clip-rule="evenodd" d="M184.511 83.8578C156.443 85.8888 116.345 115.898 109.891 137.898C108.798 141.625 109.8 161.009 112.187 165.389C115.364 171.22 115.016 184.517 124.482 186.059C141.169 188.776 124.021 163.956 126.553 157.471C136.096 133.018 166.369 148.55 184.511 143.014C209.354 135.434 218.556 130.045 219.194 129.08C222.416 141.456 239.796 165.149 245.815 169.768C247.773 171.269 245.135 144.379 238.852 122.622C235.05 109.456 211.194 81.9268 184.511 83.8578Z" fill="#001386"/><path id="Fill 11" fill-rule="evenodd" clip-rule="evenodd" d="M107.274 236.091C95.6422 236.091 86.1782 226.627 86.1782 214.995C86.1782 208.848 88.8402 202.929 93.5032 198.914C94.2692 199.697 95.1862 200.566 95.8692 201.149C91.8702 204.593 89.1782 209.722 89.1782 214.995C89.1782 224.973 97.2962 233.091 107.274 233.091C117.252 233.091 125.37 224.973 125.37 214.995C125.37 205.018 117.252 196.9 107.274 196.9C106.446 196.9 105.774 196.228 105.774 195.4C105.774 194.571 106.446 193.9 107.274 193.9C118.906 193.9 128.37 203.363 128.37 214.995C128.37 226.627 118.906 236.091 107.274 236.091" fill="white"/><path id="Fill 4" fill-rule="evenodd" clip-rule="evenodd" d="M151.936 254.628C147.843 252.187 139.507 247.655 137.848 245.046C136.983 243.686 140.059 245.478 141.65 246.678C143.768 248.275 152.519 252.985 163.318 258.066C164.255 258.506 170.267 261.033 170.416 261.371C170.556 261.688 169.953 262.236 169.242 262.142C164.462 261.505 156.448 257.319 151.936 254.628Z" fill="#090E2B"/></g></g><g id="Expressions" transform="translate(520 159) scale(1 1)"><g id="Expressions/Happy"><g id="eye1"><path id="Fill 1" fill-rule="evenodd" clip-rule="evenodd" d="M21.0758 18.1794C22.852 10.1964 46.2248 7.39831 56.5098 13.5793C60.0658 15.6923 66.6698 21.4974 60.8228 24.6574C59.2788 25.3294 57.7788 24.6404 56.5098 23.8214C42.4918 14.0794 19.8377 23.7441 21.0758 18.1794Z" fill="#090E2B"/><path id="Fill 6" fill-rule="evenodd" clip-rule="evenodd" d="M40.0385 32.611C34.7505 34.111 30.2175 38.361 29.7965 41.883C29.5415 44.011 37.8915 49.12 45.9445 49.517C56.5385 50.038 61.8785 44.299 61.8595 42.465C61.1465 36.915 54.7555 28.437 40.0385 32.611Z" fill="white"/><path id="Fill 8" fill-rule="evenodd" clip-rule="evenodd" d="M56.4251 35.7687C48.2821 29.6147 35.6701 33.6247 29.7961 41.8827C29.4591 42.3107 29.5561 41.2337 29.7901 40.7427C32.6241 34.7957 37.7371 31.9887 43.6651 30.7647C47.2321 30.0277 50.5581 29.9677 54.0371 31.5257C55.3821 32.1267 57.7581 33.9587 59.5941 36.0307C61.0261 37.6457 62.2321 40.4147 60.5751 39.4357C59.2781 38.6687 57.5051 36.5857 56.4251 35.7687Z" fill="#090E2B"/><path id="Fill 10" fill-rule="evenodd" clip-rule="evenodd" d="M45.8406 46.276C50.3676 46.276 54.0376 42.928 54.0376 38.797C54.0376 34.667 50.3676 31.318 45.8406 31.318C41.3136 31.318 37.6436 34.667 37.6436 38.797C37.6436 42.928 41.3136 46.276 45.8406 46.276Z" fill="#090E2B"/></g><g id="eye2"><path id="Fill 4" fill-rule="evenodd" clip-rule="evenodd" d="M104.459 16.8615C107.813 18.3492 112.278 23.2874 108.561 23.2874C104.844 23.2874 96.7934 22.233 91.3964 24.46C89.5114 24.942 88.0809 25.8644 86.1879 26.0894C81.8799 26.9284 79.5393 21.7686 82.5852 18.6493C86.0263 15.1253 97.6432 13.4545 104.459 16.8615Z" fill="#090E2B"/><path id="Fill 12" fill-rule="evenodd" clip-rule="evenodd" d="M100.659 49.2345C106.03 47.9855 110.047 43.1155 109.593 39.4765C108.707 34.6545 99.4218 31.5755 94.2208 34.2085C89.0698 36.8155 85.8468 42.6405 86.2628 44.9405C86.8638 46.5325 95.1698 50.5115 100.659 49.2345Z" fill="white"/><path id="Fill 14" fill-rule="evenodd" clip-rule="evenodd" d="M96.2146 46.6063C99.7526 46.6063 102.621 43.8523 102.621 40.4563C102.621 37.0593 100.6 33.8493 96.2146 34.3063C92.6956 34.6723 89.8076 37.0593 89.8076 40.4563C89.8076 43.8523 92.6766 46.6063 96.2146 46.6063Z" fill="#090E2B"/><path id="Fill 22" fill-rule="evenodd" clip-rule="evenodd" d="M86.454 41.6378C88.483 34.0638 97.644 30.1689 104.889 33.7549C105.909 34.2869 107.565 35.4809 108.805 36.9229C109.946 38.2529 109.797 38.9499 109.331 38.8119C108.559 38.5819 106.926 37.1169 105.599 36.4869C98.889 33.3039 91.908 35.0899 86.797 42.5589C86.546 42.9459 86.308 42.0748 86.454 41.6378" fill="#090E2B"/></g><path id="Fill 18" fill-rule="evenodd" clip-rule="evenodd" d="M89.7737 88.8586C81.2033 89.8586 88.1482 99.3834 83.7083 100.649C72.341 103.888 59.9999 99.9573 58.0066 89.8586C56.8302 83.8987 60.3418 84.6194 63.1467 84.8682C65.9516 85.1171 79.8038 85.6293 87.2446 85.6293C94.4592 85.6293 90.8333 88.735 89.7737 88.8586Z" fill="#090E2B"/><path id="nose" fill-rule="evenodd" clip-rule="evenodd" d="M79.5164 56.0474C79.9047 56.0474 82.4879 60.4695 83.4357 62.0222C86.4544 66.9676 89.7813 72.5049 84.8702 75.6882C82.4912 77.2312 75.0122 74.8407 75.0122 73.0252C75.0122 70.2631 81.8382 75.1192 83.4442 72.3152C84.3858 70.8872 80.8591 63.644 79.5164 59.3488C78.7671 56.9517 79.1281 56.0474 79.5164 56.0474Z" fill="#090E2B"/></g></g><g id="Facial Accesories" transform="translate(517 209) scale(120 110)"><g id="Facial Accesories/None" stroke="none" stroke-width="1" fill="none" fill-rule="evenodd" fill-opacity="0"/></g><g id="Glass" transform="translate(520 164) scale(120 75)"><g id="Glass/None" stroke="none" stroke-width="1" fill="none" fill-rule="evenodd" fill-opacity="0"/></g></g></g><g id="Master/Character/Standing [colors]" transform="translate(1025 509.5) scale(1 1)"><g id="Master/Character/Standing [colors]"><g id="Lower Body/Standing" transform="translate(-64 629) scale(1 1)"><g id="Lower Body/Standing/Stand 2"><g id="leg-1"><path id="Fill 1" fill-rule="evenodd" clip-rule="evenodd" d="M395.033 769.979C395.033 769.979 389.687 766.962 377.039 768.378C373.623 768.761 368.431 772.544 356.27 779.602C340.151 788.955 318.001 804.658 310.475 821.752C292.335 862.95 317.596 867.807 322.132 868.956C326.666 870.103 349.433 848.614 349.433 848.614L368.864 822.252L398 797.258L395.033 769.979Z" fill="#090E2B"/><path id="Fill 3" fill-rule="evenodd" clip-rule="evenodd" d="M388.051 770.15C379.898 771.501 343.131 790.382 327.347 807.024C314.987 820.054 307.856 834.84 308.002 851.084C308.121 864.339 318.655 868.125 323.23 868.53C343.901 870.363 356.564 866.839 368.346 857.861C376.81 851.412 398.73 825.702 404.689 820.616C409.605 816.418 422 802.985 422 794.572C422 776.552 396.204 768.8 388.051 770.15" fill="#FF0057"/><path id="Fill 5" fill-rule="evenodd" clip-rule="evenodd" d="M399.11 725C399.11 725 385.209 774.825 383.889 776.563C383.277 777.367 361.098 791.968 364.32 792.708C368.102 793.577 380.149 780.903 392.116 793.878C402.688 805.342 397.287 811.022 395.553 815.129C393.325 820.409 393.49 819.238 395.434 817.704C410.068 806.165 417.312 799.153 420.049 791.144C421.986 785.477 454 742.661 454 742.661L399.11 725Z" fill="#ca8f67"/><path id="Fill 27" fill-rule="evenodd" clip-rule="evenodd" d="M363.065 816.038C360.4 810.997 363.426 806.132 364.67 811.036C365.295 813.501 369.59 819.706 377.222 822.894C378.754 823.475 381.243 826.621 374.788 825.891C370.459 824.723 365.14 819.959 363.065 816.038Z" fill="#FFB201"/><path id="Fill 29" fill-rule="evenodd" clip-rule="evenodd" d="M352.032 824.521C350.041 819.203 351.062 815.785 353.969 819.671C354.046 819.774 357.055 829.864 366.565 833.046C370.679 833.046 371.585 835.279 370.679 835.519C360.187 838.293 353.46 828.336 352.032 824.521Z" fill="#FFB201"/></g><g id="leg-2"><path id="Fill 7" fill-rule="evenodd" clip-rule="evenodd" d="M587 755.299L598.402 830.763C598.402 830.763 609.454 837.377 626.903 841.649C644.353 845.924 674.642 843.398 675.224 841.649C675.805 839.9 686.505 826.514 669.056 819.517C651.606 812.519 646.353 808.351 644.461 798.607C643.65 794.428 646.035 751 646.035 751L587 755.299Z" fill="#ca8f67"/><g id="Group 11"><path id="Fill 9" fill-rule="evenodd" clip-rule="evenodd" d="M755.311 870H590.996C589.477 864.956 588.147 859.664 588.381 855.478L753.087 859.212C754.071 862.344 754.823 866.057 755.311 870" fill="#090E2B"/></g><path id="Fill 12" fill-rule="evenodd" clip-rule="evenodd" d="M593.887 804C593.887 804 605.34 811.875 608.799 819.557C616.87 821.478 647.076 822.038 645.238 819.665C639.376 812.089 647.077 804.664 651.689 804.664C656.301 804.664 688.483 827.382 692.71 827.382C696.938 827.382 740.084 844.614 745.464 848.072C750.844 851.528 753 860 753 860H588.475C588.475 860 582.74 816.626 593.887 804" fill="#FF0057"/><path id="Fill 14" fill-rule="evenodd" clip-rule="evenodd" d="M667.008 818.674C667.651 809.738 679.994 813.418 674.671 815.912C672.171 815.457 670.28 816.813 669.495 819.103C669.106 820.539 666.849 820.144 667.008 818.674" fill="#FFB201"/><path id="Fill 16" fill-rule="evenodd" clip-rule="evenodd" d="M675.008 824.674C675.651 815.738 687.993 819.418 682.672 821.912C680.17 821.457 678.281 822.813 677.494 825.102C677.105 826.539 674.849 826.144 675.008 824.674" fill="#FFB201"/></g><path id="Combined Shape" fill-rule="evenodd" clip-rule="evenodd" d="M719.71 103.634C715.512 24.2313 692.935 -0.0629883 692.935 -0.0629883L586.821 3.28176L504.5 -8.51005e-05C504.5 -8.51005e-05 459.935 44.8878 454.158 134.192C451.391 176.954 462.858 251.892 471.854 310.687C477.959 350.58 482.926 383.041 481.538 392.976C480.91 397.474 475.988 405.215 469.441 415.51C458.158 433.255 442.049 458.59 434.784 487.991C418.02 555.844 403.361 609.201 392.876 647.371C381.723 687.967 375.291 711.383 376.062 716.788C377.561 727.273 413.828 748.514 427.311 753.61C440.795 758.706 459.467 761.109 459.854 750.941C460.353 737.891 477.288 701.808 503.079 652.375C514.075 631.3 530.734 596.615 547.265 558.243C547.691 562.245 548.15 565.23 548.644 567.06C552.218 580.302 553.855 621.547 555.518 663.443C557.617 716.345 559.758 770.284 565.891 770.186C567.751 770.157 571.541 770.273 576.544 770.425C601.114 771.176 654.927 772.819 652.865 762.536C650.315 749.82 662.891 503.429 668.805 484.662C675.053 464.83 676.722 429.404 677.976 402.777C678.399 393.805 678.775 385.832 679.263 379.79C679.795 373.196 683.413 355.342 688.291 331.268C701.146 267.827 722.753 161.194 719.71 103.634Z" fill="#001386"/><path id="Fill 22" fill-rule="evenodd" clip-rule="evenodd" d="M478.984 41.7753C455.867 81.8762 493.664 58.3383 561.765 60.078C615.067 61.4397 692.935 -8.51005e-05 692.935 -8.51005e-05L505.31 -0.0629883C505.31 -0.0629883 488.685 24.9482 478.984 41.7753Z" fill="#001386"/><path id="Fill 25" fill-rule="evenodd" clip-rule="evenodd" d="M607.175 398.026C598.532 450.272 572.831 500.8 553.493 548.526C552.039 551.505 548.196 559.577 549.15 556.181C549.939 553.373 551.008 550.623 552.113 547.935C569.339 502.885 585.424 457.169 598.532 410.743C599.544 406.961 600.544 402.796 601.139 398.925C608.838 339.79 608.598 279.81 613.136 220.341C614.338 203.893 615.919 183.614 618.358 167.291C618.442 166.565 619.218 166.966 618.94 171.194C612.051 248.208 615.818 345.78 607.175 398.026Z" fill="#090E2B"/></g></g><g id="Upper Body/Standing" transform="translate(69 -172) scale(1 1)"><g id="Upper Body/Standing/With Laptop 2"><path id="Fill 1" fill-rule="evenodd" clip-rule="evenodd" d="M518 470C531.898 477.921 553.105 494.381 565.718 532.851C576.32 565.182 600.57 611.863 601.354 616.557C613.886 621.248 664 646.25 664 646.25C664 646.25 629.463 702 626.618 702C623.772 702 606.926 701.132 590.612 699.849C537.347 695.659 534.615 659.159 531.973 644.271C523.424 596.088 521.989 475.179 518 470" fill="#3615F6"/><path id="Fill 3" fill-rule="evenodd" clip-rule="evenodd" d="M435.679 395C435.679 395 447.229 452.304 439.464 458.256C435.587 461.228 419 465.605 419 465.605C419 465.605 459.845 498.13 484.813 498.967C509.781 499.805 526.466 484.609 523.701 479.101C519.564 470.858 490.313 463.498 489.221 456.162C487.975 447.794 488.521 411.174 488.521 411.174L435.679 395Z" fill="#ca8f67"/><path id="Fill 6" fill-rule="evenodd" clip-rule="evenodd" d="M430 469.084C430 469.084 475.141 498.235 488.988 494.708C498.467 492.293 497.323 472.625 498.383 464C507.11 464.849 524.843 473.859 531.117 486.924C539.442 504.257 540.33 542.594 546.278 573.411C559.568 642.256 545.543 789.002 545.543 789.002C545.543 789.002 471.088 824.442 451.166 807.334C440.924 798.538 466.945 752.036 468.986 677.213C471.027 602.389 473.539 578.886 465.871 553.859C458.204 528.831 430 469.084 430 469.084" fill="white"/><path id="Fill 8" fill-rule="evenodd" clip-rule="evenodd" d="M420.261 464C404.19 467.258 359.922 478.625 358.573 490.674C357.393 501.228 345.849 632.519 361.438 652.189C380.107 675.744 350.697 747.759 338.818 766.969C318.152 800.389 283.216 827.985 323.586 827.26C365.637 826.507 474.745 883.935 474.745 806.287C474.745 722.088 485.91 640.58 485.999 608.514C486.299 498.981 437.079 471.643 420.261 464" fill="#3615F6"/><path id="Fill 11" fill-rule="evenodd" clip-rule="evenodd" d="M519.586 471.026C532.547 479.039 566.685 530.936 560.067 579.881C555.909 610.633 552.22 711.881 560.768 746.298C569.317 780.715 584.188 809.522 583.998 828.488C583.911 837.13 550.11 841.479 540.244 837.533C516.832 828.17 519.024 806.058 522.385 761.942C530.298 658.065 530.069 480.953 498 464C505.703 464.287 516.001 468.809 519.586 471.026" fill="#3615F6"/><path id="Fill 13" fill-rule="evenodd" clip-rule="evenodd" d="M538.705 512.535C548.375 531.147 558.774 550.76 559.724 571.894C560.925 598.556 557.874 629.021 556.942 655.743C556.667 662.722 556.411 669.704 556.397 676.681C556.409 677.088 555.712 677.123 555.717 676.687C555.052 644.182 559.108 604.533 557.629 571.984C556.683 551.179 546.437 531.034 538.02 512.085C537.875 511.817 538.555 512.243 538.705 512.535" fill="#090E2B"/><g id="macbook"><path id="Fill 15" fill-rule="evenodd" clip-rule="evenodd" d="M632.37 661.886L512.737 672.015C510.696 672.184 504.283 674.863 504.062 676.898C504.062 676.898 503.115 682.144 508.637 682.144H632.37V661.886Z" fill="white"/><path id="Fill 17" fill-rule="evenodd" clip-rule="evenodd" d="M795.427 682.144H608.125L659.804 544.887C662.941 537.138 669.583 529.392 680.064 529.392L836.657 529.51C853.488 529.388 855.6 535.634 851.981 545.475C841.556 573.816 814.743 653.168 805.525 675.402C803.831 679.485 799.848 682.144 795.427 682.144" fill="white"/><path id="Fill 19" fill-rule="evenodd" clip-rule="evenodd" d="M835.827 528.473C792.59 528.369 732.598 528.281 689.252 528.172C674.145 527.233 664.769 529.791 658.51 544.715C644.548 581.913 628.395 625.339 614.858 662.832L518.824 671.499C527.941 670.768 615.381 664.467 615.636 663.663C631.014 625.32 647.175 580.328 662.532 542.106C668.818 530.519 677.502 530.153 689.252 530.625L721.825 530.608C743.135 530.713 798.973 530.405 819.547 530.555C826.947 531.416 850.268 527.31 852.298 536.788C852.673 545.795 847.155 554.789 844.527 563.408C842.152 571.198 833.801 594.167 833.801 594.167C825.258 618.261 815.657 647.225 806.573 670.878C803.156 681.683 798.623 681.789 788.463 681.532C783.324 681.571 769.941 682.132 764.655 682.178C764.019 682.187 763.382 682.621 764.033 682.639C773.388 682.518 787.456 683.018 796.672 682.717C802.836 682.37 806.239 676.677 807.893 671.397C817.713 646.075 826.543 620.387 835.56 594.781C839.053 584.195 847.919 558.707 851.855 548.734C858.164 532.754 850.738 527.986 835.827 528.473" fill="#090E2B"/></g><path id="Fill 21" fill-rule="evenodd" clip-rule="evenodd" d="M490.796 673.475C490.431 673.503 490.215 673.522 490.204 673.525L490.796 673.475Z" fill="black"/><path id="Fill 23" fill-rule="evenodd" clip-rule="evenodd" d="M703 681.775H736.342C748.167 681.993 741.981 657.809 754.9 660.161C765.929 662.169 765.431 668.637 764.286 681.68C766.519 678.887 770.763 677.968 772.216 678.917C774.293 680.274 771.968 680.675 768.461 686.296C764.406 692.794 752.879 698.871 739.14 700.026C735.005 700.373 711.248 704 711.248 704L703 681.775Z" fill="#ca8f67"/><path id="Fill 25" fill-rule="evenodd" clip-rule="evenodd" d="M508.485 669.783C508.485 669.783 517.752 663.18 525.7 664.114C536.303 665.357 537.148 660.575 539.86 664.743C540.456 665.658 538.585 668.596 533.674 669.688C527.046 671.16 529.823 675.25 529.823 675.25C529.823 675.25 552.846 680.74 556.083 681.319C557.871 681.638 558.353 686.727 544.835 690.738C537.784 692.831 527.707 692.886 515.83 693.285C512.526 693.398 474.53 705 474.53 705L472.188 686.067L471 666.394L508.485 669.783Z" fill="#ca8f67"/><path id="Fill 27" fill-rule="evenodd" clip-rule="evenodd" d="M627 702.025C627 702.025 722.409 705.881 728.352 704.813C734.295 703.745 722.252 682 722.252 682H636.046L627 702.025Z" fill="#3615F6"/><g id="blush"><path id="Fill 29" fill-rule="evenodd" clip-rule="evenodd" d="M738.171 608.015H738.156C733.892 608.015 732.019 606.223 731.282 605.154C730.734 604.358 730.934 603.268 731.73 602.72C732.525 602.171 733.616 602.373 734.163 603.167C734.754 604.024 736.21 604.515 738.157 604.515H738.17C741.16 604.515 743.246 603.389 744.225 602.718C745.023 602.169 746.111 602.374 746.657 603.17C747.204 603.967 747.002 605.056 746.205 605.603C743.941 607.159 741.087 608.015 738.171 608.015" fill="#090E2B"/><path id="Fill 31" fill-rule="evenodd" clip-rule="evenodd" d="M726.117 610.799C723.743 616.995 716.822 622.018 710.66 622.018C704.498 622.018 701.428 616.995 703.803 610.799C706.177 604.604 713.097 599.581 719.26 599.581C725.422 599.581 728.492 604.604 726.117 610.799" fill="#FF00A4"/><path id="Fill 33" fill-rule="evenodd" clip-rule="evenodd" d="M769.985 610.799C767.61 616.995 760.689 622.018 754.527 622.018C748.365 622.018 745.295 616.995 747.67 610.799C750.045 604.604 756.964 599.581 763.127 599.581C769.29 599.581 772.36 604.604 769.985 610.799" fill="#FF00A4"/><path id="Fill 35" fill-rule="evenodd" clip-rule="evenodd" d="M729.923 595.951C729.298 597.582 727.477 598.903 725.856 598.903C724.234 598.903 723.426 597.582 724.051 595.951C724.676 594.321 726.497 593 728.118 593C729.739 593 730.548 594.321 729.923 595.951" fill="#090E2B"/><path id="Fill 37" fill-rule="evenodd" clip-rule="evenodd" d="M760.872 595.951C760.247 597.582 758.426 598.903 756.805 598.903C755.183 598.903 754.375 597.582 755 595.951C755.625 594.321 757.445 593 759.067 593C760.688 593 761.496 594.321 760.872 595.951" fill="#090E2B"/></g><path id="Fill 39" fill-rule="evenodd" clip-rule="evenodd" d="M419.02 583.172C410.53 605.552 363.375 655.529 363.375 655.529C363.375 655.529 473.684 666.975 489.979 666.973C490.357 672.702 485.559 716.183 485.559 716.183C437.553 722.984 285.153 742.653 273.084 702.373C247.939 618.452 346.605 503.936 359.273 488.451C377.018 466.759 430.374 553.239 419.02 583.172" fill="#3615F6"/><path id="Fill 42" fill-rule="evenodd" clip-rule="evenodd" d="M489.714 666.434C447.359 664.423 408.769 657.397 366.316 653.665C381.27 637.655 395.802 621.173 408.277 603.151C412.554 596.793 416.438 590.478 418.983 583.201C419.061 582.969 419.671 581.084 419.438 581C409.527 601.201 393.244 620.575 377.832 637.386C372.656 642.974 367.381 648.497 362.006 653.865C361.117 654.701 359.894 656.197 362.974 656.403C395.524 658.573 428.118 662.633 460.598 665.662C471.483 666.455 477.187 666.96 488.136 667C489.896 667.007 490.379 666.419 489.714 666.434" fill="#090E2B"/><path id="Fill 44" fill-rule="evenodd" clip-rule="evenodd" d="M486 716C442.896 721.949 400.874 727.751 357.325 726.411C356.56 726.334 357.278 727.062 358.116 727.143C388.066 730.391 453.127 723.494 462.912 721.607C481.155 718.09 485.217 717.23 486 716" fill="#090E2B"/></g></g><g id="Head" transform="translate(399 26) scale(1 1)"><g id="Head/Long Hair Hat Blue"><path id="Path 10" fill-rule="evenodd" clip-rule="evenodd" d="M70.2562 97.4989C70.2562 97.4989 48.6944 43.7932 97.6996 26.2653C146.705 8.73743 185.296 17.9742 190.236 59.3052C198.158 125.599 94.9178 158.925 70.2562 97.4989Z" fill="#090E2B"/><path id="Fill 1" fill-rule="evenodd" clip-rule="evenodd" d="M146.176 222.265C53.2246 222.265 -22 206.483 -22 143.464C-22 80.4452 31.2017 46.2417 130.855 31.5907C230.508 16.9396 302 13.2005 302 96.4541C302 159.474 239.129 222.265 146.176 222.265Z" fill="#090E2B"/><path id="Fill 3" fill-rule="evenodd" clip-rule="evenodd" d="M-106.282 235.5C-66.068 209.611 -17.1446 224.379 8.88736 215.123C51.1954 200.08 45.4882 152.69 85.35 135.013C96.1764 100.832 126.661 83.7612 171.659 83.7612C242.273 83.7612 244.239 140.447 245.971 150C252.336 185.102 239.116 253.488 252.47 276.992C274.888 316.454 264.527 342.215 252.837 351.627C240.235 361.774 203.569 352.484 195.614 345.892C180.433 333.313 165.115 328.377 165.115 286.672C157.189 274.503 156.722 270.9 158.512 256.127C160.666 238.353 162.691 222.274 124.435 215.123C127.545 245.856 132.654 267.017 118.354 282.576C104.054 298.134 89.6971 298.134 72.0618 304C35.0071 316.324 22.5879 420.655 -90.4692 376.973C-151.085 354.33 -146.495 261.389 -106.282 235.5Z" fill="#001386"/><path id="Combined Shape" fill-rule="evenodd" clip-rule="evenodd" d="M232.575 234.655C240.592 218.767 243.748 193.622 234.766 156.81C232.702 148.348 231.768 140.973 230.975 134.711C228.319 113.731 227.245 105.249 190.535 110.271C163.009 114.037 120.164 131.23 112.624 161.39C112.624 161.39 112.49 163.053 112.357 165.813C101.569 153.837 85.3501 166.516 85.3501 176.746C85.3501 199.59 104.018 209.45 115.276 206.802C115.616 207.955 115.99 209.053 116.402 210.081C116.754 210.962 117.114 211.894 117.491 212.87C120.63 220.991 124.935 232.132 135.518 241.803C146.77 252.086 166.782 263.904 198.631 262.784C215.143 262.203 223.139 253.358 232.575 234.655Z" fill="#ca8f67"/><path id="Fill 8" fill-rule="evenodd" clip-rule="evenodd" d="M110.261 179.03C107.388 173.262 100.467 169.688 94.4889 173.724C93.1359 174.637 94.9599 175.262 95.5309 175.198C102.632 174.269 105.451 176.21 107.784 180.247C105.553 180.794 103.324 182.779 103.039 185.021C102.865 186.397 103.341 190.47 104.391 189.185C105.117 188.297 103.517 182.239 108.806 182.792C108.886 182.81 108.958 182.814 109.033 182.821C109.282 183.419 111.273 184.657 112.128 183.619C112.652 182.985 111.573 181.667 110.261 179.03" fill="#090E2B"/><path id="Fill 9" fill-rule="evenodd" clip-rule="evenodd" d="M184.511 83.8578C156.443 85.8888 116.345 115.898 109.891 137.898C108.798 141.625 109.8 161.009 112.187 165.389C115.364 171.22 115.016 184.517 124.482 186.059C141.169 188.776 124.021 163.956 126.553 157.471C136.096 133.018 166.369 148.55 184.511 143.014C209.354 135.434 218.556 130.045 219.194 129.08C222.416 141.456 239.796 165.149 245.815 169.768C247.773 171.269 245.135 144.379 238.852 122.622C235.05 109.456 211.194 81.9268 184.511 83.8578Z" fill="#001386"/><path id="Fill 11" fill-rule="evenodd" clip-rule="evenodd" d="M107.274 236.091C95.6422 236.091 86.1782 226.627 86.1782 214.995C86.1782 208.848 88.8402 202.929 93.5032 198.914C94.2692 199.697 95.1862 200.566 95.8692 201.149C91.8702 204.593 89.1782 209.722 89.1782 214.995C89.1782 224.973 97.2962 233.091 107.274 233.091C117.252 233.091 125.37 224.973 125.37 214.995C125.37 205.018 117.252 196.9 107.274 196.9C106.446 196.9 105.774 196.228 105.774 195.4C105.774 194.571 106.446 193.9 107.274 193.9C118.906 193.9 128.37 203.363 128.37 214.995C128.37 226.627 118.906 236.091 107.274 236.091" fill="white"/><path id="Fill 4" fill-rule="evenodd" clip-rule="evenodd" d="M151.936 254.628C147.843 252.187 139.507 247.655 137.848 245.046C136.983 243.686 140.059 245.478 141.65 246.678C143.768 248.275 152.519 252.985 163.318 258.066C164.255 258.506 170.267 261.033 170.416 261.371C170.556 261.688 169.953 262.236 169.242 262.142C164.462 261.505 156.448 257.319 151.936 254.628Z" fill="#090E2B"/></g></g><g id="Expressions" transform="translate(520 159) scale(1 1)"><g id="Expressions/Relaxed"><path id="Fill 1" fill-rule="evenodd" clip-rule="evenodd" d="M93.917 85.9778C78.288 85.3498 67.34 84.9098 56.819 84.4878C53.549 84.3558 50.673 90.0738 56.294 97.5688C64.259 108.189 84.891 111.876 93.281 99.0538C97.555 92.5238 97.31 86.1148 93.917 85.9778" fill="white"/><path id="nose" fill-rule="evenodd" clip-rule="evenodd" d="M82.7871 55.7084C86.8281 59.4834 96.9611 74.6464 87.8281 76.8394C85.9421 77.2914 77.3211 77.5114 78.5921 75.6374C79.6051 74.1434 85.9771 75.0244 86.8981 72.1854C88.1081 68.4554 83.7121 61.1524 80.9721 56.1434C80.5011 55.2804 82.1521 54.9674 82.7871 55.7084" fill="#090E2B"/><path id="eye" fill-rule="evenodd" clip-rule="evenodd" d="M101.14 49.4726C102.716 48.4496 104.002 46.9449 104.812 43.8791C105.442 41.4928 104.117 41.182 103.446 41.8768C103.179 42.1534 102.89 42.5185 102.567 42.9254C101.4 44.4003 99.7974 46.4242 97.2379 46.7697C95.5386 47 93.0129 46.5252 90.427 44.7174C88.7963 43.5795 87.3545 43.558 88.271 45.8261C89.496 48.8593 96.5465 52.4533 101.14 49.4726ZM45.7528 54.7979C53.7067 59.04 63.5732 54.6834 63.3552 47.0155C63.2851 44.5515 61.754 44.5133 60.8831 46.19C58.6542 50.4862 51.8747 54.579 43.8676 49.2316C43.8604 49.2268 43.853 49.2219 43.8454 49.2169C43.2217 48.8006 41.4469 47.6162 40.7587 48.3637C39.6704 49.5454 41.6555 52.6145 45.7528 54.7979Z" fill="#090E2B"/><path id="eybrow" fill-rule="evenodd" clip-rule="evenodd" d="M106.892 19.0603C97.9002 11.4322 82.9075 17.8364 81.4786 26.4153C80.9228 29.7588 84.7289 30.4299 86.5262 28.5224C93.1586 21.4848 101.912 23.1875 105.337 23.8539C106.047 23.9919 106.528 24.0854 106.714 24.0478C109.751 23.4369 108.668 20.5673 106.892 19.0603ZM27.9799 30.9433C38.6859 22.6052 49.269 24.8492 60.7363 31.6406C64.9372 32.9563 65.9182 27.4971 62.7947 24.082C55.9812 16.6332 41.7869 15.2534 31.6092 20.0844C28.5028 21.5578 24.6711 25.6739 23.7097 27.9688C22.3602 31.1906 24.1328 33.9401 27.9799 30.9433Z" fill="#090E2B"/></g></g><g id="Facial Accesories" transform="translate(517 209) scale(120 110)"><g id="Facial Accesories/None" stroke="none" stroke-width="1" fill="none" fill-rule="evenodd" fill-opacity="0"/></g><g id="Glass" transform="translate(520 164) scale(120 75)"><g id="Glass/None" stroke="none" stroke-width="1" fill="none" fill-rule="evenodd" fill-opacity="0"/></g></g></g><g id="Master/Character/Standing [colors]" transform="translate(396 509.5) scale(1 1)"><g id="Master/Character/Standing [colors]"><g id="Lower Body/Standing" transform="translate(-64 629) scale(1 1)"><g id="Lower Body/Standing/Running"><g id="Group"><g id="leg-2"><path id="Fill 1" fill-rule="evenodd" clip-rule="evenodd" d="M868.881 727C868.881 727 892.415 798.523 896.153 804.103C900.693 810.879 918.916 812.263 918.916 812.263C918.916 812.263 917.741 838.239 899.661 844.981C887.076 849.674 848.239 862.835 852.45 852.734C856.662 842.634 782 762.588 782 762.588L868.881 727Z" fill="#ca8f67"/><g id="shoe-2"><path id="Fill 16" fill-rule="evenodd" clip-rule="evenodd" d="M1033.88 807.785C1020.05 793.818 977.041 804.322 944.368 806.688C920.278 808.433 910.334 804.263 904.219 807.361C898.515 810.249 916.672 830.697 882.356 841.247C873.891 843.85 863.276 845.615 848.831 842.777C846.489 842.317 846.769 844.155 846.491 852.698C846.337 857.458 853.22 895.298 868.416 904.794C893.718 892.716 911.595 878.47 937.397 869.865C984.165 854.265 1006.18 839.662 1037.34 819.699C1042.06 816.673 1037.42 811.358 1033.88 807.785" fill="#071777"/><path id="Fill 18" fill-rule="evenodd" clip-rule="evenodd" d="M1030.16 830.048C968.598 873.244 927.089 873.752 912.763 887.604C906.802 893.369 869.241 913.588 863.96 906.542C860.013 901.278 858.151 894.2 859.185 893.914C864.279 892.508 872.471 893.139 902.035 879.812C939.107 862.232 985.882 852.734 1030.69 820.194C1035.84 816.452 1037.56 812.016 1037.56 812.016C1037.56 812.016 1040.9 814.337 1040.76 817.704C1040.62 821.07 1037.24 825.079 1030.16 830.048" fill="#FFB201"/><path id="Fill 20" fill-rule="evenodd" clip-rule="evenodd" d="M946.418 817.876C942.694 817.218 945.078 807.965 948.248 805.321C952.234 801.997 958.701 804.628 953.883 806.152C948.295 807.92 950.015 818.51 946.418 817.876" fill="#FFB201"/><path id="Fill 22" fill-rule="evenodd" clip-rule="evenodd" d="M964.957 815.811C959.055 812.399 964.34 801.471 969.843 801.467C972.499 801.465 973.643 803.818 971.425 803.713C962.899 806.989 969.052 815.467 964.957 815.811" fill="#FFB201"/></g></g><g id="leg-1"><path id="Fill 3" fill-rule="evenodd" clip-rule="evenodd" d="M168.386 605.881C168.386 605.881 227.421 566.488 245.805 554.341C265.031 541.638 286.582 623.347 286.582 623.347C286.582 623.347 206.367 642.297 196.931 647.798C192.401 650.437 185.673 661.473 185.673 661.473C185.673 661.473 158.764 651.4 157.502 633.352C156.241 615.303 168.386 605.881 168.386 605.881" fill="#ca8f67"/><g id="shoe-1"><path id="Fill 8" fill-rule="evenodd" clip-rule="evenodd" d="M132.65 598.584C127.78 599.036 125.164 596.496 119.348 610.219C113.532 623.939 107.197 649.235 105.379 653.363C97.8144 670.541 80.3703 690.209 76.6619 707.094C61.8123 774.705 91.6086 785.158 95.4422 782.912C107.457 775.871 116.457 753.92 126.155 743.535C144.847 723.518 191.796 660.983 192.853 654.123C176.804 649.519 169.991 638.131 169.08 627.614C168.013 615.303 172.259 607.484 170.669 604.147C169.079 600.809 146.467 597.304 132.65 598.584" fill="#071777"/><path id="Fill 10" fill-rule="evenodd" clip-rule="evenodd" d="M159.209 703.829C158.32 703.835 157.608 703.056 157.696 702.173C158.176 689.307 139.558 689.294 140.174 685.601C140.85 682.119 162.207 686.401 160.914 701.75C160.848 702.536 159.981 703.829 159.209 703.829" fill="#FFB201"/><path id="Fill 12" fill-rule="evenodd" clip-rule="evenodd" d="M171.615 687.002C170.91 687.002 170.279 686.51 170.131 685.796C167.506 674.655 151.967 673.184 152.632 669.545C153.628 666.303 172.543 673.051 173.101 685.181C173.144 686.129 172.561 687.014 171.615 687.002" fill="#FFB201"/><path id="Fill 14" fill-rule="evenodd" clip-rule="evenodd" d="M121.604 639.479C124.252 625.672 130.984 601.989 132.65 598.584C127.781 599.036 120.917 594.07 115.102 607.792C109.286 621.514 107.197 649.235 105.379 653.363C97.8145 670.541 77.2833 693.007 72.5122 709.626C68.0171 725.278 64.5802 755.252 73.9156 773.805C80.185 786.266 91.6088 785.158 95.4424 782.911C96.9374 782.036 98.9978 780.5 100.407 779.213C99.1744 779.807 98.1833 780.241 96.5821 780.697C87.8769 783.181 79.261 771.308 76.7738 749.789C74.2866 728.269 78.2129 706.851 90.8579 688.507C98.1173 677.978 119.003 653.044 121.604 639.479" fill="#FFB201"/></g></g><path id="Fill 5" fill-rule="evenodd" clip-rule="evenodd" d="M696.139 249.357C710.497 138.247 702.681 0 702.681 0H499.131C499.131 0 463.879 47.56 471.829 124.793C477.715 181.971 506.898 240.013 537.348 295.628C533.478 313.948 529.131 327.819 524.263 334.8C471.669 410.25 296.936 470.049 229.148 559.937C218.092 574.6 290.213 666.523 302.548 690.413C307.41 699.825 539.501 556.501 620.418 481.748C656.664 604.445 696.841 786.246 739.534 795.697C760.752 800.393 861.508 749.17 879.99 737.243C880.892 724.979 818.951 570.721 751.292 412.723C727.567 357.317 709.688 299.934 696.139 249.357Z" fill="#001386"/><path id="Fill 24" fill-rule="evenodd" clip-rule="evenodd" d="M539.288 298.137C573.015 355.262 602.454 411.65 620.413 478.305C621.535 482.468 620.761 483.591 620.442 482.729C604.582 439.862 586.877 401.466 567.599 361.495C557.321 340.584 549.468 317.597 538.081 297.244C537.775 296.759 538.369 296.967 539.288 298.137" fill="#090E2B"/><path id="Fill 26" fill-rule="evenodd" clip-rule="evenodd" d="M642.195 47.2124C653.497 73.839 665.737 124.231 673.436 152.401C681.442 183.507 689.341 217.439 696.964 248.754C697.147 249.424 696.582 248.592 696.394 247.857C679.591 189.736 643.656 55.8454 642.834 52.9007C642.38 51.5619 641.647 45.8344 642.195 47.2124" fill="#090E2B"/></g></g></g><g id="Upper Body/Standing" transform="translate(69 -172) scale(1 1)"><g id="Upper Body/Standing/Mobile Chat  2"><path id="Fill 1" fill-rule="evenodd" clip-rule="evenodd" d="M652.278 935.742C652.46 939.213 650.088 951.435 654.997 956.297C663.559 964.774 663.474 972.706 665.9 968.021C666.736 966.407 666.648 964.634 666.433 962.476C665.887 957.014 663.331 954.157 663.063 953.203C666.311 953.098 669.865 955.334 671.39 960.74C672.773 965.642 678.084 974.618 685.124 977.381C692.36 980.22 692.426 977.346 690.404 969.36C688.149 960.451 689.569 952.58 686.586 945.067C684.043 938.662 670.269 924.239 668.398 918.335C662.25 898.948 655.928 875.548 655.928 875.548C655.928 875.548 604.321 868.166 614.609 888.892C625.528 910.886 652.098 932.272 652.278 935.742" fill="#ca8f67"/><path id="Fill 4" fill-rule="evenodd" clip-rule="evenodd" d="M432.656 477.84C426.6 481.727 417.795 483.936 410.054 488.543C402.314 493.151 439.091 510.117 459.21 523.743C487.213 542.708 503.578 543.671 512.973 533.863C522.367 524.055 532 511.226 532 503.025C532 494.824 506.499 492.637 497.133 481.6C491.83 475.351 497.133 429.415 491.83 430.987C486.528 432.559 435.815 401.882 439.633 415.491C447.588 443.84 445.312 469.718 432.656 477.84Z" fill="#ca8f67"/><path id="Fill 7" fill-rule="evenodd" clip-rule="evenodd" d="M589.352 557.57C576.253 536.01 570.503 528.936 559.716 518.628C543.099 502.745 515.462 491.415 515.462 491.415C513.302 505.594 501.995 520.577 491.796 520.667C467.383 520.883 413.261 486 413.261 486C413.261 486 377.69 499.102 354.492 528.562C331.083 558.29 319.967 639.447 351.158 721.745C366.093 761.149 315.86 836.31 342.712 831.662C385.365 824.279 385.387 804.394 476.181 823.049C522.533 832.573 549.576 827.925 563.903 819.504C576.357 863.843 595.983 901.667 601.181 899.943C629.744 890.473 647.864 893.66 660 882.249C635.169 811.958 615.701 754.5 613.122 732.945C603.702 654.227 610.432 592.264 589.352 557.57Z" fill="#3615F6"/><g id="Mobile"><path id="Fill 9" fill-rule="evenodd" clip-rule="evenodd" d="M545.981 589.891C544.337 562.948 544.835 539.866 546.905 512.275C547.221 508.056 548.947 505.471 552.398 505.304C563.9 504.747 575.082 505.12 586.182 505.144C590.861 505.154 593.035 508.606 593.313 512.828C595.023 538.709 594.913 564.806 592.389 590.443C591.975 594.654 588.533 597.995 585.078 597.954C574.422 597.828 563.768 597.701 553.113 597.574C549.658 597.533 546.416 594.099 545.981 589.891" fill="#FFB201"/><path id="Fill 11" fill-rule="evenodd" clip-rule="evenodd" d="M572.249 518.228C570.245 518.495 568.404 517.086 568.138 515.082C567.87 513.079 569.278 511.238 571.282 510.97C573.287 510.704 575.128 512.112 575.395 514.116C575.662 516.12 574.254 517.96 572.249 518.228" fill="white"/></g><path id="Fill 13" fill-rule="evenodd" clip-rule="evenodd" d="M492 592.046C492 592.046 529.912 569.674 533.927 562.261C535.322 559.684 536.495 551.223 537.423 548.985C543.533 534.236 537.941 530.803 542.564 531.009C551.322 531.397 544.002 545.736 548.731 546.526C553.175 547.267 573.497 542.996 581.855 536.337C589.768 530.033 593.335 562.466 580.635 571.528C564.238 583.226 560.175 580.611 556.708 583.84C548.906 591.111 523.829 633 523.829 633L492 592.046Z" fill="#ca8f67"/><path id="Fill 15" fill-rule="evenodd" clip-rule="evenodd" d="M375.714 752.934C434.685 750.168 538 635.591 538 635.591L502.758 582.821L405.553 641.927C405.553 641.927 426.417 589.065 426.84 578.484C427.105 571.868 382.566 516.477 357.124 526.125C347.367 529.825 331.305 577.686 325.995 605.296C313.34 671.115 316.742 755.698 375.714 752.934Z" fill="#3615F6"/><path id="Fill 1" fill-rule="evenodd" clip-rule="evenodd" d="M536.878 631.322C526.105 614.7 514.677 598.509 503.397 582.239C503.002 581.664 502.215 581.493 501.616 581.863C472.009 599.521 438.694 619.711 408.878 637.9C419.129 614.234 428.535 589.42 429.216 563.444C429.24 562.89 428.4 562.846 428.323 563.362C427.187 570.121 425.931 576.858 424.344 583.46C411.192 642.495 382.809 658.427 430.431 628.654C452.667 615.124 479.651 598.589 501.933 584.789C513.459 601.452 526.168 619.316 536.45 635.692C528.366 645.812 516.593 658.892 506.361 669.182C480.776 694.955 453.245 719.358 421.902 737.908C401.173 751.239 377.162 757.296 353.331 748.565C351.231 749.187 359.73 751.92 361.721 752.34C376.578 756.687 393.069 755.827 407.009 748.867C458.019 724.166 499.426 683.091 535.965 640.528C539.345 636.081 540.253 636.267 536.878 631.322" fill="#090E2B"/><path id="Fill 19" fill-rule="evenodd" clip-rule="evenodd" d="M560.181 718.018C563.031 740.371 569.464 762.852 574.853 784.852C576.659 793.786 581.569 804.258 573.551 811.909C570.133 815.173 567.081 817.209 563.082 819.761C562.82 819.933 562.079 820.112 562.321 819.91C566.152 816.689 569.221 814.15 571.965 810.596C574.772 807.156 576.369 803.289 574.827 798.932C573.173 791.321 569.153 777.007 567.143 769.313C562.464 751.508 558.909 736.741 556.668 718.423C554.509 699.905 558.095 681.666 560.181 663.464C562.494 645.399 562.317 625.658 556.696 608.224C556.466 607.599 557.493 608.353 558.045 609.601C572.861 645.882 556.965 681.377 560.181 718.018Z" fill="#090E2B"/></g></g><g id="Head" transform="translate(399 26) scale(1 1)"><g id="Head/Long Hair Hat Gray"><path id="Path 10" fill-rule="evenodd" clip-rule="evenodd" d="M70.2562 97.4989C70.2562 97.4989 48.6944 43.7932 97.6996 26.2653C146.705 8.73743 185.296 17.9742 190.236 59.3052C198.158 125.599 94.9178 158.925 70.2562 97.4989Z" fill="#090E2B"/><path id="Fill 1" fill-rule="evenodd" clip-rule="evenodd" d="M146.176 222.265C53.2246 222.265 -22 206.483 -22 143.464C-22 80.4452 31.2017 46.2417 130.855 31.5907C230.508 16.9396 302 13.2005 302 96.4541C302 159.474 239.129 222.265 146.176 222.265Z" fill="#090E2B"/><path id="Fill 3" fill-rule="evenodd" clip-rule="evenodd" d="M-106.282 235.5C-66.068 209.611 -17.1446 224.379 8.88736 215.123C51.1954 200.08 45.4882 152.69 85.35 135.013C96.1764 100.832 126.661 83.7612 171.659 83.7612C242.273 83.7612 244.239 140.447 245.971 150C252.336 185.102 239.116 253.488 252.47 276.992C274.888 316.454 264.527 342.215 252.837 351.627C240.235 361.774 203.569 352.484 195.614 345.892C180.433 333.313 165.115 328.377 165.115 286.672C157.189 274.503 156.722 270.9 158.512 256.127C160.666 238.353 162.691 222.274 124.435 215.123C127.545 245.856 132.654 267.017 118.354 282.576C104.054 298.134 89.6971 298.134 72.0618 304C35.0071 316.324 22.5879 420.655 -90.4692 376.973C-151.085 354.33 -146.495 261.389 -106.282 235.5Z" fill="#E3E4E6"/><path id="Combined Shape" fill-rule="evenodd" clip-rule="evenodd" d="M232.575 234.655C240.592 218.766 243.748 193.622 234.766 156.81C232.702 148.348 231.768 140.973 230.975 134.711C228.319 113.731 227.245 105.249 190.535 110.271C163.009 114.037 120.164 131.23 112.624 161.39C112.624 161.39 112.49 163.053 112.357 165.813C101.569 153.837 85.3501 166.516 85.3501 176.745C85.3501 199.59 104.018 209.45 115.276 206.801C115.616 207.955 115.99 209.052 116.402 210.081C116.754 210.962 117.114 211.894 117.491 212.87C120.63 220.991 124.935 232.132 135.518 241.803C146.77 252.086 166.782 263.904 198.631 262.784C215.143 262.203 223.139 253.357 232.575 234.655Z" fill="#ca8f67"/><path id="Fill 8" fill-rule="evenodd" clip-rule="evenodd" d="M110.261 179.03C107.388 173.262 100.467 169.688 94.4889 173.724C93.1359 174.637 94.9599 175.262 95.5309 175.198C102.632 174.269 105.451 176.21 107.784 180.247C105.553 180.794 103.324 182.779 103.039 185.021C102.865 186.397 103.341 190.47 104.391 189.185C105.117 188.297 103.517 182.239 108.806 182.792C108.886 182.81 108.958 182.814 109.033 182.821C109.282 183.419 111.273 184.657 112.128 183.619C112.652 182.985 111.573 181.667 110.261 179.03" fill="#090E2B"/><path id="Fill 9" fill-rule="evenodd" clip-rule="evenodd" d="M184.511 83.8578C156.443 85.8888 116.345 115.898 109.891 137.898C108.798 141.625 109.8 161.009 112.187 165.389C115.364 171.22 115.016 184.517 124.482 186.059C141.169 188.776 124.021 163.956 126.553 157.471C136.096 133.018 166.369 148.55 184.511 143.014C209.354 135.434 218.556 130.045 219.194 129.08C222.416 141.456 239.796 165.149 245.815 169.768C247.773 171.269 245.135 144.379 238.852 122.622C235.05 109.456 211.194 81.9268 184.511 83.8578Z" fill="#E3E4E6"/><path id="Fill 11" fill-rule="evenodd" clip-rule="evenodd" d="M107.274 236.091C95.6422 236.091 86.1782 226.627 86.1782 214.995C86.1782 208.848 88.8402 202.929 93.5032 198.914C94.2692 199.697 95.1862 200.566 95.8692 201.149C91.8702 204.593 89.1782 209.722 89.1782 214.995C89.1782 224.973 97.2962 233.091 107.274 233.091C117.252 233.091 125.37 224.973 125.37 214.995C125.37 205.018 117.252 196.9 107.274 196.9C106.446 196.9 105.774 196.228 105.774 195.4C105.774 194.571 106.446 193.9 107.274 193.9C118.906 193.9 128.37 203.363 128.37 214.995C128.37 226.627 118.906 236.091 107.274 236.091" fill="white"/><path id="Fill 4" fill-rule="evenodd" clip-rule="evenodd" d="M151.936 254.628C147.843 252.187 139.507 247.655 137.848 245.046C136.983 243.686 140.059 245.478 141.65 246.678C143.768 248.275 152.519 252.985 163.318 258.066C164.255 258.506 170.267 261.033 170.416 261.371C170.556 261.688 169.953 262.236 169.242 262.142C164.462 261.505 156.448 257.319 151.936 254.628Z" fill="#090E2B"/></g></g><g id="Expressions" transform="translate(520 159) scale(1 1)"><g id="Expressions/Smile"><g id="eye1"><path id="Fill 1" fill-rule="evenodd" clip-rule="evenodd" d="M21.0758 18.1794C22.852 10.1965 46.2248 7.39836 56.5098 13.5794C60.0658 15.6924 66.6698 21.4974 60.8228 24.6574C59.2788 25.3294 57.7788 24.6404 56.5098 23.8214C42.4918 14.0794 19.8377 23.7442 21.0758 18.1794Z" fill="#090E2B"/><path id="Fill 6" fill-rule="evenodd" clip-rule="evenodd" d="M40.0382 32.611C34.7502 34.111 30.2172 38.361 29.7962 41.883C29.5412 44.011 37.8912 49.12 45.9442 49.517C56.5382 50.038 61.8782 44.299 61.8592 42.465C61.1462 36.915 54.7552 28.437 40.0382 32.611Z" fill="white"/><path id="Fill 8" fill-rule="evenodd" clip-rule="evenodd" d="M56.4251 35.7687C48.2821 29.6147 35.6701 33.6247 29.7961 41.8827C29.4591 42.3107 29.5561 41.2337 29.7901 40.7427C32.6241 34.7957 37.7371 31.9887 43.6651 30.7647C47.2321 30.0277 50.5581 29.9677 54.0371 31.5257C55.3821 32.1267 57.7581 33.9587 59.5941 36.0307C61.0261 37.6457 62.2321 40.4147 60.5751 39.4357C59.2781 38.6687 57.5051 36.5857 56.4251 35.7687Z" fill="#090E2B"/><path id="Fill 10" fill-rule="evenodd" clip-rule="evenodd" d="M45.8406 46.276C50.3676 46.276 54.0376 42.928 54.0376 38.797C54.0376 34.667 50.3676 31.318 45.8406 31.318C41.3136 31.318 37.6436 34.667 37.6436 38.797C37.6436 42.928 41.3136 46.276 45.8406 46.276Z" fill="#090E2B"/></g><g id="eye2"><path id="Fill 4" fill-rule="evenodd" clip-rule="evenodd" d="M104.459 16.8614C107.813 18.3492 112.278 23.2873 108.561 23.2873C104.844 23.2873 96.7936 22.2329 91.3966 24.4599C89.5116 24.9419 88.0811 25.8643 86.1881 26.0893C81.8801 26.9283 79.5395 21.7686 82.5855 18.6492C86.0265 15.1253 97.6434 13.4544 104.459 16.8614Z" fill="#090E2B"/><path id="Fill 12" fill-rule="evenodd" clip-rule="evenodd" d="M100.659 49.2345C106.03 47.9855 110.047 43.1155 109.593 39.4765C108.707 34.6545 99.422 31.5755 94.221 34.2085C89.07 36.8155 85.847 42.6405 86.263 44.9405C86.864 46.5325 95.17 50.5115 100.659 49.2345Z" fill="white"/><path id="Fill 14" fill-rule="evenodd" clip-rule="evenodd" d="M96.2146 46.6062C99.7526 46.6062 102.621 43.8522 102.621 40.4562C102.621 37.0592 100.6 33.8492 96.2146 34.3062C92.6956 34.6722 89.8076 37.0592 89.8076 40.4562C89.8076 43.8522 92.6766 46.6062 96.2146 46.6062Z" fill="#090E2B"/><path id="Fill 22" fill-rule="evenodd" clip-rule="evenodd" d="M86.4543 41.6378C88.4833 34.0638 97.6443 30.1688 104.889 33.7548C105.909 34.2868 107.565 35.4808 108.805 36.9228C109.946 38.2528 109.797 38.9498 109.331 38.8118C108.559 38.5818 106.926 37.1168 105.599 36.4868C98.8893 33.3038 91.9083 35.0898 86.7973 42.5588C86.5463 42.9458 86.3083 42.0748 86.4543 41.6378" fill="#090E2B"/></g><path id="nose" fill-rule="evenodd" clip-rule="evenodd" d="M86.9878 70.3387C86.013 75.2575 79.9688 75.736 76.0322 74.6213C72.8324 73.7153 72.0033 71.8513 73.0852 71.2538C74.8484 70.2799 80.4996 72.989 82.5857 70.4028C86.3055 65.7913 74.8913 48.8346 78.5176 51.5592C83.3101 55.16 87.6385 67.0559 86.9878 70.3387Z" fill="#090E2B"/><path id="Fill 18" fill-rule="evenodd" clip-rule="evenodd" d="M89.6386 90.5818C88.8706 91.1602 87.0676 93.5464 85.2445 95.0617C81.1443 98.4697 74.4744 99.2531 70.5442 98.4697C63.1557 96.9971 59.9594 92.1782 58.0065 90.8586C56.0537 89.539 59.7198 87.8443 62.5247 88.0931C65.3297 88.342 67.2122 89.1562 72.5652 91.4593C76.0197 92.9455 83.8309 90.8586 86.038 89.539C90.2482 87.0217 91.5111 89.1717 89.6386 90.5818Z" fill="#090E2B"/></g></g><g id="Facial Accesories" transform="translate(517 209) scale(120 110)"><g id="Facial Accesories/None" stroke="none" stroke-width="1" fill="none" fill-rule="evenodd" fill-opacity="0"/></g><g id="Glass" transform="translate(520 164) scale(120 75)"><g id="Glass/None" stroke="none" stroke-width="1" fill="none" fill-rule="evenodd" fill-opacity="0"/></g></g></g></g><defs><linearGradient id="paint0_linear_301_10848d5858dc0-0121-4545-b3d5-f2c53691a47a" x1="0.00195312" y1="886" x2="0.00195312" y2="2008.06" gradientUnits="userSpaceOnUse"><stop stop-color="#A7B3FE"/><stop offset="1" stop-color="white" stop-opacity="0.01"/></linearGradient></defs></svg>