<svg viewBox="-61.57575757575751 128.5625 2103.838383838384 1928.4375" fill="none" xmlns="http://www.w3.org/2000/svg" xmlns:xlink="http://www.w3.org/1999/xlink" overflow="visible" width="2103.838383838384px" height="1928.4375px"><g id="Master/Spot Ilustrations/UI Windows"><g id="Outdoor Plants" transform="translate(1183 1085) scale(1 1)"><g id="Outdoor Plants/Bush"><g id="Group 16 Copy"><path id="Fill 1" fill-rule="evenodd" clip-rule="evenodd" d="M100.395 964.969C102.956 964.611 105.816 965.245 108.376 964.886H656C655.749 944.057 643.866 913.873 625.677 903.68C607.501 893.499 583.903 893.822 566.014 904.469C574.079 861.735 579.919 817.087 568.156 775.202C556.417 733.318 522.971 694.759 479.773 689.59C439.267 684.757 399.934 710.204 376.612 743.666C353.29 777.128 342.831 817.637 332.815 857.165C333.952 838.466 324.678 819.48 309.254 808.856C293.817 798.232 272.769 796.366 255.705 804.094C236.655 812.72 223.982 831.814 218.107 851.889C212.244 871.976 212.256 893.224 212.315 914.136C200.11 886.476 164.821 871.581 136.497 882.133C108.161 892.697 91.516 936.077 100.395 964.969" fill="#F67A49"/><path id="Fill 4" fill-rule="evenodd" clip-rule="evenodd" d="M216.397 964.975C217.891 964.761 219.553 965.153 221.047 964.927H540C539.857 952.854 532.923 935.356 522.344 929.456C511.753 923.556 498.018 923.735 487.594 929.92C492.292 905.143 495.687 879.247 488.849 854.97C482 830.692 462.515 808.341 437.352 805.344C413.767 802.536 390.864 817.286 377.272 836.687C363.692 856.088 357.608 879.557 351.763 902.478C352.42 891.642 347.029 880.639 338.04 874.489C329.05 868.328 316.786 867.233 306.852 871.718C295.759 876.726 288.371 887.788 284.952 899.421C281.546 911.067 281.546 923.39 281.581 935.499C274.481 919.476 253.92 910.841 237.424 916.966C220.916 923.081 211.221 948.227 216.397 964.975" fill="#FFB201"/></g></g></g><g id="Chair" transform="translate(76.125 1255) scale(1 1)"><g id="Chair/Stool"><g id="Group"><path id="Combined Shape" fill-rule="evenodd" clip-rule="evenodd" d="M263 425.639H281L270.361 598.639H430.639L420 425.639H438L444.476 598.639H445V611.639H444.963L452 799.639H443L431.439 611.639H269.561L258 799.639H249L263 425.639Z" fill="#8E2420"/></g><path id="Rectangle" fill-rule="evenodd" clip-rule="evenodd" d="M216 420.465C216 410.995 223.306 403.159 232.762 402.634C257.309 401.269 305.348 399 353.332 399C398.553 399 443.722 401.219 467.282 402.588C476.712 403.135 484 410.96 484 420.406V430.639C484 440.581 475.941 448.639 466 448.639H234C224.059 448.639 216 440.581 216 430.639V420.465Z" fill="#FF0057"/></g></g><g id="Floor"><path id="Path 4 Copy" d="M0.625861 2055.25L1016.5 2055C1018.43 2055 1020 2053.43 1020 2051.5C1020 2049.63 1018.53 2048.1 1016.69 2048.01L1016.5 2048L0.624139 2048.25C-1.30886 2048.25 -2.87548 2049.82 -2.875 2051.75C-2.87454 2053.62 -1.40989 2055.15 0.433825 2055.24L0.625861 2055.25Z" fill="#090E2B"/><path id="Path 4 Copy 2" d="M2032.5 2056C2034.43 2056 2036 2054.43 2036 2052.5C2036 2050.63 2034.54 2049.1 2032.69 2049.01L2032.5 2049H1339.5C1337.57 2049 1336 2050.57 1336 2052.5C1336 2054.37 1337.46 2055.9 1339.31 2055.99L1339.5 2056H2032.5Z" fill="#090E2B"/></g><g id="UI Elements" transform="translate(282 117) scale(1 1)"><g id="UI Elements/UI Card 1"><g id="userinterface"><path id="Stroke 1 Copy" fill-rule="evenodd" clip-rule="evenodd" d="M1073.39 810.432H69.612C56.847 810.432 46.5 800.085 46.5 787.32V78.6155C46.5 65.8505 56.847 55.5005 69.612 55.5005H1073.39C1086.15 55.5005 1096.5 65.8505 1096.5 78.6155V787.32C1096.5 800.085 1086.15 810.432 1073.39 810.432Z" fill="#090E2B"/><path id="Stroke 1" fill-rule="evenodd" clip-rule="evenodd" d="M1030.89 774.932H27.112C14.347 774.932 4 764.585 4 751.82V43.115C4 30.35 14.347 20 27.112 20H1030.89C1043.65 20 1054 30.35 1054 43.115V751.82C1054 764.585 1043.65 774.932 1030.89 774.932Z" fill="white"/><path id="Stroke 1 Copy 2" fill-rule="evenodd" clip-rule="evenodd" d="M27.112 17H1030.89C1045.31 17 1057 28.6927 1057 43.115V751.82C1057 766.242 1045.31 777.932 1030.89 777.932H27.112C12.6901 777.932 1 766.242 1 751.82V43.115C1 28.6927 12.6906 17 27.112 17ZM1030.89 23H27.112C16.0045 23 7 32.0062 7 43.115V751.82C7 762.928 16.0039 771.932 27.112 771.932H1030.89C1041.99 771.932 1051 762.928 1051 751.82V43.115C1051 32.0062 1041.99 23 1030.89 23Z" fill="#090E2B"/><path id="Stroke 5" fill-rule="evenodd" clip-rule="evenodd" d="M618.178 389.062H198.784C161.623 389.062 131.5 358.939 131.5 321.778C131.5 284.623 161.623 254.5 198.784 254.5H618.178C655.336 254.5 685.459 284.623 685.459 321.778C685.459 358.939 655.336 389.062 618.178 389.062Z" fill="#FFB201"/><path id="Stroke 7" fill-rule="evenodd" clip-rule="evenodd" d="M855.382 387.211V387.211C818.224 387.211 788.098 357.088 788.098 319.927C788.098 282.772 818.224 252.649 855.382 252.649C892.54 252.649 922.663 282.772 922.663 319.927C922.663 357.088 892.54 387.211 855.382 387.211Z" fill="#C7D2F2"/><g id="cross"><path id="Stroke 9" d="M990.392 71.9474C992.15 70.1901 994.999 70.1901 996.756 71.9474C998.459 73.6499 998.512 76.377 996.916 78.1435L996.756 78.3114L954.756 120.311C952.999 122.069 950.15 122.069 948.392 120.311C946.69 118.609 946.637 115.882 948.233 114.115L948.392 113.947L990.392 71.9474Z" fill="black"/><path id="Stroke 11" d="M948.392 71.9474C950.095 70.245 952.822 70.1918 954.588 71.7878L954.756 71.9474L996.756 113.947C998.514 115.705 998.514 118.554 996.756 120.311C995.054 122.014 992.327 122.067 990.56 120.471L990.392 120.311L948.392 78.3114C946.635 76.554 946.635 73.7048 948.392 71.9474Z" fill="black"/></g><path id="Stroke 13" d="M728.248 474.5C738.189 474.5 746.248 482.559 746.248 492.5C746.248 502.331 738.367 510.321 728.579 510.498L728.248 510.5H149.5C139.559 510.5 131.5 502.442 131.5 492.5C131.5 482.67 139.381 474.68 149.169 474.503L149.5 474.5H728.248Z" fill="#C7D2F2"/><path id="Stroke 15" d="M480.052 581.5C489.993 581.5 498.052 589.559 498.052 599.5C498.052 609.331 490.171 617.321 480.383 617.498L480.052 617.5H149.5C139.559 617.5 131.5 609.442 131.5 599.5C131.5 589.67 139.381 581.68 149.169 581.503L149.5 581.5H480.052Z" fill="#C7D2F2"/></g></g></g><g id="UI Elements" transform="translate(833 623) scale(1 1)"><g id="UI Elements/Graph 1"><g id="Interfae Box 2"><rect id="Rectangle Copy 5" x="122" y="90" width="903" height="664" rx="64" fill="#090E2B"/><rect id="Rectangle Copy" x="77" y="57" width="903" height="664" rx="64" fill="white"/><path id="Rectangle Copy 2" fill-rule="evenodd" clip-rule="evenodd" d="M141 54H916C953.003 54 983 83.9969 983 121V657C983 694.003 953.003 724 916 724H141C103.997 724 74 694.003 74 657V121C74 83.9969 103.997 54 141 54ZM916 60H141C107.311 60 80 87.3106 80 121V657C80 690.689 107.311 718 141 718H916C949.689 718 977 690.689 977 657V121C977 87.3106 949.689 60 916 60Z" fill="#090E2B"/><path id="Path 9" d="M747.653 250.062C799.008 237.451 846.649 294.932 892.393 419.938C893.531 423.05 891.932 426.496 888.82 427.635C885.708 428.773 882.262 427.174 881.123 424.062C837.367 304.486 793.225 251.227 750.515 261.716C727.031 267.483 707.546 282.317 689.503 306.517L688.258 308.2C675.507 325.58 666.039 342.909 647.75 380.317L641.519 393.08C622.885 431.093 613.19 448.511 599.294 466.958C579.416 493.348 557.312 509.718 530.238 515.729C510.923 520.017 495.179 512.232 481.893 494.305L481.491 493.759C471.833 480.53 464.903 465.491 452.695 434.143L448.913 424.412C437.261 394.542 430.423 379.666 421.33 366.632C409.855 350.183 397.481 342.462 382.327 343.379C326.588 346.748 266.548 409.572 203.338 532.62C201.824 535.568 198.207 536.73 195.26 535.216C192.312 533.701 191.15 530.085 192.664 527.137C257.66 400.612 320.261 335.109 381.603 331.4C401.298 330.21 417.197 339.995 430.762 359.182L431.172 359.767C440.789 373.553 447.79 388.631 459.348 418.146L464.578 431.584C475.839 460.397 482.401 474.547 490.916 486.316L491.183 486.683C501.978 501.47 513.339 507.188 527.637 504.014C551.608 498.692 571.418 484.021 589.709 459.738L590.971 458.049C603.763 440.786 613.266 423.501 631.38 386.501L637.598 373.761C656.204 335.753 665.842 318.271 679.447 299.93L679.883 299.344C699.461 273.085 721.154 256.569 747.653 250.062Z" fill="#FFB201"/><path id="Path 9 Copy" d="M855.461 262.363C856.299 259.157 859.578 257.238 862.784 258.076C865.99 258.915 867.909 262.194 867.07 265.399C829.866 407.628 782.055 474.407 721.873 462.893C695.818 457.908 677.611 458.83 664.083 464.799C653.666 469.395 646.384 476.268 636.161 489.881L634.978 491.468L628.885 499.787C626.262 503.356 624.157 506.139 622 508.857C613.001 520.193 604.125 528.884 593.015 536.394C579.577 545.476 563.492 552.228 543.679 556.626C525.421 560.68 509.764 558.613 495.299 551.083C484.531 545.477 475.982 538.235 462.563 524.523L456.286 518.055C442.762 504.11 434.925 497.125 425.082 491.229C412.568 483.734 399.247 480.295 383.426 481.252C326.304 484.705 265.765 512.91 201.838 566.097C199.29 568.217 195.507 567.87 193.388 565.322C191.268 562.775 191.615 558.992 194.163 556.873C259.906 502.175 322.744 472.898 382.702 469.273C400.993 468.168 416.704 472.224 431.248 480.934L432.227 481.527C442.435 487.781 450.591 495.018 463.643 508.406L469.932 514.893L471.091 516.081C483.692 528.959 491.495 535.574 500.841 540.439C512.803 546.666 525.578 548.353 541.078 544.911C559.453 540.832 574.139 534.668 586.296 526.452C596.284 519.701 604.309 511.842 612.602 501.396L613.687 500.016C615.139 498.156 616.625 496.188 618.339 493.87L625.137 484.594L625.571 484.007C637.436 468.013 646.148 459.596 659.239 453.82C675.277 446.744 695.873 445.701 724.128 451.107C775.368 460.91 819.734 398.943 855.461 262.363Z" fill="#009BA0"/><circle id="Oval" cx="763.5" cy="254.5" r="25.5" fill="#FF0057"/><rect id="Rectangle" x="167" y="600" width="709" height="2" fill="#C7D2F2"/></g></g></g><g id="Master/Character/Sitting [colors]" transform="translate(-67 557) scale(1 1)"><g id="Master/Character/Sitting [colors]"><g id="Lower Body/Sitting" transform="translate(179 940) scale(1 1)"><g id="Lower Body/Sitting/On Chair 3"><path id="Fill 3" fill-rule="evenodd" clip-rule="evenodd" d="M410.615 399.5C410.615 399.5 400.358 471.95 396.172 502.906C391.95 534.126 467.049 503.737 467.049 503.737C467.049 503.737 453.51 484.443 453.305 479.158C453.101 473.871 476.219 412 476.219 412L410.615 399.5Z" fill="#ff8282"/><path id="Fill 5" fill-rule="evenodd" clip-rule="evenodd" d="M561.036 4.57764e-05C597.898 16.8478 635.154 59.3885 602.589 139.129C570.025 218.869 493.394 411.873 481.35 420.555C469.306 429.239 405.785 412 405.785 412C405.785 412 412.733 330.945 426.535 251.243C436.642 192.88 457.953 150.326 457.953 150.326C457.953 150.326 286.541 174.784 243.983 146.076C188.125 108.397 229.481 6.86059 261.586 -5.7106C302.859 -21.8713 490.855 -32.0758 561.036 4.57764e-05Z" fill="#F67A49"/><path id="Fill 17" fill-rule="evenodd" clip-rule="evenodd" d="M559.105 537.55C553.719 520.869 514.662 509.853 486.46 501.514C476.967 498.706 463.703 484.835 457.546 485.001C448.582 485.245 457.367 503.898 427.363 502.274C419.419 501.845 418.852 493.484 401.592 491.581C398.787 491.273 394.499 490.728 390.796 497.394C388.732 501.111 380.282 534.664 388.578 548.345C446.664 549.846 506.413 548.363 558.02 547.882C563.06 547.834 560.482 541.819 559.105 537.55" fill="#FF0057"/><path id="Fill 1" fill-rule="evenodd" clip-rule="evenodd" d="M654.971 412C654.971 412 665.531 466.51 672.596 475.378C679.663 484.243 716.329 494.221 717.975 499.698C719.619 505.175 639.821 518 639.821 518L591 416.698L654.971 412Z" fill="#ff8282"/><path id="Fill 10" fill-rule="evenodd" clip-rule="evenodd" d="M790.105 534.55C784.719 517.87 745.662 506.853 717.46 498.513C707.967 495.706 694.703 481.834 688.546 482.001C679.582 482.244 688.367 500.898 658.363 499.274C650.42 498.845 649.853 490.483 632.592 488.581C629.787 488.272 625.499 487.728 621.796 494.393C619.732 498.11 611.282 531.663 619.578 545.346C677.664 546.846 737.413 545.362 789.02 544.881C794.06 544.833 791.482 538.818 790.105 534.55" fill="#FF0057"/><path id="Fill 15" fill-rule="evenodd" clip-rule="evenodd" d="M722.705 510.43C726.392 503.004 728.005 501.713 726.433 500.544C722.673 497.748 703.571 506.385 702.07 511.523C700.945 515.374 713.664 504.229 723.821 502.566C719.659 506.366 715.779 518.02 719.874 515.696C739.827 504.382 742.974 507.006 742.999 506.586C743.117 504.585 735.566 502.967 722.705 510.43" fill="#FFB201"/><path id="Fill 7" fill-rule="evenodd" clip-rule="evenodd" d="M180.128 77C192.092 138.955 247.292 161.212 295.191 159.362C368.357 156.536 442.941 124.042 468.153 113.183C465.932 129.164 477.806 220.025 497.63 262.074C517.453 304.124 582.01 430.62 582.01 430.62C582.01 430.62 654.852 431.05 657.967 413.369C660.016 401.738 591.632 76.8495 569.01 20.5962C556.02 -11.7082 513.977 -25.6487 427.502 -33C340.648 -40.3834 214.032 -26.7716 214.032 -26.7716C214.032 -26.7716 168.163 15.0448 180.128 77Z" fill="#FFB201"/><path id="Fill 22" fill-rule="evenodd" clip-rule="evenodd" d="M491.705 514.43C495.392 507.005 497.005 505.714 495.432 504.544C491.672 501.749 472.571 510.385 471.07 515.522C469.945 519.373 482.664 508.228 492.821 506.566C488.659 510.367 484.778 522.019 488.874 519.697C508.827 508.381 511.974 511.006 511.999 510.585C512.117 508.585 504.566 506.966 491.705 514.43" fill="#FFB201"/><path id="Fill 19" fill-rule="evenodd" clip-rule="evenodd" d="M546.831 554.392L407.016 556.858C397.662 557.232 383.67 554.015 382.317 546.244C381.306 540.438 383.554 527.796 384.02 526.955C387.277 521.095 415.032 526.039 423.117 545.828C474.131 549.65 561.008 545.913 561.008 545.913C561.008 545.913 562.312 553.594 546.831 554.392" fill="#090E2B"/><path id="Fill 12" fill-rule="evenodd" clip-rule="evenodd" d="M777.721 550.785L637.906 553.251C628.553 553.625 614.56 550.409 613.207 542.638C612.197 536.832 614.444 524.19 614.911 523.349C618.167 517.489 645.922 522.433 654.007 542.222C705.021 546.044 791.899 542.307 791.899 542.307C791.899 542.307 793.202 549.988 777.721 550.785" fill="#090E2B"/></g></g><g id="Upper Body/Sitting" transform="translate(243 170) scale(1 1.0010526315789474)"><g id="Upper Body/Sitting/Pointing Up 2"><path id="hand-2" fill-rule="evenodd" clip-rule="evenodd" d="M639.548 295.147C639.548 295.147 642.042 289.628 644.163 285.845C646.962 280.851 644.724 275.058 639.174 282.689C637.676 284.748 608.594 317.062 601.508 323.039C548.121 368.065 484.123 420.149 469.213 427.209C448.353 437.087 412.6 442.544 394.461 458.65C385.654 466.47 419.532 531 419.532 531C419.532 531 475.134 505.65 492.887 494.532C514.978 480.696 580.932 398.879 619.232 346.718C627.746 335.125 643.73 333.304 649.416 316.858C652.916 306.736 639.548 295.147 639.548 295.147" fill="#ff8282"/><path id="Fill 4" fill-rule="evenodd" clip-rule="evenodd" d="M264.228 422.572C264.228 422.572 261.118 445.79 263.586 450.399C264.79 452.646 273.085 460.676 304.524 465.018C308.024 468.712 291.294 505.802 284.765 511.96C278.236 518.119 257.274 521.403 217.404 489.792C177.535 458.179 183.289 458.589 183.289 458.589C183.289 458.589 205.631 458.105 210.828 449.968C212.65 447.115 214.668 403.542 210.255 390.393C205.841 377.244 264.228 422.572 264.228 422.572" fill="#ff8282"/><path id="hand-1" fill-rule="evenodd" clip-rule="evenodd" d="M89.1032 526C89.1032 526 9.263 603.825 -10.6263 623.706C-25.7696 638.843 -103.582 713.378 -152.078 757.759C-167.279 771.67 -189.372 778.909 -204.581 787.224C-211.569 791.044 -236.882 804.41 -234.889 808.95C-233.164 812.876 -202.181 808.371 -193.637 811.805C-201.701 819.66 -200.134 827.055 -186.277 822.711C-167.135 816.711 -158.406 798.747 -142.957 788.056C-124.132 775.03 12.4159 704.398 48.7103 668.95C75.3347 642.944 139 607.235 139 607.235L89.1032 526Z" fill="#ff8282"/><path id="Fill 8" fill-rule="evenodd" clip-rule="evenodd" d="M113.669 630.645C129.144 618.191 159.333 596.981 159.333 596.981C159.333 596.981 96.5414 773.559 109.501 794.107C113.02 799.686 143.515 777.579 188.286 770.699C261.871 759.391 345.02 752.571 337.075 729.397C314.438 663.372 334.967 570.036 334.967 570.036L423.34 539.028C433.526 520.057 444.015 441.644 430.789 437.045C427.297 435.83 329.952 459.76 329.952 459.76C329.952 459.76 291.077 457.136 288.683 458.426C286.29 459.715 280.714 494.976 272.903 496.614C251.084 501.192 183.708 455.107 183.708 455.107C183.708 455.107 150.636 460.394 132.66 475.923C120.337 486.569 35 571.113 35 571.113C35 571.113 98.1929 643.099 113.669 630.645Z" fill="#3615F6"/><path id="Fill 10" fill-rule="evenodd" clip-rule="evenodd" d="M159 597.771C160.753 594.263 173.792 582.04 181.778 575.391C188.399 569.876 191.547 568.195 181.901 578.491C178.416 581.637 161.538 600.263 159 597.771" fill="black"/><path id="Fill 12" fill-rule="evenodd" clip-rule="evenodd" d="M336.789 541.008C337.066 541.936 337.433 559.97 335.256 569.235C335.076 570 334.971 570.899 334.74 570.988C333.398 571.504 334.177 555.771 334.774 548.022C335.511 538.451 336.32 539.437 336.789 541.008" fill="black"/></g></g><g id="Head" transform="translate(341 346) scale(1 1)"><g id="Head/Afro"><path id="Fill 1" fill-rule="evenodd" clip-rule="evenodd" d="M231.631 151.302C236.454 169.036 245.811 200.717 229.26 232.604C218.079 254.145 198.87 266.808 180.781 266.808C172.028 266.808 143.639 257.641 128.915 246.571C111.319 233.343 100.912 219.183 100.883 185.567C100.852 150.376 106.194 130.015 125.505 112.356C149.713 90.2149 222.693 88.2139 228.747 116.044C228.747 116.044 226.807 133.567 231.631 151.302Z" fill="#ff8282"/><path id="Fill 3" fill-rule="evenodd" clip-rule="evenodd" d="M186.161 279.801C198.329 282.114 206.146 278.403 210.782 275.451C216.032 283.751 242.855 283.107 247.362 258.387C265.508 256.621 289.337 245.943 281.132 217.989C295.674 218.877 295.994 198.911 290.118 187.542C308.545 181.778 310.889 155.009 298.105 142.315C308.482 138.445 315.17 119.439 298.105 93.744C307.202 73.4891 298.105 59.3433 287.48 60.108C288.765 53.7857 292.102 48.3571 273.848 46.3906C276.552 29.3545 269.743 7.14466 240.183 11.9627C236.802 -7.69516 218.672 -16.6721 205.715 -6.12308C194.897 -24.4705 161.996 -24.1371 153.945 -3.70874C135.25 -22.8568 104.941 -4.71867 97.504 12.9736C86.595 -1.53283 61.151 -2.25877 46.231 30.9576C14.374 29.0017 -4.86402 42.2238 2.07198 67.1C-15.345 69.7654 -33.78 91.4247 -15.698 120.429C-25.49 121.927 -32.781 150.208 -15.945 153.459C-26.103 160.901 -24.487 192.889 3.23098 194.199C-11.02 199.998 -11.642 228.928 8.63998 233.515C3.69498 259.129 27.256 267.23 41.767 259.07C43.772 281.317 79.0095 284.841 89.4595 270.391C106.654 276.448 118.476 269.41 121.079 263.008C129.209 243.013 118.389 236.64 118.389 236.64C125.759 226.622 115.472 207.799 104.383 202.76C94.418 198.231 100.827 178.347 104.383 167.201C115.557 171.092 117.293 186.285 121.079 175.379C124.865 164.473 123.263 157.148 123.263 157.148C131.647 146.804 148.182 151.293 147.473 130.634C155.278 136.169 167.271 133.586 169.194 124.517C180.491 138.344 195.355 133.394 198.329 126.255C200.917 134.937 213.453 138.33 226.951 133.001C225.378 143.659 229.26 153.74 235.071 176.987C237.247 185.691 243.856 217.989 219.038 248.091C205.341 264.704 186.024 270.901 160.959 262.426C160.959 262.426 164.312 275.643 186.161 279.801Z" fill="#090E2B"/><path id="Fill 6" fill-rule="evenodd" clip-rule="evenodd" d="M116.453 175.435C115.033 169.439 102.363 156.787 90.0578 163.719C82.3908 168.038 78.9725 177.246 83.2976 187.751C87.6228 198.256 104.109 208.331 113.653 202.277C123.196 196.223 117.873 181.431 116.453 175.435Z" fill="#ff8282"/><path id="Fill 8" fill-rule="evenodd" clip-rule="evenodd" d="M130.844 247.755C140.999 254.044 151.196 257.895 161.161 261.424C162.281 261.82 161.214 262.52 160.041 262.447C149.714 261.814 137.573 254.173 135.002 252.412C129.728 248.802 127.379 245.609 130.844 247.755" fill="#090E2B"/><path id="Fill 10" fill-rule="evenodd" clip-rule="evenodd" d="M100.806 172.72C98.8804 171.458 97.3341 170.607 96.2395 170.413C94.0441 170.023 96.9868 171.504 99.636 174.152C101.212 175.725 102.834 177.806 104.068 179.845C101.504 181.226 98.2436 185.324 99.6563 190.765C100.551 191.549 100.424 188.759 101.23 186.975C102.644 183.847 104.488 183.309 105.685 182.843C106.607 184.613 107.437 186.729 108.114 189.383C108.252 189.928 109.47 191.17 109.746 189.031C109.738 182.921 106.024 176.143 100.806 172.72Z" fill="#090E2B"/></g></g><g id="Expressions" transform="translate(462 479) scale(1 1)"><g id="Expressions/Relaxed"><path id="Fill 1" fill-rule="evenodd" clip-rule="evenodd" d="M93.917 85.9778C78.288 85.3498 67.34 84.9098 56.819 84.4878C53.549 84.3558 50.673 90.0738 56.294 97.5688C64.259 108.189 84.891 111.876 93.281 99.0538C97.555 92.5238 97.31 86.1148 93.917 85.9778" fill="white"/><path id="nose" fill-rule="evenodd" clip-rule="evenodd" d="M82.7871 55.7084C86.8281 59.4834 96.9611 74.6464 87.8281 76.8394C85.9421 77.2914 77.3211 77.5114 78.5921 75.6374C79.6051 74.1434 85.9771 75.0244 86.8981 72.1854C88.1081 68.4554 83.7121 61.1524 80.9721 56.1434C80.5011 55.2804 82.1521 54.9674 82.7871 55.7084" fill="#090E2B"/><path id="eye" fill-rule="evenodd" clip-rule="evenodd" d="M101.14 49.4726C102.716 48.4496 104.002 46.9449 104.812 43.8791C105.442 41.4928 104.117 41.182 103.446 41.8768C103.179 42.1534 102.89 42.5185 102.567 42.9254C101.4 44.4003 99.7974 46.4242 97.2379 46.7697C95.5386 47 93.0129 46.5252 90.427 44.7174C88.7963 43.5795 87.3545 43.558 88.271 45.8261C89.496 48.8593 96.5465 52.4533 101.14 49.4726ZM45.7528 54.7979C53.7067 59.04 63.5732 54.6834 63.3552 47.0155C63.2851 44.5515 61.754 44.5133 60.8831 46.19C58.6542 50.4862 51.8747 54.579 43.8676 49.2316C43.8604 49.2268 43.853 49.2219 43.8454 49.2169C43.2217 48.8006 41.4469 47.6162 40.7587 48.3637C39.6704 49.5454 41.6555 52.6145 45.7528 54.7979Z" fill="#090E2B"/><path id="eybrow" fill-rule="evenodd" clip-rule="evenodd" d="M106.892 19.0603C97.9002 11.4322 82.9075 17.8364 81.4786 26.4153C80.9228 29.7588 84.7289 30.4299 86.5262 28.5224C93.1586 21.4848 101.912 23.1875 105.337 23.8539C106.047 23.9919 106.528 24.0854 106.714 24.0478C109.751 23.4369 108.668 20.5673 106.892 19.0603ZM27.9799 30.9433C38.6859 22.6052 49.269 24.8492 60.7363 31.6406C64.9372 32.9563 65.9182 27.4971 62.7947 24.082C55.9812 16.6332 41.7869 15.2534 31.6092 20.0844C28.5028 21.5578 24.6711 25.6739 23.7097 27.9688C22.3602 31.1906 24.1328 33.9401 27.9799 30.9433Z" fill="#090E2B"/></g></g><g id="Facial Accesories" transform="translate(459 529) scale(120 110)"><g id="Facial Accesories/None" stroke="none" stroke-width="1" fill="none" fill-rule="evenodd" fill-opacity="0"/></g><g id="Glass" transform="translate(462 484) scale(120 75)"><g id="Glass/None" stroke="none" stroke-width="1" fill="none" fill-rule="evenodd" fill-opacity="0"/></g></g></g></g></svg>