<svg viewBox="-10.262626262626327 257.1249999999998 2129.494949494949 1825.5874999999999" fill="none" xmlns="http://www.w3.org/2000/svg" xmlns:xlink="http://www.w3.org/1999/xlink" overflow="visible" width="2129.494949494949px" height="1825.5874999999999px"><g id="Master/Spot Ilustrations/In The Park"><path id="Fill 1" opacity="0.5" fill-rule="evenodd" clip-rule="evenodd" d="M1876.98 1739.27C1876.98 1739.27 1910.88 1616.41 1843.09 1612.18C1775.3 1607.94 1762.59 1671.49 1762.59 1671.49C1762.59 1671.49 1923.59 1383.41 1762.59 1294.45C1601.59 1205.48 1543.24 1485.66 1543.24 1485.66C1543.24 1485.66 1499.9 1370.71 1470.24 1391.89C1440.59 1413.07 1470.24 1654.54 1470.24 1654.54C1470.24 1654.54 1292.3 1408.83 1216.03 1425.78C1139.77 1442.72 1190.61 1802.82 1190.61 1802.82C1190.61 1802.82 1114.35 1620.65 1088.93 1709.62L1063.51 1798.58C1063.51 1798.58 1019.57 1591.98 956.802 1591.49C894.033 1591 779.638 1705.38 779.638 1705.38C779.638 1705.38 817.77 1319.87 580.509 1319.87C343.243 1319.87 394.086 1620.65 394.086 1620.65C394.086 1620.65 351.717 1510.51 283.926 1510.51C216.137 1510.51 241.559 1688.43 241.559 1688.43C241.559 1688.43 118.692 1569.81 89.0334 1633.36C59.3749 1696.9 127.164 1807.05 127.164 1807.05C127.164 1807.05 25.4817 1709.62 8.53179 1756.22C-8.41593 1802.82 -0.000533104 2057.5 -0.000533104 2057.5L2029.51 2057C2029.51 2057 2048.25 1751.67 1982.9 1684.2C1962.14 1662.76 1902.4 1671.49 1876.98 1739.27Z" fill="#DADFFF"/><path id="Fill 1_2" opacity="0.5" fill-rule="evenodd" clip-rule="evenodd" d="M1952.83 1932.28C1918.36 1940.9 1918.36 1975.37 1918.36 1975.37C1918.36 1975.37 1892.51 1949.51 1870.96 1949.51C1849.42 1949.51 1827.87 1992.6 1827.87 1992.6C1827.87 1992.6 1846.07 1929.35 1793.41 1927.97C1740.74 1926.59 1746.01 1983.99 1746.01 1983.99C1746.01 1983.99 1724.47 1971.06 1690 1971.06C1655.53 1971.06 1664.15 2027.07 1664.15 2027.07C1664.15 2027.07 1652.24 1974.52 1621.06 1971.06C1606.3 1969.42 1595.44 1971.53 1587.54 1976.02C1586.39 1975.74 1585.18 1975.51 1583.87 1975.37C1545.09 1971.06 1532.17 2001.22 1532.17 2001.22C1532.17 2001.22 1549.4 1919.35 1484.77 1919.35C1425.35 1919.35 1429.44 1967.53 1430.48 1975.31C1428.79 1964.26 1413.51 1871.96 1377.06 1871.96C1338.28 1871.96 1301.15 1930.92 1301.15 1930.92C1301.15 1930.92 1321.05 1863.34 1247.8 1863.34C1174.55 1863.34 1148.37 1961.9 1148.37 1961.9C1148.37 1961.9 1157.32 1919.35 1109.93 1923.66C1062.53 1927.97 1049.6 1996.91 1049.6 1996.91C1049.6 1996.91 963.326 1924.21 933.217 1939.02L903.112 1953.82C903.112 1953.82 868.641 1889.19 812.63 1889.19C756.62 1889.19 752.308 1966.75 752.308 1966.75C752.308 1966.75 748 1910.74 713.533 1910.74C679.064 1910.74 648.904 1945.21 648.904 1945.21C648.904 1945.21 657.52 1910.74 614.434 1902.12C571.348 1893.5 567.04 1923.66 567.04 1923.66C567.04 1923.66 549.805 1876.26 502.411 1889.19C455.017 1902.12 474.953 1973.33 474.953 1973.33C474.953 1973.33 446.398 1923.66 411.931 1932.28C377.459 1940.9 377.459 1975.37 377.459 1975.37C377.459 1975.37 351.611 1949.51 330.065 1949.51C308.525 1949.51 286.979 1992.6 286.979 1992.6C286.979 1992.6 305.177 1929.35 252.512 1927.97C199.846 1926.59 205.118 1983.99 205.118 1983.99C205.118 1983.99 183.573 1971.06 149.105 1971.06C114.636 1971.06 123.255 2027.07 123.255 2027.07C123.255 2027.07 111.342 1974.52 80.1686 1971.06C2.61267 1962.44 32.7727 2057.24 32.7727 2057.24H1606.7C1607.82 2062.91 2020.61 2057.24 2020.61 2057.24C2042.62 2062.91 1987.29 1923.66 1952.83 1932.28Z" fill="#BDC5FE"/><g id="Outdoor Plants" transform="translate(159 1092) scale(1 1)"><g id="Outdoor Plants/Trees"><g id="Group"><path id="Fill 1" fill-rule="evenodd" clip-rule="evenodd" d="M296.328 734.554C252.725 675.694 316.996 661.47 287.177 606.041C251.046 538.878 302.889 552.365 280.559 484.778C262.89 431.298 232.034 428.995 229.287 352.771C226.543 276.546 89.2583 272.252 118.925 378.777C148.596 485.302 72.2673 459.072 85.6974 536.467C103.649 639.915 31.6143 598.48 54.5598 678.098C74.0793 745.828 -9.15521 859.363 188.705 886C364.798 876.999 339.935 793.418 296.328 734.554Z" fill="#009BA0"/><path id="Stroke 5 (Stroke)" fill-rule="evenodd" clip-rule="evenodd" d="M148.557 612.111C151.011 611.561 153.446 613.104 153.997 615.557L149.554 616.554C153.997 615.557 153.997 615.556 153.996 615.554L153.996 615.552L153.995 615.549C153.995 615.549 153.995 615.55 153.996 615.553L154.006 615.595C154.016 615.639 154.034 615.712 154.06 615.816C154.112 616.023 154.197 616.348 154.319 616.783C154.563 617.654 154.957 618.967 155.539 620.661C156.704 624.05 158.621 628.961 161.602 634.914C167.562 646.817 177.772 662.883 194.72 679.282C196.528 681.031 196.575 683.913 194.826 685.72C193.078 687.528 190.195 687.575 188.388 685.826C170.607 668.621 159.816 651.687 153.459 638.991C150.281 632.644 148.211 627.357 146.927 623.621C146.285 621.753 145.839 620.272 145.55 619.24C145.406 618.725 145.3 618.321 145.229 618.037C145.193 617.895 145.166 617.783 145.146 617.701C145.137 617.661 145.129 617.628 145.123 617.603L145.116 617.571L145.113 617.56L145.112 617.555C145.112 617.553 145.111 617.551 149.554 616.554L145.111 617.551C144.561 615.098 146.104 612.662 148.557 612.111Z" fill="#090E2B"/><path id="Stroke 7 (Stroke)" fill-rule="evenodd" clip-rule="evenodd" d="M115.858 740.329C118.186 739.395 120.829 740.519 121.773 742.84L121.783 742.865C121.797 742.898 121.824 742.961 121.866 743.053C121.949 743.237 122.089 743.538 122.295 743.949C122.707 744.771 123.382 746.031 124.39 747.671C126.406 750.95 129.757 755.753 134.998 761.603C145.476 773.299 163.553 789.231 193.721 805.55C195.933 806.746 196.756 809.509 195.559 811.721C194.363 813.933 191.6 814.756 189.388 813.559C158.363 796.777 139.44 780.209 128.216 767.68C122.606 761.418 118.93 756.177 116.633 752.441C115.485 750.573 114.681 749.083 114.154 748.03C113.89 747.504 113.695 747.088 113.561 746.789C113.494 746.639 113.441 746.519 113.403 746.429C113.384 746.384 113.368 746.347 113.356 746.317L113.34 746.278L113.334 746.263L113.331 746.257C113.33 746.254 113.329 746.251 117.554 744.554L113.329 746.251C112.392 743.917 113.524 741.266 115.858 740.329Z" fill="#090E2B"/><path id="Stroke 9 (Stroke)" fill-rule="evenodd" clip-rule="evenodd" d="M254.261 664.056C256.745 664.446 258.442 666.777 258.052 669.261L253.554 668.554C258.052 669.261 258.051 669.263 258.051 669.265L258.048 669.286L258.041 669.331C258.035 669.366 258.027 669.414 258.016 669.474C257.996 669.594 257.966 669.762 257.926 669.976C257.845 670.405 257.723 671.018 257.55 671.8C257.204 673.365 256.653 675.606 255.823 678.396C254.162 683.974 251.38 691.758 246.866 700.717C237.835 718.645 221.866 741.286 194.129 760.309C192.055 761.731 189.221 761.203 187.799 759.129C186.376 757.055 186.905 754.221 188.978 752.799C215.231 734.794 230.263 713.435 238.734 696.62C242.972 688.207 245.566 680.934 247.094 675.798C247.859 673.231 248.356 671.2 248.658 669.833C248.81 669.149 248.912 668.631 248.976 668.295C249.007 668.126 249.029 668.004 249.042 667.929C249.048 667.891 249.053 667.865 249.055 667.851L249.056 667.847C249.056 667.846 249.056 667.845 249.056 667.844C249.056 667.843 249.056 667.842 249.057 667.841C249.057 667.841 249.056 667.842 249.057 667.841C249.45 665.361 251.779 663.666 254.261 664.056Z" fill="#090E2B"/><path id="Fill 11" fill-rule="evenodd" clip-rule="evenodd" d="M658.603 500.48C620.591 406.998 676.937 341.014 599.628 163.94C522.318 -13.1342 417.027 -13.759 401.056 134.785C385.09 283.329 260.937 377.641 318.195 511.721C374.468 643.494 257.89 674.352 295.711 772.062C343.787 896.263 502.913 901 502.913 901C676.2 901 704.358 843.787 717.883 794.077C753.355 663.7 675.009 540.826 658.603 500.48Z" fill="#FFB201"/><path id="Stroke 15 (Stroke)" fill-rule="evenodd" clip-rule="evenodd" d="M590.434 341.087C592.901 341.573 594.507 343.967 594.021 346.434L589.553 345.554C594.021 346.434 594.02 346.436 594.02 346.438L594.019 346.444L594.016 346.46L594.005 346.511C593.997 346.554 593.984 346.614 593.968 346.691C593.936 346.845 593.889 347.066 593.826 347.353C593.699 347.927 593.507 348.763 593.241 349.844C592.709 352.006 591.88 355.151 590.675 359.143C588.267 367.126 584.359 378.503 578.339 392.199C566.299 419.588 545.799 456.273 511.926 493.613C510.236 495.476 507.357 495.616 505.494 493.927C503.632 492.237 503.491 489.357 505.181 487.495C538.286 451.001 558.286 415.186 570.002 388.534C575.859 375.209 579.643 364.18 581.957 356.512C583.113 352.679 583.902 349.686 584.399 347.668C584.647 346.66 584.822 345.895 584.933 345.39C584.989 345.138 585.029 344.95 585.054 344.83C585.066 344.77 585.075 344.727 585.08 344.701L585.086 344.675L585.086 344.674C585.086 344.673 585.086 344.672 585.086 344.672M590.434 341.087C587.967 340.601 585.574 342.206 585.086 344.672Z" fill="#090E2B"/><path id="Stroke 17 (Stroke)" fill-rule="evenodd" clip-rule="evenodd" d="M615.7 638.148C618.134 638.781 619.593 641.267 618.96 643.701L614.553 642.554C618.96 643.701 618.959 643.703 618.959 643.706L618.957 643.712L618.952 643.73L618.938 643.784C618.926 643.829 618.909 643.892 618.887 643.971C618.844 644.129 618.78 644.355 618.695 644.646C618.525 645.229 618.269 646.074 617.915 647.164C617.207 649.344 616.104 652.505 614.507 656.514C611.312 664.53 606.137 675.936 598.171 689.654C582.237 717.095 555.152 753.766 510.471 791.05C508.54 792.662 505.669 792.402 504.057 790.472C502.446 788.541 502.705 785.669 504.636 784.058C548.435 747.511 574.851 711.681 590.296 685.081C598.021 671.778 603.005 660.777 606.048 653.142C607.569 649.325 608.604 646.35 609.254 644.349C609.579 643.349 609.808 642.593 609.953 642.097C610.025 641.849 610.076 641.666 610.108 641.551C610.124 641.493 610.135 641.452 610.141 641.428L610.147 641.408L610.148 641.405L610.148 641.405C610.782 638.973 613.267 637.515 615.7 638.148Z" fill="#090E2B"/><path id="Stroke 19 (Stroke)" fill-rule="evenodd" clip-rule="evenodd" d="M424.065 495.938C424.065 495.939 424.065 495.94 424.066 495.94L424.066 495.942L424.07 495.973C424.075 496.005 424.082 496.056 424.093 496.127C424.114 496.27 424.148 496.491 424.196 496.788C424.293 497.382 424.447 498.279 424.671 499.452C425.121 501.798 425.852 505.248 426.971 509.593C429.209 518.285 432.995 530.543 439.165 544.7C451.508 573.019 473.354 608.846 511.382 638.985C513.353 640.547 513.684 643.411 512.122 645.382C510.56 647.353 507.696 647.684 505.726 646.122C466.252 614.836 443.598 577.663 430.817 548.338C424.425 533.673 420.491 520.948 418.152 511.864C416.982 507.32 416.21 503.683 415.727 501.164C415.486 499.905 415.317 498.924 415.208 498.249C415.153 497.912 415.113 497.651 415.086 497.469C415.072 497.379 415.062 497.308 415.055 497.257L415.046 497.197L415.044 497.178L415.043 497.172C415.042 497.169 415.042 497.167 419.554 496.554L415.042 497.167C414.703 494.675 416.449 492.381 418.94 492.042C421.431 491.703 423.725 493.447 424.065 495.937L424.065 495.938Z" fill="#090E2B"/><path id="Stroke 3 (Stroke)" fill-rule="evenodd" clip-rule="evenodd" d="M188.553 538C191.068 538 193.107 540.039 193.107 542.553V969.553C193.107 972.068 191.068 974.107 188.553 974.107C186.039 974.107 184 972.068 184 969.553V542.553C184 540.039 186.039 538 188.553 538Z" fill="#090E2B"/><path id="Stroke 13 (Stroke)" fill-rule="evenodd" clip-rule="evenodd" d="M505.553 253C508.068 253 510.107 255.039 510.107 257.553V963.553C510.107 966.068 508.068 968.107 505.553 968.107C503.039 968.107 501 966.068 501 963.553V257.553C501 255.039 503.039 253 505.553 253Z" fill="#090E2B"/></g></g></g><g id="Outdoor Plants" transform="translate(345 1092) scale(1 1)"><g id="Outdoor Plants/Bush"><g id="Group 16 Copy"><path id="Fill 1" fill-rule="evenodd" clip-rule="evenodd" d="M100.395 964.969C102.956 964.611 105.816 965.245 108.376 964.886H656C655.749 944.057 643.866 913.873 625.677 903.68C607.501 893.499 583.903 893.822 566.014 904.469C574.079 861.735 579.919 817.087 568.156 775.202C556.417 733.318 522.971 694.759 479.773 689.59C439.267 684.757 399.934 710.204 376.612 743.666C353.29 777.128 342.831 817.637 332.815 857.165C333.952 838.466 324.678 819.48 309.254 808.856C293.817 798.232 272.769 796.366 255.705 804.094C236.655 812.72 223.982 831.814 218.107 851.889C212.244 871.976 212.256 893.224 212.315 914.136C200.11 886.476 164.821 871.581 136.497 882.133C108.161 892.697 91.516 936.077 100.395 964.969" fill="#F67A49"/><path id="Fill 4" fill-rule="evenodd" clip-rule="evenodd" d="M216.397 964.975C217.891 964.761 219.553 965.153 221.047 964.927H540C539.857 952.854 532.923 935.356 522.344 929.456C511.753 923.556 498.018 923.735 487.594 929.92C492.292 905.143 495.687 879.247 488.849 854.97C482 830.692 462.515 808.341 437.352 805.344C413.767 802.536 390.864 817.286 377.272 836.687C363.692 856.088 357.608 879.557 351.763 902.478C352.42 891.642 347.029 880.639 338.04 874.489C329.05 868.328 316.786 867.233 306.852 871.718C295.759 876.726 288.371 887.788 284.952 899.421C281.546 911.067 281.546 923.39 281.581 935.499C274.481 919.476 253.92 910.841 237.424 916.966C220.916 923.081 211.221 948.227 216.397 964.975" fill="#FFB201"/></g></g></g><g id="Flying Objects" opacity="0.5" transform="translate(159 39) scale(1 1)"><g id="Flying Objects/Cloud 1"><path id="cloud" fill-rule="evenodd" clip-rule="evenodd" d="M171.044 473.895C161.387 459.137 151.9 436.733 163.002 423.548C169.563 415.755 180.669 416.373 188.629 421.934C196.591 427.495 202.142 436.87 207.441 445.961C198.936 424.955 190.257 403.137 189.653 379.753C189.05 356.369 198.845 330.873 217.134 323.328C236.095 315.504 256.284 328.774 272.648 342.761C307.585 372.621 339.188 408.19 366.334 448.196C364.619 435.639 362.903 422.76 364.903 410.263C366.902 397.765 373.426 385.527 383.427 381.605C393.344 377.714 404.064 382.624 413.373 388.304C445.411 407.843 473.144 437.617 493 473.793C490.055 473.793 494.421 478.67 491.476 478.67L171.044 473.895Z" fill="#F0F1FF"/></g></g><g id="Flying Objects" opacity="0.5" transform="translate(1277 -42) scale(1 1)"><g id="Flying Objects/Cloud 1"><path id="cloud" fill-rule="evenodd" clip-rule="evenodd" d="M171.044 473.895C161.387 459.137 151.9 436.733 163.002 423.548C169.563 415.755 180.669 416.373 188.629 421.934C196.591 427.495 202.142 436.87 207.441 445.961C198.936 424.955 190.257 403.137 189.653 379.753C189.05 356.369 198.845 330.873 217.134 323.328C236.095 315.504 256.284 328.774 272.648 342.761C307.585 372.621 339.188 408.19 366.334 448.196C364.619 435.639 362.903 422.76 364.903 410.263C366.902 397.765 373.426 385.527 383.427 381.605C393.344 377.714 404.064 382.624 413.373 388.304C445.411 407.843 473.144 437.617 493 473.793C490.055 473.793 494.421 478.67 491.476 478.67L171.044 473.895Z" fill="#F0F1FF"/></g></g><path id="Floor" d="M2028.44 2053.5C2030.37 2053.5 2031.94 2055.07 2031.94 2057C2031.94 2058.87 2030.47 2060.4 2028.63 2060.49L2028.44 2060.5H985.5C983.567 2060.5 982 2058.93 982 2057C982 2055.13 983.464 2053.6 985.308 2053.51L985.5 2053.5H2028.44Z" fill="#090E2B"/><g id="Master/Character/Standing [colors]" transform="matrix(-1 0 0 1 2032 561) scale(1 1)"><g id="Master/Character/Standing [colors]"><g id="Lower Body/Standing" transform="translate(-64 629) scale(1 1)"><g id="Lower Body/Standing/Skirt 1"><g id="Group"><path id="leg-2" fill-rule="evenodd" clip-rule="evenodd" d="M517 224.87C517 224.87 550.918 340.17 544.314 386.113C537.525 433.336 530.635 485.839 531.892 534.993C533.017 579.041 543.741 677.538 535.657 755.763C534.72 764.832 531.151 784.893 529.663 793.302C521.551 818.371 566.085 847.894 598.162 860.064C617.406 867.366 632.443 851.657 632.443 851.657C632.443 851.657 581.159 799.25 582.635 781.197C586.225 737.266 641.735 506.514 657.026 422.211C663.361 387.276 685 215.318 685 215.318C685 215.318 573.544 173.39 551.687 175.048C534.078 176.383 517 224.87 517 224.87" fill="#ca8f67"/><path id="shoe-2" fill-rule="evenodd" clip-rule="evenodd" d="M626.293 845.442C626.293 845.442 629.974 852.688 618.518 852.985C610.35 853.198 596.407 852.919 586.838 846.132C577.268 839.343 528.945 798.54 528.945 793.625C528.945 790.663 524.699 798.869 522.946 804.939C515.089 832.139 533.546 864.68 533.78 871H549.649C549.649 871 553.273 846.779 554.207 844.672C555.141 842.566 583.576 871 599.023 871H654.312C662.155 871 652.84 857.346 626.293 845.442" fill="#090E2B"/><path id="leg-1" fill-rule="evenodd" clip-rule="evenodd" d="M484 211.538C490.264 284.894 516.6 348.947 514.095 395.269C511.509 443.147 493.388 481.521 495.004 558.34C496.164 613.479 513.689 733.445 505.691 774.225C503.936 783.168 494.492 785.424 492.847 798.256C489.5 824.384 530.887 847.902 563.032 860.065C582.32 867.363 597.389 851.664 597.389 851.664C597.389 851.664 543.47 801.594 546.062 781.667C551.417 740.483 591.769 541.538 603.07 431.236C610.063 362.982 620 213.176 620 213.176C620 213.176 505.61 182.402 484 211.538" fill="#ca8f67"/><path id="Fill 8" fill-rule="evenodd" clip-rule="evenodd" d="M593.121 846.845C577.181 833.577 544.358 803.444 544 781.962C546.987 755.742 551.607 729.727 555.844 703.694C568.249 630.365 592.984 503.834 601.388 431.45C609.276 363.501 606.744 294.429 610.673 226.105C610.7 225.467 611.245 224.973 611.888 225.001C612.528 225.031 613.025 225.569 612.999 226.205C609.555 290.229 611.946 368.04 604.46 431.907C596.047 503.67 571.354 631.432 559.106 704.232C554.915 730.556 550.046 756.842 547.304 783.357C549.439 800.593 568.152 819.124 579.565 831.881C584.17 836.727 588.968 841.403 593.955 845.854C594.591 846.339 593.739 847.395 593.121 846.845" fill="#090E2B"/><path id="shoe-1" fill-rule="evenodd" clip-rule="evenodd" d="M593.411 845.722C593.411 845.722 595.626 852.637 584.102 852.935C575.886 853.149 561.859 852.869 552.231 846.064C542.605 839.258 493.65 797.511 493.65 792.582C493.65 789.612 489.721 798.673 487.958 804.761C480.054 832.034 498.621 864.662 498.855 871H514.82C514.82 871 518.467 846.713 519.406 844.6C520.345 842.488 548.951 871 564.49 871H620.111C628 871 619.937 856.63 593.411 845.722" fill="#090E2B"/><path id="skirt" fill-rule="evenodd" clip-rule="evenodd" d="M685.55 0C685.55 0 731.015 105.944 732 222.988C649.599 283.926 549.092 255.267 549.092 255.267C549.092 255.267 545.374 218.532 540.303 208.638C534.517 215.576 522.438 251.938 522.438 251.938C522.438 251.938 427.477 241.656 420.389 231.62C413.3 221.583 505.549 0 505.549 0H685.55Z" fill="#001386"/></g></g></g><g id="Upper Body/Standing" transform="translate(69 -172) scale(1 1)"><g id="Upper Body/Standing/Reading Book 2"><path id="Fill 1" fill-rule="evenodd" clip-rule="evenodd" d="M667.707 637.526C667.707 637.526 686.709 621.89 719.016 599.239C743.586 582.014 753.342 573.791 755.3 560.227C758.169 540.379 766.746 540.254 773.738 540.254C777.834 540.254 787.436 536.139 790.716 542.817C790.559 548.009 791.965 561.226 789.669 563.588C783.89 569.53 675.265 709 675.265 709C675.265 709 644.399 673.129 667.707 637.526" fill="#ca8f67"/><path id="Fill 3" fill-rule="evenodd" clip-rule="evenodd" d="M600.23 584.471C595.585 641.543 606.747 670.54 608.748 678.496C608.748 678.496 663.607 633.496 688.466 617.983C699.252 656.608 699.252 721.786 700 725.533C693.264 733.776 633.287 783.098 598.068 786.803C588.336 787.827 550.415 786.767 551.897 734.313C553.381 681.858 536.839 542.22 562.46 507C562.46 507 604.874 527.398 600.23 584.471Z" fill="#3615F6"/><path id="Fill 5" fill-rule="evenodd" clip-rule="evenodd" d="M740.97 404.282L684 548.593L770.179 555L825 419.763L795.218 375L783.789 411.438L740.97 404.282Z" fill="#090E2B"/><path id="Fill 8" fill-rule="evenodd" clip-rule="evenodd" d="M438.79 475.407C435.996 488.317 386 498.803 386 498.803C386 498.803 482.987 558.328 499.715 554.854C530.561 548.448 545.341 517.274 551 502.481C534.183 498.025 515.38 491.806 504.396 486.875C493.412 481.944 498.562 445.737 497.89 427.337C475.136 422.831 443.128 414 443.128 414C443.128 414 441.584 462.496 438.79 475.407Z" fill="#ca8f67"/><path id="Fill 10" fill-rule="evenodd" clip-rule="evenodd" d="M411.313 491C411.313 491 467.839 532.31 496.697 532.989C510.837 533.32 526.733 504.512 529.529 494.33C544.882 499.44 558.961 505.285 567.082 510.045C572.982 534.57 578.969 590.675 577.868 613.958C576.814 636.273 562.147 679.349 563.15 698.151C564.152 716.954 568.827 782.151 575.592 826.233C579.303 850.411 370.769 847.995 332.066 830.489C330.041 811.618 375.485 746.829 376.653 728.659C377.82 710.488 370.963 677.453 368.506 652.816C366.051 628.181 347.207 525.74 351.295 514.952C355.383 504.164 411.313 491 411.313 491Z" fill="#3615F6"/><path id="Fill 12" fill-rule="evenodd" clip-rule="evenodd" d="M405.618 926.32C411.882 932.36 414.925 935.522 417.253 941.186C420.483 949.042 421.504 958.883 422.387 961.727C425.669 972.306 414.841 965.985 412.011 958.782C406.441 971.988 415.33 998.384 406.441 995.827C380 988.219 382.726 968.884 380.455 937.933C379.659 927.08 344.564 893.761 339.173 883.524C336.309 878.082 369.842 844.789 375.596 852.024C381.348 859.259 394.153 915.261 405.618 926.32Z" fill="#ca8f67"/><path id="Fill 15" fill-rule="evenodd" clip-rule="evenodd" d="M370.305 503C370.305 503 329.453 514.046 318.515 559.694C307.577 605.341 255.982 700.819 250.595 734.48C242.035 787.963 254.535 841.963 289.857 934C303.851 923.87 375.806 865.849 379.973 850.092C363.448 819.882 345.756 765.588 347.974 739.33C350.191 713.071 393.118 659.608 395.604 627.99C399.19 582.359 370.305 503 370.305 503Z" fill="#3615F6"/><path id="Fill 17" fill-rule="evenodd" clip-rule="evenodd" d="M768.848 535.083C776.835 549.301 767.403 548.61 765.367 556.294C761.372 571.354 791.348 559.698 791.348 559.698C791.348 559.698 792.367 548.611 791.857 544.213C790.861 535.618 787.742 525.267 779.454 520.233C776.362 518.355 764.999 528.231 768.848 535.083" fill="#ca8f67"/><path id="Fill 19" fill-rule="evenodd" clip-rule="evenodd" d="M595.721 702.745C595.322 703.718 592.094 711.113 591.01 712.99C590.651 713.612 599.84 686.346 608.831 678.082C609.234 677.714 608.822 678.671 608.559 679.173C604.602 686.719 599.072 694.566 595.721 702.745Z" fill="#090E2B"/><path id="Fill 21" fill-rule="evenodd" clip-rule="evenodd" d="M563.29 679.304C565.092 666.869 568.854 654.788 571.332 642.545C575.235 622.144 574.071 600.424 568.766 581.121C568.702 580.894 568.003 578.059 568.199 578.002C568.396 577.945 569.488 580.664 569.554 580.916C582.035 621.771 574.002 640.868 565.527 679.651C562.381 702.277 565.847 738.523 568.357 766.31C568.721 770.346 569.479 779.117 569.405 778.998C569.325 778.868 569.095 777.833 568.876 776.405C566.523 761.13 559.02 707.065 563.29 679.304Z" fill="#090E2B"/><path id="Fill 23" fill-rule="evenodd" clip-rule="evenodd" d="M396.035 584.922C402.615 619.82 392.18 655.247 372.079 683.934C371.873 684.237 372.11 683.413 372.325 683.063C387.693 657.152 397.002 628.607 395.512 598.031C395.303 593.722 394.886 587.52 394.404 583.258C394.28 582.369 395.899 583.989 396.035 584.922" fill="#090E2B"/><path id="Fill 25" fill-rule="evenodd" clip-rule="evenodd" d="M353 779C359.938 797.513 366.399 817.037 372.768 835.564C373.198 836.816 374.462 839.83 373.823 838.783C368.969 830.841 364.292 818.622 361.02 809.879C358.116 800.073 353.61 788.302 353 779" fill="#090E2B"/><path id="Fill 27" fill-rule="evenodd" clip-rule="evenodd" d="M764.71 563.51C762.455 556.677 765.929 552.431 770.109 548.812C770.587 548.4 771.506 547.483 771.947 547.025C772.126 546.839 771.813 547.735 771.602 548.126C769.867 551.325 766.277 553.327 765.234 558.94C765.074 559.795 765.439 565.718 764.71 563.51" fill="#090E2B"/><path id="Fill 29" fill-rule="evenodd" clip-rule="evenodd" d="M773.342 381L760 407.508L817.323 417L818 416.103L773.342 381Z" fill="#FFB201"/></g></g><g id="Head" transform="translate(399 26) scale(1 1)"><g id="Head/Long Hair Dark"><path id="hair" fill-rule="evenodd" clip-rule="evenodd" d="M202.96 77.8622C181.85 79.5182 184.201 108.083 184.201 108.083L160.791 233.742L164.171 235.861C164.171 235.861 157.941 270.761 161.916 281.312C164.689 288.675 176.166 298.498 184.156 300.446C187.906 301.36 191.248 298.459 193.299 294.225C205.503 269.035 175.322 218.202 216.652 184.725C225.03 165.651 231.832 150.83 233.996 147.83C241.022 138.089 269.219 72.6632 202.96 77.8622" fill="#090E2B"/><path id="face" fill-rule="evenodd" clip-rule="evenodd" d="M231.595 169.854C231.717 186.9 240.727 192.188 233.169 222.16C227.297 245.445 204.337 266.222 197.588 266.222C160.591 266.222 132.306 237.766 116.041 222.16C99.7771 206.554 83.9321 173.964 94.9881 136.896C106.042 99.8283 189.094 48.6463 217.223 106.107C225.869 123.768 231.336 133.563 231.595 169.854Z" fill="#ca8f67"/><path id="hair_2" fill-rule="evenodd" clip-rule="evenodd" d="M130.088 181.782C128.9 173.987 126.062 165.705 126.54 162.536C137.808 137.905 220.052 153.862 221.618 97.6449C222.223 75.9519 202.498 58.0299 185.931 54.0029C144.836 44.0129 94.0475 71.7789 71.6945 128.653C57.5485 164.645 86.5035 215.853 60.7515 217.008C-17.4695 220.517 -34.6575 251.486 -39.8695 280.62C-46.4775 317.555 -23.3965 354.421 10.5785 340.636C59.7395 379.877 115.696 300.615 120.223 241.305C123 204.916 95.7905 197.483 100.679 184.511C105.053 175.351 110.514 161.82 115.925 179.974C116.697 182.567 115.729 189.835 118.073 193.201C121.485 198.102 126.864 197.637 128.625 195.291C130.94 192.207 130.899 187.108 130.088 181.782Z" fill="#090E2B"/><path id="ear" fill-rule="evenodd" clip-rule="evenodd" d="M115.313 181.264C114.883 173.3 111.137 163.343 100.53 162.562C94.8072 162.14 82.1602 166.579 87.7552 189.184C91.7972 205.508 108.376 210.145 113.018 209.26C121.327 207.677 115.947 193.049 115.313 181.264" fill="#ca8f67"/><path id="Fill 11" fill-rule="evenodd" clip-rule="evenodd" d="M160.046 257.312C155.325 256.324 150.368 253.273 146.542 250.168C143.423 247.637 138.642 242.711 136.488 240.103C135.462 238.861 137.141 239.973 138.77 241.136C140.929 242.677 148.163 248.846 155.415 252.959C156.316 253.47 161.281 256.317 161.24 256.832C161.212 257.176 160.748 257.459 160.046 257.312" fill="#090E2B"/><path id="Fill 13" fill-rule="evenodd" clip-rule="evenodd" d="M97.6772 177.008C95.0942 177.191 95.6262 181.256 98.1642 180.777C101.588 180.131 104.414 181.805 106.42 184.354C103.983 184.647 101.342 187.222 99.6492 188.594C98.4302 189.716 100.297 191.549 101.398 190.318C102.41 189.22 103.595 188.114 104.817 187.249C105.636 186.705 106.519 186.111 107.422 186.166C107.525 186.194 107.62 186.248 107.715 186.311C108.651 188.003 109.286 189.878 109.569 191.654C114.825 195.795 108.33 174.422 97.6772 177.008" fill="#090E2B"/></g></g><g id="Expressions" transform="translate(520 159) scale(1 1)"><g id="Expressions/Relaxed"><path id="Fill 1" fill-rule="evenodd" clip-rule="evenodd" d="M93.917 85.9778C78.288 85.3498 67.34 84.9098 56.819 84.4878C53.549 84.3558 50.673 90.0738 56.294 97.5688C64.259 108.189 84.891 111.876 93.281 99.0538C97.555 92.5238 97.31 86.1148 93.917 85.9778" fill="white"/><path id="nose" fill-rule="evenodd" clip-rule="evenodd" d="M82.7871 55.7084C86.8281 59.4834 96.9611 74.6464 87.8281 76.8394C85.9421 77.2914 77.3211 77.5114 78.5921 75.6374C79.6051 74.1434 85.9771 75.0244 86.8981 72.1854C88.1081 68.4554 83.7121 61.1524 80.9721 56.1434C80.5011 55.2804 82.1521 54.9674 82.7871 55.7084" fill="#090E2B"/><path id="eye" fill-rule="evenodd" clip-rule="evenodd" d="M101.14 49.4726C102.716 48.4496 104.002 46.9449 104.812 43.8791C105.442 41.4928 104.117 41.182 103.446 41.8768C103.179 42.1534 102.89 42.5185 102.567 42.9254C101.4 44.4003 99.7974 46.4242 97.2379 46.7697C95.5386 47 93.0129 46.5252 90.427 44.7174C88.7963 43.5795 87.3545 43.558 88.271 45.8261C89.496 48.8593 96.5465 52.4533 101.14 49.4726ZM45.7528 54.7979C53.7067 59.04 63.5732 54.6834 63.3552 47.0155C63.2851 44.5515 61.754 44.5133 60.8831 46.19C58.6542 50.4862 51.8747 54.579 43.8676 49.2316C43.8604 49.2268 43.853 49.2219 43.8454 49.2169C43.2217 48.8006 41.4469 47.6162 40.7587 48.3637C39.6704 49.5454 41.6555 52.6145 45.7528 54.7979Z" fill="#090E2B"/><path id="eybrow" fill-rule="evenodd" clip-rule="evenodd" d="M106.892 19.0603C97.9002 11.4322 82.9075 17.8364 81.4786 26.4153C80.9228 29.7588 84.7289 30.4299 86.5262 28.5224C93.1586 21.4848 101.912 23.1875 105.337 23.8539C106.047 23.9919 106.528 24.0854 106.714 24.0478C109.751 23.4369 108.668 20.5673 106.892 19.0603ZM27.9799 30.9433C38.6859 22.6052 49.269 24.8492 60.7363 31.6406C64.9372 32.9563 65.9182 27.4971 62.7947 24.082C55.9812 16.6332 41.7869 15.2534 31.6092 20.0844C28.5028 21.5578 24.6711 25.6739 23.7097 27.9688C22.3602 31.1906 24.1328 33.9401 27.9799 30.9433Z" fill="#090E2B"/></g></g><g id="Facial Accesories" transform="translate(517 209) scale(120 110)"><g id="Facial Accesories/None" stroke="none" stroke-width="1" fill="none" fill-rule="evenodd" fill-opacity="0"/></g><g id="Glass" transform="translate(520 164) scale(120 75)"><g id="Glass/None" stroke="none" stroke-width="1" fill="none" fill-rule="evenodd" fill-opacity="0"/></g></g></g><path id="Path 4" d="M833.703 2050.5C835.636 2050.5 837.203 2052.07 837.203 2054C837.203 2055.87 835.739 2057.4 833.895 2057.49L833.703 2057.5H0C-1.933 2057.5 -3.5 2055.93 -3.5 2054C-3.5 2052.13 -2.03572 2050.6 -0.192035 2050.51L0 2050.5H833.703Z" fill="#090E2B"/></g></svg>