<svg viewBox="348.75 562.5 337.49999999999994 449.99999999999955" fill="none" xmlns="http://www.w3.org/2000/svg" xmlns:xlink="http://www.w3.org/1999/xlink" overflow="visible" width="337.49999999999994px" height="449.99999999999955px"><g id="Master/Character/Avatar [colors]"><path id="neck" fill-rule="evenodd" clip-rule="evenodd" d="M568.972 747.517C568.972 747.517 562.254 789.695 568.763 802.265C573.946 812.274 604.524 825.963 604.524 825.963L610 855.345L496.469 867C483.332 864.086 435.777 851.899 450.957 832.852C466.135 813.804 498.291 808.552 503.518 800.109C513.554 783.901 515.388 750.951 515.111 738.505C515.111 735.414 568.972 747.517 568.972 747.517" fill="#b75858"/><g id="t-shirt"><path id="T-Shirt" fill-rule="evenodd" clip-rule="evenodd" d="M589.829 817.707C587.517 822.006 576.672 842.174 563.685 843.578C544.547 845.647 517.3 831.851 497.429 821.79C487.761 816.895 479.839 812.884 475.446 812.014C473.214 811.573 440.078 821.822 419.134 839.154C412.865 844.342 394.857 861.782 398.176 886.885C398.61 890.164 396.431 901.383 393.849 914.68C389.796 935.555 384.748 961.554 387.249 970C394.732 995.265 424.205 996.765 458.662 998.26C527.415 1001.24 590.54 999.264 614.483 998.513C619.328 998.361 622.569 998.26 623.927 998.26C660.59 998.26 673.97 998.26 686.138 979.597C671.082 940.8 654.034 892.84 651.397 880.026C645.001 848.937 626.202 837.399 619.258 833.137C619.148 833.069 619.041 833.004 618.937 832.94C618.401 832.592 617.858 832.243 617.312 831.895C617.217 831.828 617.133 831.764 617.057 831.703C617.056 831.713 617.055 831.722 617.054 831.732C604.842 823.983 590.576 816.545 590.27 816.915C590.226 816.968 590.077 817.246 589.829 817.707Z" fill="#FF0057"/><path id="Fill 15" fill-rule="evenodd" clip-rule="evenodd" d="M641.645 914.609C644.036 924.137 644.064 932.172 643.606 941.951C642.453 959.26 639.873 957.961 635.782 978.732C633.698 989.309 632.534 995.736 631.868 997.399C630.964 999.656 631.234 993.318 633.753 978.371C636.267 961.368 638.893 963.272 640.511 946.293C642.129 929.314 641.562 926.941 638.824 914.384C636.341 903.325 632.464 893.487 629.141 882.62C628.95 881.105 625.105 871.611 627.053 873.018C631.587 886.896 637.991 900.453 641.645 914.609Z" fill="#090E2B"/><path id="Fill 17" fill-rule="evenodd" clip-rule="evenodd" d="M482.84 886.285C479.757 913.612 475.168 940.761 469.161 967.596C468.265 969.756 461.42 999.256 461.116 994.06C461.077 993.382 461.213 992.032 461.354 991.363C466.659 966.144 472.155 938.484 476.703 913.126C476.704 913.126 481.411 886.091 481.411 886.091C481.538 885.222 482.956 885.36 482.84 886.285" fill="#090E2B"/></g><g id="Head" transform="translate(398 525) scale(1 1)"><g id="Head/Long Hair Dark"><path id="hair" fill-rule="evenodd" clip-rule="evenodd" d="M202.96 77.8622C181.85 79.5182 184.201 108.083 184.201 108.083L160.791 233.742L164.171 235.861C164.171 235.861 157.941 270.761 161.916 281.312C164.689 288.675 176.166 298.498 184.156 300.446C187.906 301.36 191.248 298.459 193.299 294.225C205.503 269.035 175.322 218.202 216.652 184.725C225.03 165.651 231.832 150.83 233.996 147.83C241.022 138.089 269.219 72.6632 202.96 77.8622" fill="#090E2B"/><path id="face" fill-rule="evenodd" clip-rule="evenodd" d="M231.595 169.854C231.717 186.9 240.727 192.188 233.169 222.16C227.297 245.445 204.337 266.222 197.588 266.222C160.591 266.222 132.306 237.766 116.041 222.16C99.7771 206.554 83.9321 173.964 94.9881 136.896C106.042 99.8283 189.094 48.6463 217.223 106.107C225.869 123.768 231.336 133.563 231.595 169.854Z" fill="#b75858"/><path id="hair_2" fill-rule="evenodd" clip-rule="evenodd" d="M130.088 181.782C128.9 173.987 126.062 165.705 126.54 162.536C137.808 137.905 220.052 153.862 221.618 97.6449C222.223 75.9519 202.498 58.0299 185.931 54.0029C144.836 44.0129 94.0475 71.7789 71.6945 128.653C57.5485 164.645 86.5035 215.853 60.7515 217.008C-17.4695 220.517 -34.6575 251.486 -39.8695 280.62C-46.4775 317.555 -23.3965 354.421 10.5785 340.636C59.7395 379.877 115.696 300.615 120.223 241.305C123 204.916 95.7905 197.483 100.679 184.511C105.053 175.351 110.514 161.82 115.925 179.974C116.697 182.567 115.729 189.835 118.073 193.201C121.485 198.102 126.864 197.637 128.625 195.291C130.94 192.207 130.899 187.108 130.088 181.782Z" fill="#090E2B"/><path id="ear" fill-rule="evenodd" clip-rule="evenodd" d="M115.313 181.264C114.883 173.3 111.137 163.343 100.53 162.562C94.8072 162.14 82.1602 166.579 87.7552 189.184C91.7972 205.508 108.376 210.145 113.018 209.26C121.327 207.677 115.947 193.049 115.313 181.264" fill="#b75858"/><path id="Fill 11" fill-rule="evenodd" clip-rule="evenodd" d="M160.046 257.312C155.325 256.324 150.368 253.273 146.542 250.168C143.423 247.637 138.642 242.711 136.488 240.103C135.462 238.861 137.141 239.973 138.77 241.136C140.929 242.677 148.163 248.846 155.415 252.959C156.316 253.47 161.281 256.317 161.24 256.832C161.212 257.176 160.748 257.459 160.046 257.312" fill="#090E2B"/><path id="Fill 13" fill-rule="evenodd" clip-rule="evenodd" d="M97.6772 177.008C95.0942 177.191 95.6262 181.256 98.1642 180.777C101.588 180.131 104.414 181.805 106.42 184.354C103.983 184.647 101.342 187.222 99.6492 188.594C98.4302 189.716 100.297 191.549 101.398 190.318C102.41 189.22 103.595 188.114 104.817 187.249C105.636 186.705 106.519 186.111 107.422 186.166C107.525 186.194 107.62 186.248 107.715 186.311C108.651 188.003 109.286 189.878 109.569 191.654C114.825 195.795 108.33 174.422 97.6772 177.008" fill="#090E2B"/></g></g><g id="Expressions" transform="translate(519 658) scale(1 1)"><g id="Expressions/Relaxed"><path id="Fill 1" fill-rule="evenodd" clip-rule="evenodd" d="M93.917 85.9778C78.288 85.3498 67.34 84.9098 56.819 84.4878C53.549 84.3558 50.673 90.0738 56.294 97.5688C64.259 108.189 84.891 111.876 93.281 99.0538C97.555 92.5238 97.31 86.1148 93.917 85.9778" fill="white"/><path id="nose" fill-rule="evenodd" clip-rule="evenodd" d="M82.7871 55.7084C86.8281 59.4834 96.9611 74.6464 87.8281 76.8394C85.9421 77.2914 77.3211 77.5114 78.5921 75.6374C79.6051 74.1434 85.9771 75.0244 86.8981 72.1854C88.1081 68.4554 83.7121 61.1524 80.9721 56.1434C80.5011 55.2804 82.1521 54.9674 82.7871 55.7084" fill="#090E2B"/><path id="eye" fill-rule="evenodd" clip-rule="evenodd" d="M101.14 49.4726C102.716 48.4496 104.002 46.9449 104.812 43.8791C105.442 41.4928 104.117 41.182 103.446 41.8768C103.179 42.1534 102.89 42.5185 102.567 42.9254C101.4 44.4003 99.7974 46.4242 97.2379 46.7697C95.5386 47 93.0129 46.5252 90.427 44.7174C88.7963 43.5795 87.3545 43.558 88.271 45.8261C89.496 48.8593 96.5465 52.4533 101.14 49.4726ZM45.7528 54.7979C53.7067 59.04 63.5732 54.6834 63.3552 47.0155C63.2851 44.5515 61.754 44.5133 60.8831 46.19C58.6542 50.4862 51.8747 54.579 43.8676 49.2316C43.8604 49.2268 43.853 49.2219 43.8454 49.2169C43.2217 48.8006 41.4469 47.6162 40.7587 48.3637C39.6704 49.5454 41.6555 52.6145 45.7528 54.7979Z" fill="#090E2B"/><path id="eybrow" fill-rule="evenodd" clip-rule="evenodd" d="M106.892 19.0603C97.9002 11.4322 82.9075 17.8364 81.4786 26.4153C80.9228 29.7588 84.7289 30.4299 86.5262 28.5224C93.1586 21.4848 101.912 23.1875 105.337 23.8539C106.047 23.9919 106.528 24.0854 106.714 24.0478C109.751 23.4369 108.668 20.5673 106.892 19.0603ZM27.9799 30.9433C38.6859 22.6052 49.269 24.8492 60.7363 31.6406C64.9372 32.9563 65.9182 27.4971 62.7947 24.082C55.9812 16.6332 41.7869 15.2534 31.6092 20.0844C28.5028 21.5578 24.6711 25.6739 23.7097 27.9688C22.3602 31.1906 24.1328 33.9401 27.9799 30.9433Z" fill="#090E2B"/></g></g><g id="Facial Accesories" transform="translate(516 708) scale(120 110)"><g id="Facial Accesories/None" stroke="none" stroke-width="1" fill="none" fill-rule="evenodd" fill-opacity="0"/></g><g id="Glass" transform="translate(519 663) scale(120 75)"><g id="Glass/None" stroke="none" stroke-width="1" fill="none" fill-rule="evenodd" fill-opacity="0"/></g></g></svg>