<svg xmlns="http://www.w3.org/2000/svg" xmlns:xlink="http://www.w3.org/1999/xlink" x="0px" y="0px" viewBox="0 0 46 43.5" enable-background="new 0 0 46 43.5" xml:space="preserve">
<path fill="#142850" d="M21.2,16.2c-0.5,0.2-1,0.3-1.6,0.4c0.2,0.5,0.3,1.1,0.3,1.7c0,3.4-2.1,6-5.4,6.6c-1,0.2-1.6,0.6-1.6,1.7
	c0,3.1,8.1,1,8.1,6.7c0,4.6-3.1,6.1-7.3,6.1c-3.4,0-7.4-1.1-7.4-5.3c0-2.4,1.5-3.8,3.7-4.5v-0.1C9.1,29,8.7,28.1,8.7,27
	c0-1,0.2-2.3,1.3-2.8v-0.1c-2-0.7-3.4-3.5-3.4-5.5c0-3.8,2.9-6.5,6.6-6.5c1.2,0,2.5,0.3,3.6,0.9c1.5,0,3-0.4,4.4-0.9V16.2z
	 M13.6,31.8c-1.4,0-3.2,0.3-3.2,2.1c0,1.8,2.1,2,3.5,2c1.5,0,3-0.4,3-2.1C17,32,15,31.8,13.6,31.8z M13.4,15.8
	c-1.8,0-2.5,1.2-2.5,2.9c0,1.7,0.7,2.7,2.5,2.7c1.7,0,2.4-1.1,2.4-2.8C15.8,17.1,15,15.8,13.4,15.8z M25.4,9.3
	c-1.6,0-2.8-1.4-2.8-2.9c0-1.5,1.2-3,2.8-3c1.6,0,2.7,1.4,2.7,3S26.9,9.3,25.4,9.3z M23.1,29.8c0.1-0.9,0.1-1.8,0.1-2.7V14.9
	c0-0.9,0-1.7-0.1-2.6h4.5c-0.1,0.8-0.1,1.7-0.1,2.5v12.3c0,0.9,0,1.8,0.1,2.7H23.1z M39.6,29.3c-1.1,0.6-2.3,0.8-3.5,0.8
	c-4.3,0-4.8-3.4-4.8-6.9v-7.1h0v-0.1c-0.3,0-0.5,0-0.7,0c-0.4,0-0.8,0.1-1.2,0.1v-3.8h1.9v-1.5c0-0.6,0-1.2-0.1-1.8h4.6
	c-0.2,1.1-0.1,2.2-0.1,3.3h3.4v3.8c-0.6,0-1.2-0.1-1.7-0.1h-1.7v7.3c0,1.2,0.3,2.6,1.7,2.6c0.8,0,1.5-0.2,2.2-0.7V29.3z"/>
</svg>