<svg viewBox="-10.262626262626327 179.98750000000018 2052.525252525252 1902.7249999999995" fill="none" xmlns="http://www.w3.org/2000/svg" xmlns:xlink="http://www.w3.org/1999/xlink" overflow="visible" width="2052.525252525252px" height="1902.7249999999995px"><g id="Master/Spot Ilustrations/Staying Home"><path id="Shape" opacity="0.5" fill-rule="evenodd" clip-rule="evenodd" d="M1359.68 787.244H994.004V1261.07L1359.68 1261.07V787.244ZM586.16 787.244V1261.07L951.84 1261.07V787.244H586.16ZM586.16 744.527L951.84 744.528V227.151L586.16 227.152V744.527ZM994.004 227.151V744.528L1359.68 744.527V227.152L994.004 227.151Z" fill="#F0F1FF"/><path id="Fill 17" opacity="0.75" fill-rule="evenodd" clip-rule="evenodd" d="M1145.52 404.003H1342C1342 404.003 1327.6 344.991 1276.78 344.991C1239.13 344.991 1219.6 368.803 1211.99 381.143C1197.14 375.335 1165.16 368.283 1145.52 404.003" fill="white"/><path id="Shape_2" opacity="0.75" fill-rule="evenodd" clip-rule="evenodd" d="M1414.66 182.572V885.462H1579.8V826L1499.52 826.001L1499.34 825.996C1497.76 825.905 1496.52 824.599 1496.52 823.001C1496.52 821.403 1497.76 820.097 1499.34 820.005L1499.52 820H1644.47L1644.65 820.005C1646.16 820.093 1647.38 821.307 1647.47 822.824L1647.47 823L1647.47 823.177C1647.38 824.693 1646.16 825.907 1644.65 825.995L1644.47 826H1585.8V885.461L1753 885.462L1753.18 885.467C1754.75 885.559 1756 886.865 1756 888.462C1756 890.06 1754.75 891.366 1753.18 891.457L1753 891.462L1672.72 891.461V950.925L1719.04 950.926L1719.22 950.931C1720.73 951.019 1721.95 952.233 1722.04 953.75L1722.04 953.926L1722.04 954.102C1721.95 955.619 1720.73 956.833 1719.22 956.921L1719.04 956.926L1585.8 956.925V1016.39L1719.04 1016.39L1719.22 1016.39C1720.79 1016.48 1722.04 1017.79 1722.04 1019.39C1722.04 1020.98 1720.79 1022.29 1719.22 1022.38L1719.04 1022.39L1672.72 1022.39L1672.72 1084.85L1672.71 1085.03C1672.62 1086.54 1671.41 1087.76 1669.89 1087.84L1669.72 1087.85H1582.8L1582.62 1087.84C1581.1 1087.76 1579.89 1086.54 1579.8 1085.03L1579.8 1084.85L1579.8 1084.67C1579.89 1083.16 1581.1 1081.94 1582.62 1081.85L1582.8 1081.85L1666.72 1081.85V1022.39L1414.66 1022.39V1312.57H531.661V421.886L346.841 421.887V414.887L444.298 414.886V356.426L277.596 356.427V349.427L361.016 349.426V290.962L317.35 290.963V283.963L444.298 283.962V225.5L364.516 225.501V218.5H509.471V225.5H451.299V283.962L531.661 283.961V182.572H1414.66ZM1407.66 189.571H538.661V1305.57H1407.66V189.571ZM1414.66 956.926H1579.8V1016.39H1414.66V956.926ZM1496.52 891.462H1414.66V950.926H1496.52V891.462ZM1502.52 891.463H1666.72V950.925H1502.52V891.463ZM451.298 356.425V414.885H531.661V356.425H451.298ZM368.015 349.425V290.963H531.661V349.425H368.015Z" fill="black" fill-opacity="0.08"/><g id="Couch"><g id="Couch_2"><path id="Fill 1" fill-rule="evenodd" clip-rule="evenodd" d="M397.782 1834.98L378 2054.07L397.509 2055L470 1814.21L398.443 1804L397.782 1834.98Z" fill="#090E2B"/><path id="Fill 2" fill-rule="evenodd" clip-rule="evenodd" d="M1567 1814.21L1639.49 2055L1659 2054.07L1639.22 1834.98L1638.56 1804L1567 1814.21Z" fill="#090E2B"/><path id="Fill 3" fill-rule="evenodd" clip-rule="evenodd" d="M523.782 1831.98L504 2051.06L523.509 2052L596 1811.21L524.445 1801L523.782 1831.98Z" fill="#090E2B"/><path id="Fill 4" fill-rule="evenodd" clip-rule="evenodd" d="M1491.22 1831.98L1511 2051.06L1491.49 2052L1419 1811.21L1490.56 1801L1491.22 1831.98Z" fill="#090E2B"/><g id="Group 16"><g id="Group 7"><path id="Fill 5" fill-rule="evenodd" clip-rule="evenodd" d="M276.223 1472.68C276.223 1472.68 34.2545 1157.71 245.601 1059.07C395.262 989.217 1322.68 876.702 1792.21 1086.06C1792.21 1086.06 1981.13 1181.62 1761.68 1431.83L1639.19 1748.43L424.229 1768.85L276.223 1472.68Z" fill="#008BF2"/></g><path id="Stroke 8 (Stroke)" fill-rule="evenodd" clip-rule="evenodd" d="M399.815 1081.52C352.292 1094.19 315.212 1108.19 291.716 1122.96L291.521 1123.08L291.314 1123.17L291.313 1123.17L291.31 1123.17L291.305 1123.18L291.25 1123.2C291.198 1123.22 291.114 1123.26 291 1123.32C290.772 1123.42 290.424 1123.59 289.967 1123.82C289.052 1124.28 287.705 1125 286.023 1126C282.656 1128.01 277.954 1131.14 272.691 1135.63C262.17 1144.6 249.417 1158.97 240.595 1180.54C222.993 1223.59 220.723 1296.17 285.124 1413.25L279.866 1416.14C214.964 1298.15 216.507 1223.6 235.042 1178.27C244.289 1155.66 257.687 1140.54 268.798 1131.06C274.352 1126.33 279.337 1123 282.954 1120.85C284.763 1119.77 286.231 1118.99 287.26 1118.47C287.774 1118.21 288.178 1118.01 288.461 1117.88C288.555 1117.84 288.636 1117.8 288.702 1117.77C312.982 1102.55 350.697 1088.41 398.269 1075.72C446.018 1062.99 503.917 1051.68 568.572 1042.25C697.885 1023.39 854.386 1012.04 1011.08 1012.04C1167.77 1012.04 1324.27 1023.39 1453.58 1042.25C1518.24 1051.68 1576.14 1062.99 1623.89 1075.72C1671.46 1088.41 1709.17 1102.55 1733.45 1117.77C1733.52 1117.8 1733.6 1117.84 1733.7 1117.88C1733.98 1118.01 1734.38 1118.21 1734.9 1118.47C1735.92 1118.99 1737.39 1119.77 1739.2 1120.85C1742.82 1123 1747.8 1126.33 1753.36 1131.06C1764.47 1140.54 1777.87 1155.66 1787.11 1178.27C1805.65 1223.6 1807.19 1298.15 1742.29 1416.14L1737.03 1413.25C1801.43 1296.17 1799.16 1223.59 1781.56 1180.54C1772.74 1158.97 1759.99 1144.6 1749.46 1135.63C1744.2 1131.14 1739.5 1128.01 1736.13 1126C1734.45 1125 1733.1 1124.28 1732.19 1123.82C1731.73 1123.59 1731.38 1123.42 1731.16 1123.32C1731.04 1123.26 1730.96 1123.22 1730.91 1123.2L1730.85 1123.18L1730.85 1123.17" fill="#090E2B"/><path id="Stroke 10 (Stroke)" fill-rule="evenodd" clip-rule="evenodd" d="M1613.98 1589.9L439.535 1580.34L439.576 1575.34L1614.02 1584.9L1613.98 1589.9Z" fill="#090E2B"/><path id="Fill 12" fill-rule="evenodd" clip-rule="evenodd" d="M1463.27 1282C1363.46 1282 1345.99 1494.45 1353.55 1569.11C1353.55 1569.11 1354.31 1601.97 1367.99 1595.06C1381.67 1588.15 1545.38 1631.46 1587.44 1627.92C1587.44 1627.92 1729.36 1451.75 1699.69 1366.54C1676.79 1321.16 1507.22 1282 1463.27 1282Z" fill="#FFB201"/></g><path id="Fill 36" fill-rule="evenodd" clip-rule="evenodd" d="M1600.19 1582.47C1585.9 1624.25 1548.41 1655.24 1504.25 1655.24H541.556C497.401 1655.24 459.913 1624.25 445.62 1582.47C410.129 1478.73 338.124 1358.38 211.704 1421.54C211.704 1421.54 147.067 1470.93 219.308 1539.31C273.392 1590.51 288.568 1643.83 296.134 1716.82C301.68 1770.34 337.99 1815.88 388.989 1833.15C393.614 1834.71 396.979 1835.64 398.46 1835.64H1647.6C1648.95 1835.64 1651.81 1834.89 1655.74 1833.6C1707.28 1816.65 1744.08 1770.84 1749.67 1716.91C1757.23 1643.88 1772.39 1590.53 1826.5 1539.31C1898.74 1470.93 1834.1 1421.54 1834.1 1421.54C1707.68 1358.38 1635.68 1478.73 1600.19 1582.47Z" fill="#276DFF"/><path id="Stroke 38" fill-rule="evenodd" clip-rule="evenodd" d="M1803.84 1492.39C1803.84 1512.11 1787.83 1528.11 1768.09 1528.11C1748.35 1528.11 1732.34 1512.11 1732.34 1492.39C1732.34 1472.66 1748.35 1456.67 1768.09 1456.67C1787.83 1456.67 1803.84 1472.66 1803.84 1492.39Z" fill="#090E2B"/><path id="Stroke 40" fill-rule="evenodd" clip-rule="evenodd" d="M322.518 1492.39C322.518 1512.11 306.512 1528.11 286.768 1528.11C267.024 1528.11 251.02 1512.11 251.02 1492.39C251.02 1472.66 267.024 1456.67 286.768 1456.67C306.512 1456.67 322.518 1472.66 322.518 1492.39Z" fill="#090E2B"/></g></g><path id="Floor" d="M2032.5 2051C2034.43 2051 2036 2052.57 2036 2054.5C2036 2056.37 2034.54 2057.9 2032.69 2057.99L2032.5 2058H0.125C-1.808 2058 -3.375 2056.43 -3.375 2054.5C-3.375 2052.63 -1.91072 2051.1 -0.0670352 2051.01L0.125 2051H2032.5Z" fill="#090E2B"/><g id="Master/Character/Sitting [colors]" transform="translate(84 563) scale(1 1)"><g id="Master/Character/Sitting [colors]"><g id="Lower Body/Sitting" transform="translate(179 940) scale(1 1)"><g id="Lower Body/Sitting/On Chair 2"><path id="Fill 3" fill-rule="evenodd" clip-rule="evenodd" d="M410.615 399.5C410.615 399.5 400.358 471.95 396.172 502.906C391.95 534.126 467.049 503.737 467.049 503.737C467.049 503.737 453.51 484.443 453.305 479.158C453.101 473.871 476.219 412 476.219 412L410.615 399.5Z" fill="#ca8f67"/><path id="Fill 5" fill-rule="evenodd" clip-rule="evenodd" d="M561.036 -1.52588e-05C597.898 16.8477 635.154 59.3885 602.589 139.129C570.025 218.869 493.394 411.872 481.35 420.555C469.306 429.239 405.785 412 405.785 412C405.785 412 412.733 330.944 426.535 251.243C436.642 192.88 457.953 150.326 457.953 150.326C457.953 150.326 286.541 174.784 243.983 146.076C188.125 108.397 229.481 6.86053 261.586 -5.71066C302.859 -21.8714 490.855 -32.0758 561.036 -1.52588e-05Z" fill="#090E2B"/><path id="Fill 17" fill-rule="evenodd" clip-rule="evenodd" d="M559.105 537.55C553.719 520.869 514.662 509.853 486.46 501.514C476.967 498.706 463.703 484.835 457.546 485.001C448.582 485.245 457.367 503.898 427.363 502.274C419.419 501.845 418.852 493.484 401.592 491.581C398.787 491.273 394.499 490.728 390.796 497.394C388.732 501.111 380.282 534.664 388.578 548.345C446.664 549.846 506.413 548.363 558.02 547.882C563.06 547.834 560.482 541.819 559.105 537.55" fill="#FF0057"/><path id="Fill 1" fill-rule="evenodd" clip-rule="evenodd" d="M654.971 412C654.971 412 665.531 466.51 672.596 475.378C679.663 484.243 716.329 494.221 717.975 499.698C719.619 505.175 639.821 518 639.821 518L591 416.698L654.971 412Z" fill="#ca8f67"/><path id="Fill 10" fill-rule="evenodd" clip-rule="evenodd" d="M790.105 534.55C784.719 517.87 745.662 506.853 717.46 498.513C707.967 495.706 694.703 481.834 688.546 482.001C679.582 482.244 688.367 500.898 658.363 499.274C650.42 498.845 649.853 490.483 632.592 488.581C629.787 488.272 625.499 487.728 621.796 494.393C619.732 498.11 611.282 531.663 619.578 545.346C677.664 546.846 737.413 545.362 789.02 544.881C794.06 544.833 791.482 538.818 790.105 534.55" fill="#FF0057"/><path id="Fill 15" fill-rule="evenodd" clip-rule="evenodd" d="M722.705 510.43C726.392 503.004 728.005 501.713 726.433 500.544C722.673 497.748 703.571 506.385 702.07 511.523C700.945 515.374 713.664 504.229 723.821 502.566C719.659 506.366 715.779 518.02 719.874 515.696C739.827 504.382 742.974 507.006 742.999 506.586C743.117 504.585 735.566 502.967 722.705 510.43" fill="#FFB201"/><path id="Fill 7" fill-rule="evenodd" clip-rule="evenodd" d="M180.128 77C192.092 138.955 247.292 161.212 295.191 159.362C368.357 156.536 442.941 124.042 468.153 113.183C465.932 129.164 477.806 220.025 497.63 262.074C517.453 304.124 582.01 430.62 582.01 430.62C582.01 430.62 654.852 431.05 657.967 413.369C660.016 401.738 591.632 76.8495 569.01 20.5962C556.02 -11.7082 513.977 -25.6487 427.502 -33C340.648 -40.3834 214.032 -26.7716 214.032 -26.7716C214.032 -26.7716 168.163 15.0448 180.128 77Z" fill="#090E2B"/><path id="Fill 22" fill-rule="evenodd" clip-rule="evenodd" d="M491.705 514.43C495.392 507.005 497.005 505.714 495.432 504.544C491.672 501.749 472.571 510.385 471.07 515.522C469.945 519.373 482.664 508.228 492.821 506.566C488.659 510.367 484.778 522.019 488.874 519.697C508.827 508.381 511.974 511.006 511.999 510.585C512.117 508.585 504.566 506.966 491.705 514.43" fill="#FFB201"/><path id="Fill 19" fill-rule="evenodd" clip-rule="evenodd" d="M546.831 554.392L407.016 556.858C397.662 557.232 383.67 554.015 382.317 546.244C381.306 540.438 383.554 527.796 384.02 526.955C387.277 521.095 415.032 526.039 423.117 545.828C474.131 549.65 561.008 545.913 561.008 545.913C561.008 545.913 562.312 553.594 546.831 554.392" fill="#090E2B"/><path id="Fill 12" fill-rule="evenodd" clip-rule="evenodd" d="M777.721 550.785L637.906 553.251C628.553 553.625 614.56 550.409 613.207 542.638C612.197 536.832 614.444 524.19 614.911 523.349C618.167 517.489 645.922 522.433 654.007 542.222C705.021 546.044 791.899 542.307 791.899 542.307C791.899 542.307 793.202 549.988 777.721 550.785" fill="#090E2B"/></g></g><g id="Upper Body/Sitting" transform="translate(243 170) scale(1 1.0010526315789474)"><g id="Upper Body/Sitting/Pointing Up 2"><path id="hand-2" fill-rule="evenodd" clip-rule="evenodd" d="M639.548 295.147C639.548 295.147 642.042 289.628 644.163 285.845C646.962 280.851 644.724 275.058 639.174 282.689C637.676 284.748 608.594 317.062 601.508 323.039C548.121 368.065 484.123 420.149 469.213 427.209C448.353 437.087 412.6 442.544 394.461 458.65C385.654 466.47 419.532 531 419.532 531C419.532 531 475.134 505.65 492.887 494.532C514.978 480.696 580.932 398.879 619.232 346.718C627.746 335.125 643.73 333.304 649.416 316.858C652.916 306.736 639.548 295.147 639.548 295.147" fill="#ca8f67"/><path id="Fill 4" fill-rule="evenodd" clip-rule="evenodd" d="M264.228 422.572C264.228 422.572 261.118 445.79 263.586 450.399C264.79 452.646 273.085 460.676 304.524 465.018C308.024 468.712 291.294 505.802 284.765 511.96C278.236 518.119 257.274 521.403 217.404 489.792C177.535 458.179 183.289 458.589 183.289 458.589C183.289 458.589 205.631 458.105 210.828 449.968C212.65 447.115 214.668 403.542 210.255 390.393C205.841 377.244 264.228 422.572 264.228 422.572" fill="#ca8f67"/><path id="hand-1" fill-rule="evenodd" clip-rule="evenodd" d="M89.1032 526C89.1032 526 9.263 603.825 -10.6263 623.706C-25.7696 638.843 -103.582 713.378 -152.078 757.759C-167.279 771.67 -189.372 778.909 -204.581 787.224C-211.569 791.044 -236.882 804.41 -234.889 808.95C-233.164 812.876 -202.181 808.371 -193.637 811.805C-201.701 819.66 -200.134 827.055 -186.277 822.711C-167.135 816.711 -158.406 798.747 -142.957 788.056C-124.132 775.03 12.4159 704.398 48.7103 668.95C75.3347 642.944 139 607.235 139 607.235L89.1032 526Z" fill="#ca8f67"/><path id="Fill 8" fill-rule="evenodd" clip-rule="evenodd" d="M113.669 630.645C129.144 618.191 159.333 596.981 159.333 596.981C159.333 596.981 96.5414 773.559 109.501 794.107C113.02 799.686 143.515 777.579 188.286 770.699C261.871 759.391 345.02 752.571 337.075 729.397C314.438 663.372 334.967 570.036 334.967 570.036L423.34 539.028C433.526 520.057 444.015 441.644 430.789 437.045C427.297 435.83 329.952 459.76 329.952 459.76C329.952 459.76 291.077 457.136 288.683 458.426C286.29 459.715 280.714 494.976 272.903 496.614C251.084 501.192 183.708 455.107 183.708 455.107C183.708 455.107 150.636 460.394 132.66 475.923C120.337 486.569 35 571.113 35 571.113C35 571.113 98.1929 643.099 113.669 630.645Z" fill="#3615F6"/><path id="Fill 10" fill-rule="evenodd" clip-rule="evenodd" d="M159 597.771C160.753 594.263 173.792 582.04 181.778 575.391C188.399 569.876 191.547 568.195 181.901 578.491C178.416 581.637 161.538 600.263 159 597.771" fill="black"/><path id="Fill 12" fill-rule="evenodd" clip-rule="evenodd" d="M336.789 541.008C337.066 541.936 337.433 559.97 335.256 569.235C335.076 570 334.971 570.899 334.74 570.988C333.398 571.504 334.177 555.771 334.774 548.022C335.511 538.451 336.32 539.437 336.789 541.008" fill="black"/></g></g><g id="Head" transform="translate(341 346) scale(1 1)"><g id="Head/Short Dark"><path id="hair" fill-rule="evenodd" clip-rule="evenodd" d="M240.46 89.8187C240.46 89.8187 247.123 114.152 245.68 124.187C243.802 137.241 233.453 136.107 234.838 140.403C239.572 155.093 226.4 160.203 226.4 160.203C226.4 160.203 223.66 145.986 223.91 131.694C224.161 117.401 221.654 107.121 221.654 107.121L240.46 89.8187Z" fill="#090E2B"/><path id="face" fill-rule="evenodd" clip-rule="evenodd" d="M192.591 267.027C224.243 264.488 238.02 246.702 239.539 229.483C241.504 207.197 236.006 190.565 233.191 174.26C223.43 117.741 239.107 106.653 187.154 96.2284C159.934 90.7674 99.9897 97.9554 85.2797 132.766C79.5307 146.371 88.6707 170.319 90.2747 189.915C94.4537 240.979 154.101 270.115 192.591 267.027Z" fill="#ca8f67"/><path id="hair_2" fill-rule="evenodd" clip-rule="evenodd" d="M123.859 41.6834C86.5717 47.4364 78.1607 71.7324 76.2617 82.4054C75.4827 79.1624 74.9367 75.5634 76.4447 72.9134C76.9877 71.8554 75.3327 71.0214 74.8097 72.0874C72.6967 76.5784 72.7037 81.6154 73.8027 86.3604C69.7517 85.7334 65.5237 86.3634 61.9697 88.4944C61.1587 88.9754 61.9017 90.2394 62.7187 89.7804C65.1057 88.7554 67.7357 88.4754 70.3067 88.7714C65.6577 90.4604 58.9817 94.3084 54.3397 103.02C49.3437 112.397 47.7857 126.146 49.9527 136.984C54.0637 157.539 70.9267 165.455 68.4037 170.349C61.0697 184.572 69.3377 208.431 79.1347 218.428C92.9597 232.535 107.864 235.393 108.118 219.343C108.373 203.294 103.613 173.284 107.714 170.427C115.87 180.516 119.608 181.756 120.542 175.271C122.457 161.958 118.021 155.641 113.179 148.566C106.774 139.204 131.555 136.011 131.853 120.636C135.609 124.733 138.436 132.626 153.202 136.694C165.612 140.113 180.879 140.207 193.084 122.541C202.303 138.249 224.097 132.01 230.786 130.29C266.413 121.133 253.484 53.9264 211.314 60.7074C184.461 65.0254 158.986 36.2624 123.859 41.6834Z" fill="#090E2B"/><path id="ear" fill-rule="evenodd" clip-rule="evenodd" d="M113.767 179.492C109.26 169.727 100.831 161.487 86.4628 164.487C71.5988 167.592 69.7878 197.776 96.1848 208.696C104.335 212.067 107.242 210.432 109.479 208.211C114.731 202.994 115.788 183.872 113.767 179.492" fill="#ca8f67"/><path id="Fill 9" fill-rule="evenodd" clip-rule="evenodd" d="M89.6863 174.421C90.2853 174.498 90.8773 174.608 91.4613 174.755C92.6283 175.046 93.7633 175.465 94.8543 175.982C97.0273 177.031 99.0233 178.521 100.58 180.373C101.012 180.798 101.328 181.318 101.69 181.798C102.046 182.282 102.389 182.772 102.654 183.311C102.937 183.835 103.231 184.353 103.492 184.884L104.121 186.535L104.426 187.359L104.628 188.21C104.762 188.775 104.896 189.339 105.011 189.903C105.183 191.042 105.272 192.186 105.356 193.312C105.385 193.71 105.087 194.056 104.69 194.085C104.36 194.109 104.066 193.908 103.958 193.611L103.925 193.519C103.555 192.492 103.3 191.455 102.928 190.463C102.71 189.978 102.51 189.492 102.311 189.009L102.012 188.286L101.635 187.605L100.901 186.25L100.03 184.997C99.7643 184.565 99.4293 184.188 99.0893 183.819C98.7413 183.458 98.4683 183.032 98.0753 182.719C96.6743 181.3 94.9983 180.211 93.2293 179.316C92.7863 179.092 92.3253 178.904 91.8723 178.693C91.4063 178.52 90.9433 178.326 90.4703 178.165C89.5473 177.833 88.5013 177.566 87.6533 177.376L87.4813 177.338C86.6493 177.151 86.1263 176.326 86.3133 175.495C86.4733 174.782 87.1043 174.296 87.8043 174.29C88.5143 174.284 89.0753 174.332 89.6863 174.421Z" fill="#090E2B"/><path id="Fill 11" fill-rule="evenodd" clip-rule="evenodd" d="M99.0444 183.838C98.9554 183.809 98.7864 183.793 98.6424 183.768C98.3094 183.75 97.9564 183.738 97.5884 183.793C96.8584 183.879 96.1274 184.103 95.4524 184.429C94.7724 184.745 94.1524 185.191 93.5984 185.705C93.0254 186.198 92.5624 186.83 92.1124 187.455L92.0494 187.542C91.3584 188.504 90.0174 188.722 89.0564 188.03C88.0944 187.338 87.8764 185.998 88.5684 185.036C88.6164 184.969 88.6774 184.895 88.7324 184.835C89.4764 184.029 90.2534 183.245 91.1864 182.621C92.0954 181.983 93.0964 181.454 94.1664 181.116C95.2324 180.769 96.3474 180.583 97.4834 180.602C98.0484 180.602 98.6304 180.685 99.2184 180.812C99.5264 180.903 99.8174 180.976 100.156 181.138C100.467 181.29 100.884 181.463 101.349 182.078C101.786 182.726 101.616 183.605 100.969 184.043C100.322 184.48 99.4424 184.311 99.0044 183.664C99.1614 183.927 99.1724 183.846 99.0444 183.838Z" fill="#090E2B"/><path id="Fill 13" fill-rule="evenodd" clip-rule="evenodd" d="M145.053 259.708C141.498 257.838 132.491 252.752 130.524 250.367C129.498 249.124 130.99 250.378 132.717 251.372C135.015 252.696 144.119 257.846 155.462 261.559C156.446 261.881 162.723 263.646 162.913 263.964C163.09 264.261 162.56 264.88 161.843 264.873C157.02 264.83 149.413 262.001 145.053 259.708Z" fill="#090E2B"/></g></g><g id="Expressions" transform="translate(462 479) scale(1 1)"><g id="Expressions/Closed Eyes"><path id="Fill 1" fill-rule="evenodd" clip-rule="evenodd" d="M25.292 30.6424C24.5144 22.5014 45.8786 12.6176 57.5703 15.3178C61.6052 16.2286 69.6798 19.7087 65.0955 24.5209C63.8347 25.6371 62.1952 25.4454 60.7353 25.0586C44.3929 20.1252 25.8341 36.3174 25.292 30.6424Z" fill="#090E2B"/><path id="Fill 4" fill-rule="evenodd" clip-rule="evenodd" d="M104.848 17.9708C107.995 19.8562 111.825 25.3016 108.136 24.8486C104.446 24.3957 96.5843 22.368 90.9561 23.9207C89.0265 24.1693 87.4942 24.9105 85.5879 24.9032C81.2098 25.2109 79.5154 19.8044 82.9188 17.0795C86.7637 14.0011 98.4976 13.7585 104.848 17.9708Z" fill="#090E2B"/><path id="nose" fill-rule="evenodd" clip-rule="evenodd" d="M85.9881 71.3386C85.0132 76.2575 78.9691 76.736 75.0324 75.6213C71.8326 74.7153 71.0036 72.8513 72.0854 72.2538C73.8487 71.2799 79.4998 73.989 81.5859 71.4028C85.3057 66.7913 73.8916 49.8346 77.5178 52.5592C82.3103 56.16 86.6387 68.0559 85.9881 71.3386Z" fill="#090E2B"/><path id="Fill 18" fill-rule="evenodd" clip-rule="evenodd" d="M94.2575 87.9595C93.5541 88.615 92.0104 91.1766 90.3557 92.8741C86.6342 96.6921 80.0827 98.1683 76.0922 97.8001C68.5903 97.1078 64.9077 92.6495 62.8276 91.5412C60.7475 90.4329 64.2165 88.3643 67.032 88.3186C69.8476 88.2729 71.8049 88.8859 77.3694 90.6168C80.9603 91.7338 88.5105 88.8418 90.5676 87.2987C94.4916 84.3552 95.9723 86.3613 94.2575 87.9595Z" fill="#090E2B"/><path id="Fill 5" fill-rule="evenodd" clip-rule="evenodd" d="M62.9347 45.1127C63.5537 52.7587 53.9287 57.6257 45.7637 53.8057C41.5577 51.8397 39.4147 48.8787 40.4397 47.6417C41.0957 46.8497 42.9667 47.9757 43.5897 48.3457C51.8657 53.2667 58.4217 48.8247 60.4227 44.4177C61.2047 42.6977 62.7357 42.6557 62.9347 45.1127" fill="#090E2B"/><path id="Fill 7" fill-rule="evenodd" clip-rule="evenodd" d="M105.17 42.8109C104.522 45.9149 103.316 47.4849 101.796 48.5889C97.3651 51.8059 90.1361 48.5859 88.7541 45.6209C87.7201 43.4039 89.1611 43.3499 90.8491 44.4009C93.5261 46.0709 96.0731 46.4129 97.7581 46.0939C100.996 45.4829 102.535 42.2249 103.701 40.8829C104.335 40.1539 105.675 40.3949 105.17 42.8109" fill="#090E2B"/></g></g><g id="Facial Accesories" transform="translate(459 529) scale(120 110)"><g id="Facial Accesories/None" stroke="none" stroke-width="1" fill="none" fill-rule="evenodd" fill-opacity="0"/></g><g id="Glass" transform="translate(462 484) scale(120 75)"><g id="Glass/None" stroke="none" stroke-width="1" fill="none" fill-rule="evenodd" fill-opacity="0"/></g></g></g><g id="Master/Character/Sitting [colors]" transform="matrix(-1 0 0 1 1973 563) scale(1 1)"><g id="Master/Character/Sitting [colors]"><g id="Lower Body/Sitting" transform="translate(179 940) scale(1 1)"><g id="Lower Body/Sitting/On Chair 1"><path id="Fill 3" fill-rule="evenodd" clip-rule="evenodd" d="M410.615 399.5C410.615 399.5 400.358 471.95 396.172 502.906C391.95 534.126 467.049 503.737 467.049 503.737C467.049 503.737 453.51 484.443 453.305 479.158C453.101 473.871 476.219 412 476.219 412L410.615 399.5Z" fill="#757eff"/><path id="Fill 5" fill-rule="evenodd" clip-rule="evenodd" d="M561.036 0C597.898 16.8477 635.154 59.3885 602.589 139.129C570.025 218.869 493.394 411.872 481.35 420.555C469.306 429.239 405.785 412 405.785 412C405.785 412 412.733 330.944 426.535 251.243C436.642 192.88 457.953 150.326 457.953 150.326C457.953 150.326 286.541 174.784 243.983 146.076C188.125 108.397 229.481 6.86054 261.586 -5.71064C302.859 -21.8714 490.855 -32.0758 561.036 0Z" fill="#090E2B"/><path id="Fill 17" fill-rule="evenodd" clip-rule="evenodd" d="M559.105 537.55C553.719 520.869 514.662 509.853 486.46 501.514C476.967 498.706 463.703 484.835 457.546 485.001C448.582 485.245 457.367 503.898 427.363 502.274C419.419 501.845 418.852 493.484 401.592 491.581C398.787 491.273 394.499 490.728 390.796 497.394C388.732 501.111 380.282 534.664 388.578 548.345C446.664 549.846 506.413 548.363 558.02 547.882C563.06 547.834 560.482 541.819 559.105 537.55" fill="#FF0057"/><path id="Fill 1" fill-rule="evenodd" clip-rule="evenodd" d="M654.971 412C654.971 412 665.531 466.51 672.596 475.378C679.663 484.243 716.329 494.221 717.975 499.698C719.619 505.175 639.821 518 639.821 518L591 416.698L654.971 412Z" fill="#757eff"/><path id="Fill 10" fill-rule="evenodd" clip-rule="evenodd" d="M790.105 534.55C784.719 517.87 745.662 506.853 717.46 498.513C707.967 495.706 694.703 481.834 688.546 482.001C679.582 482.244 688.367 500.898 658.363 499.274C650.42 498.845 649.853 490.483 632.592 488.581C629.787 488.272 625.499 487.728 621.796 494.393C619.732 498.11 611.282 531.663 619.578 545.346C677.664 546.846 737.413 545.362 789.02 544.881C794.06 544.833 791.482 538.818 790.105 534.55" fill="#FF0057"/><path id="Fill 15" fill-rule="evenodd" clip-rule="evenodd" d="M722.705 510.43C726.392 503.004 728.005 501.713 726.433 500.544C722.673 497.748 703.571 506.385 702.07 511.523C700.945 515.374 713.664 504.229 723.821 502.566C719.659 506.366 715.779 518.02 719.874 515.696C739.827 504.382 742.974 507.006 742.999 506.586C743.117 504.585 735.566 502.967 722.705 510.43" fill="#FFB201"/><path id="Fill 7" fill-rule="evenodd" clip-rule="evenodd" d="M180.128 77C192.092 138.955 247.292 161.212 295.191 159.362C368.357 156.536 442.941 124.042 468.153 113.183C465.932 129.164 477.806 220.025 497.63 262.074C517.453 304.124 582.01 430.62 582.01 430.62C582.01 430.62 654.852 431.05 657.967 413.369C660.016 401.738 591.632 76.8495 569.01 20.5962C556.02 -11.7083 513.977 -25.6487 427.502 -33C340.648 -40.3834 214.032 -26.7716 214.032 -26.7716C214.032 -26.7716 168.163 15.0448 180.128 77Z" fill="#001386"/><path id="Fill 22" fill-rule="evenodd" clip-rule="evenodd" d="M491.705 514.43C495.392 507.005 497.005 505.714 495.432 504.544C491.672 501.749 472.571 510.385 471.07 515.522C469.945 519.373 482.664 508.228 492.821 506.566C488.659 510.367 484.778 522.019 488.874 519.697C508.827 508.381 511.974 511.006 511.999 510.585C512.117 508.585 504.566 506.966 491.705 514.43" fill="#FFB201"/><path id="Fill 19" fill-rule="evenodd" clip-rule="evenodd" d="M546.831 554.391L407.016 556.857C397.662 557.231 383.67 554.014 382.317 546.243C381.306 540.437 383.554 527.795 384.02 526.954C387.277 521.094 415.032 526.038 423.117 545.827C474.131 549.649 561.008 545.912 561.008 545.912C561.008 545.912 562.312 553.593 546.831 554.391" fill="#090E2B"/><path id="Fill 12" fill-rule="evenodd" clip-rule="evenodd" d="M777.721 550.785L637.906 553.251C628.553 553.625 614.56 550.409 613.207 542.638C612.197 536.832 614.444 524.19 614.911 523.349C618.167 517.489 645.922 522.433 654.007 542.222C705.021 546.044 791.899 542.307 791.899 542.307C791.899 542.307 793.202 549.988 777.721 550.785" fill="#090E2B"/></g></g><g id="Upper Body/Sitting" transform="translate(243 170) scale(1 1.0010526315789474)"><g id="Upper Body/Sitting/Reading Book 2"><path id="Fill 1" fill-rule="evenodd" clip-rule="evenodd" d="M459 586.835C459 586.835 477.747 576.826 489.004 569.662C514.007 553.749 524.308 546.821 526.267 533.245C529.139 513.38 537.723 513.255 544.722 513.255C548.822 513.255 558.433 509.137 561.715 515.821C561.558 521.017 562.966 534.246 560.668 536.609C557.117 540.26 526.505 581.162 500.906 610.395C484.809 628.777 468.591 639 468.591 639L459 586.835Z" fill="#757eff"/><path id="Fill 3" fill-rule="evenodd" clip-rule="evenodd" d="M366.211 542.747C371.032 593.151 385.462 610.403 387.46 618.356C387.46 618.356 449.072 584.537 475.967 572.798C486.738 611.411 492.253 675.202 493 678.947C486.274 687.188 369.516 724.697 356.83 721.846C352.718 720.921 330.896 722.637 324.729 691.158C311.553 623.897 315.774 503.983 333.203 480C333.203 480 361.391 492.343 366.211 542.747Z" fill="#3615F6"/><path id="Fill 5" fill-rule="evenodd" clip-rule="evenodd" d="M510.97 377.282L454 521.593L540.179 528L595 392.763L565.218 348L553.789 384.438L510.97 377.282Z" fill="#090E2B"/><path id="Fill 8" fill-rule="evenodd" clip-rule="evenodd" d="M208.79 448.407C205.996 461.317 156 471.803 156 471.803C156 471.803 252.987 531.328 269.715 527.854C300.561 521.448 315.341 490.274 321 475.481C304.183 471.025 285.38 464.806 274.396 459.875C263.412 454.944 268.562 418.737 267.89 400.337C245.136 395.831 213.128 387 213.128 387C213.128 387 211.584 435.496 208.79 448.407Z" fill="#757eff"/><path id="Fill 10" fill-rule="evenodd" clip-rule="evenodd" d="M181.313 464C181.313 464 237.839 505.314 266.697 505.992C280.837 506.324 296.733 477.514 299.529 467.33C314.882 472.441 329.686 478.287 337.082 483.047C342.982 507.574 348.969 563.684 347.868 586.969C346.814 609.287 332.147 652.367 333.15 671.17C333.831 683.959 334.198 700.833 337.78 735.307C338.481 742.053 327.187 767.63 225 767.63C147.189 767.63 124.667 813.744 102.066 803.521C100.041 784.647 145.485 719.853 146.653 701.681C147.82 683.508 140.963 650.47 138.506 625.831C136.051 601.194 117.207 498.743 121.295 487.954C125.383 477.166 181.313 464 181.313 464Z" fill="#3615F6"/><path id="Fill 12" fill-rule="evenodd" clip-rule="evenodd" d="M175.618 899.32C181.882 905.36 184.925 908.522 187.253 914.186C190.483 922.042 191.504 931.883 192.387 934.727C195.669 945.306 184.841 938.985 182.011 931.782C176.441 944.988 185.33 971.384 176.441 968.827C150 961.219 152.726 941.884 150.455 910.933C149.659 900.08 114.564 866.761 109.173 856.524C106.309 851.082 139.842 817.789 145.596 825.024C151.348 832.259 164.153 888.261 175.618 899.32Z" fill="#757eff"/><path id="Fill 15" fill-rule="evenodd" clip-rule="evenodd" d="M140.305 476C140.305 476 99.4531 487.046 88.5149 532.694C77.5767 578.341 25.9818 673.819 20.595 707.48C12.0348 760.963 24.5346 814.963 59.8566 907C73.8508 896.87 145.806 838.849 149.973 823.092C133.448 792.882 115.756 738.588 117.974 712.33C120.191 686.071 163.118 632.608 165.604 600.99C169.19 555.359 140.305 476 140.305 476Z" fill="#3615F6"/><path id="Fill 17" fill-rule="evenodd" clip-rule="evenodd" d="M538.848 508.083C546.835 522.301 537.403 521.61 535.367 529.294C531.372 544.354 561.348 532.698 561.348 532.698C561.348 532.698 562.367 521.611 561.857 517.213C560.861 508.618 557.742 498.267 549.454 493.233C546.362 491.355 534.999 501.231 538.848 508.083" fill="#757eff"/><path id="Fill 19" fill-rule="evenodd" clip-rule="evenodd" d="M373.721 642.745C373.322 643.718 370.094 651.113 369.01 652.99C368.651 653.612 377.84 626.346 386.831 618.082C387.234 617.714 386.822 618.671 386.559 619.173C382.602 626.719 377.072 634.566 373.721 642.745Z" fill="#090E2B"/><path id="Fill 21" fill-rule="evenodd" clip-rule="evenodd" d="M333.7 653.075C335.444 640.668 339.084 628.614 341.483 616.399C345.26 596.044 344.134 574.374 339 555.113C338.937 554.888 338.261 552.059 338.451 552.002C338.641 551.945 339.698 554.658 339.762 554.91C351.841 595.672 344.067 614.726 335.865 653.421C334.061 666.802 333.883 683.712 334.783 700.528C335.034 705.222 335.107 710.35 335.557 712.754C335.697 713.502 335.727 713.881 335.656 713.979C335.473 714.232 334.661 712.233 333.7 705.459C331.462 689.686 331.405 668.458 333.7 653.075Z" fill="#090E2B"/><path id="Fill 23" fill-rule="evenodd" clip-rule="evenodd" d="M166.035 557.922C172.615 592.82 162.18 628.247 142.079 656.934C141.873 657.237 142.11 656.413 142.325 656.063C157.693 630.152 167.002 601.607 165.512 571.031C165.303 566.722 164.886 560.52 164.404 556.258C164.28 555.369 165.899 556.989 166.035 557.922" fill="#090E2B"/><path id="Fill 25" fill-rule="evenodd" clip-rule="evenodd" d="M138.871 800.493C139.917 803.568 134.376 792.007 131.079 783.18C128.154 773.278 123.615 761.392 123 752C128.857 767.664 133.46 784.588 138.871 800.493Z" fill="#090E2B"/><path id="Fill 27" fill-rule="evenodd" clip-rule="evenodd" d="M534.71 536.51C532.455 529.677 535.929 525.431 540.109 521.812C540.587 521.4 541.506 520.483 541.947 520.025C542.126 519.839 541.813 520.735 541.602 521.126C539.867 524.325 536.277 526.327 535.234 531.94C535.074 532.795 535.439 538.718 534.71 536.51" fill="#090E2B"/><path id="Fill 29" fill-rule="evenodd" clip-rule="evenodd" d="M543.342 354L530 380.508L587.323 390L588 389.103L543.342 354Z" fill="#FFB201"/></g></g><g id="Head" transform="translate(341 346) scale(1 1)"><g id="Head/Ponytail Blue"><path id="Combined Shape" fill-rule="evenodd" clip-rule="evenodd" d="M229.121 243.28C221.151 261.083 203.032 276.491 190.894 276.491C159.515 276.491 114.599 224.968 114.599 224.968C111.679 222.114 109.231 218.09 107.213 213.593C99.2307 214.61 84.2893 210.476 79.7281 197.758C76.4331 188.57 78.6431 175.661 85.5011 173.735C91.6126 172.016 96.5048 174.281 100.299 177.502C107.539 158.524 158.931 66.3727 186.996 62.8355C205.836 60.4623 205.754 67.8978 205.659 76.4936C205.601 81.6939 205.538 87.3189 209.658 91.4535C211.634 93.437 213.825 95.1013 216.084 96.818C225.908 104.282 237.037 112.737 237.507 152.723C237.576 158.574 238.32 164.337 239.099 170.372C241.471 188.756 244.17 209.666 229.121 243.28Z" fill="#757eff"/><path id="Fill 10" fill-rule="evenodd" clip-rule="evenodd" d="M102.498 192.494C99.6248 186.726 92.7038 183.152 86.7258 187.188C85.3728 188.101 87.2408 188.141 87.8108 188.078C94.9128 187.149 97.6878 189.673 100.021 193.711C97.7898 194.258 95.5608 196.243 95.2748 198.485C95.1018 199.861 95.8058 204.266 96.2728 202.674C96.5258 201.81 95.9118 195.527 101.201 196.08C101.281 196.098 103.13 199.285 103.65 199.515C104.539 199.908 103.81 195.131 102.498 192.494" fill="#090E2B"/><path id="Fill 12" fill-rule="evenodd" clip-rule="evenodd" d="M138.08 248.002C138.793 248.108 144.27 252.072 145.939 253.386C152.268 258.363 157.596 262.085 165.385 267.257C166.885 268.253 170.414 270.174 170.322 270.65C170.189 271.322 165.46 270.219 164.07 269.515C155.809 265.328 147.738 257.416 141.986 252.274C140.105 250.593 137.509 247.917 138.08 248.002Z" fill="#090E2B"/><path id="Fill 3" fill-rule="evenodd" clip-rule="evenodd" d="M150.644 159.429C163.985 146.458 179.262 130.034 179.262 124.313C176.551 140.205 176.447 144.561 170.556 158.079C179.521 154.171 199.725 124.313 201.335 106.378C213.965 132.78 228.479 120.307 237.144 152.928C246.632 140.849 240.439 89.8279 220.334 70.9229C211.618 62.7269 205.104 63.8029 201.335 64.9799C195.935 37.9445 157.375 41.3367 147.927 45.1285C149.283 21.6085 130.467 -22.9851 111.491 -23.6201C92.5157 -24.2561 52.2557 -29.6931 26.6027 33.8829C16.2297 59.5889 16.2567 72.5719 39.1067 138.355C48.9487 166.694 7.88172 175.944 11.1897 178.958C18.8537 185.938 59.6717 185.044 65.5087 154.381C71.4847 122.984 70.1317 121.373 71.5847 111.854C70.3137 128.921 72.1272 151.126 90.3732 171.901C97.2232 177.556 100.615 174.055 110.034 188.145C111.843 190.85 117.602 205.724 119.838 200.829C122.532 194.93 115.593 174.709 117.461 174.533C124.238 173.897 140.348 169.439 150.644 159.429Z" fill="#001386"/><path id="Fill 6" fill-rule="evenodd" clip-rule="evenodd" d="M122.037 49.6343C130.508 45.6674 140.94 43.663 147.927 45.1286C151.018 37.6226 147.891 35.6536 147.891 35.6536C147.891 35.6536 140.519 28.6146 126.102 34.7966C111.684 40.9786 106.435 52.0961 106.661 54.6088C106.812 56.2789 107.625 57.5815 109.917 57.7576C109.917 57.7576 115.598 52.6493 122.037 49.6343Z" fill="#FF00A4"/></g></g><g id="Expressions" transform="translate(462 479) scale(1 1)"><g id="Expressions/Relaxed"><path id="Fill 1" fill-rule="evenodd" clip-rule="evenodd" d="M93.917 85.9778C78.288 85.3498 67.34 84.9098 56.819 84.4878C53.549 84.3558 50.673 90.0738 56.294 97.5688C64.259 108.189 84.891 111.876 93.281 99.0538C97.555 92.5238 97.31 86.1148 93.917 85.9778" fill="white"/><path id="nose" fill-rule="evenodd" clip-rule="evenodd" d="M82.7871 55.7084C86.8281 59.4834 96.9611 74.6464 87.8281 76.8394C85.9421 77.2914 77.3211 77.5114 78.5921 75.6374C79.6051 74.1434 85.9771 75.0244 86.8981 72.1854C88.1081 68.4554 83.7121 61.1524 80.9721 56.1434C80.5011 55.2804 82.1521 54.9674 82.7871 55.7084" fill="#090E2B"/><path id="eye" fill-rule="evenodd" clip-rule="evenodd" d="M101.14 49.4726C102.716 48.4496 104.002 46.9449 104.812 43.8791C105.442 41.4928 104.117 41.182 103.446 41.8768C103.179 42.1534 102.89 42.5185 102.567 42.9254C101.4 44.4003 99.7974 46.4242 97.2379 46.7697C95.5386 47 93.0129 46.5252 90.427 44.7174C88.7963 43.5795 87.3545 43.558 88.271 45.8261C89.496 48.8593 96.5465 52.4533 101.14 49.4726ZM45.7528 54.7979C53.7067 59.04 63.5732 54.6834 63.3552 47.0155C63.2851 44.5515 61.754 44.5133 60.8831 46.19C58.6542 50.4862 51.8747 54.579 43.8676 49.2316C43.8604 49.2268 43.853 49.2219 43.8454 49.2169C43.2217 48.8006 41.4469 47.6162 40.7587 48.3637C39.6704 49.5454 41.6555 52.6145 45.7528 54.7979Z" fill="#090E2B"/><path id="eybrow" fill-rule="evenodd" clip-rule="evenodd" d="M106.892 19.0603C97.9002 11.4322 82.9075 17.8364 81.4786 26.4153C80.9228 29.7588 84.7289 30.4299 86.5262 28.5224C93.1586 21.4848 101.912 23.1875 105.337 23.8539C106.047 23.9919 106.528 24.0854 106.714 24.0478C109.751 23.4369 108.668 20.5673 106.892 19.0603ZM27.9799 30.9433C38.6859 22.6052 49.269 24.8492 60.7363 31.6406C64.9372 32.9563 65.9182 27.4971 62.7947 24.082C55.9812 16.6332 41.7869 15.2534 31.6092 20.0844C28.5028 21.5578 24.6711 25.6739 23.7097 27.9688C22.3602 31.1906 24.1328 33.9401 27.9799 30.9433Z" fill="#090E2B"/></g></g><g id="Facial Accesories" transform="translate(459 529) scale(120 110)"><g id="Facial Accesories/None" stroke="none" stroke-width="1" fill="none" fill-rule="evenodd" fill-opacity="0"/></g><g id="Glass" transform="translate(462 484) scale(120 75)"><g id="Glass/None" stroke="none" stroke-width="1" fill="none" fill-rule="evenodd" fill-opacity="0"/></g></g></g></g></svg>