<svg viewBox="-40 120 3279.9999999999995 1800.0000000000002" fill="none" xmlns="http://www.w3.org/2000/svg" xmlns:xlink="http://www.w3.org/1999/xlink" overflow="visible" width="3279.9999999999995px" height="1800.0000000000002px"><g id="Master/Background/Exploring on Laptop"><g id="Outdoor Plants" transform="translate(2445 908) scale(1 1)"><g id="Outdoor Plants/Trees"><g id="Group"><path id="Fill 1" fill-rule="evenodd" clip-rule="evenodd" d="M296.328 734.554C252.725 675.694 316.996 661.47 287.177 606.041C251.046 538.878 302.889 552.365 280.559 484.778C262.89 431.298 232.034 428.995 229.287 352.771C226.543 276.546 89.2583 272.252 118.925 378.777C148.596 485.302 72.2673 459.072 85.6974 536.467C103.649 639.915 31.6143 598.48 54.5598 678.098C74.0793 745.828 -9.15521 859.363 188.705 886C364.798 876.999 339.935 793.418 296.328 734.554Z" fill="#009BA0"/><path id="Stroke 5 (Stroke)" fill-rule="evenodd" clip-rule="evenodd" d="M148.557 612.111C151.011 611.561 153.446 613.104 153.997 615.557L149.554 616.554C153.997 615.557 153.997 615.556 153.996 615.554L153.996 615.552L153.995 615.549C153.995 615.549 153.995 615.55 153.996 615.553L154.006 615.595C154.016 615.639 154.034 615.712 154.06 615.816C154.112 616.023 154.197 616.348 154.319 616.783C154.563 617.654 154.957 618.967 155.539 620.661C156.704 624.05 158.621 628.961 161.602 634.914C167.562 646.817 177.772 662.883 194.72 679.282C196.528 681.031 196.575 683.913 194.826 685.72C193.078 687.528 190.195 687.575 188.388 685.826C170.607 668.621 159.816 651.687 153.459 638.991C150.281 632.644 148.211 627.357 146.927 623.621C146.285 621.753 145.839 620.272 145.55 619.24C145.406 618.725 145.3 618.321 145.229 618.037C145.193 617.895 145.166 617.783 145.146 617.701C145.137 617.661 145.129 617.628 145.123 617.603L145.116 617.571L145.113 617.56L145.112 617.555C145.112 617.553 145.111 617.551 149.554 616.554L145.111 617.551C144.561 615.098 146.104 612.662 148.557 612.111Z" fill="#090E2B"/><path id="Stroke 7 (Stroke)" fill-rule="evenodd" clip-rule="evenodd" d="M115.858 740.329C118.186 739.395 120.829 740.519 121.773 742.84L121.783 742.865C121.797 742.898 121.824 742.961 121.866 743.053C121.949 743.237 122.089 743.538 122.295 743.949C122.707 744.771 123.382 746.031 124.39 747.671C126.406 750.95 129.757 755.753 134.998 761.603C145.476 773.299 163.553 789.231 193.721 805.55C195.933 806.746 196.756 809.509 195.559 811.721C194.363 813.933 191.6 814.756 189.388 813.559C158.363 796.777 139.44 780.209 128.216 767.68C122.606 761.418 118.93 756.177 116.633 752.441C115.485 750.573 114.681 749.083 114.154 748.03C113.89 747.504 113.695 747.088 113.561 746.789C113.494 746.639 113.441 746.519 113.403 746.429C113.384 746.384 113.368 746.347 113.356 746.317L113.34 746.278L113.334 746.263L113.331 746.257C113.33 746.254 113.329 746.251 117.554 744.554L113.329 746.251C112.392 743.917 113.524 741.266 115.858 740.329Z" fill="#090E2B"/><path id="Stroke 9 (Stroke)" fill-rule="evenodd" clip-rule="evenodd" d="M254.261 664.056C256.745 664.446 258.442 666.777 258.052 669.261L253.554 668.554C258.052 669.261 258.051 669.263 258.051 669.265L258.048 669.286L258.041 669.331C258.035 669.366 258.027 669.414 258.016 669.474C257.996 669.594 257.966 669.762 257.926 669.976C257.845 670.405 257.723 671.018 257.55 671.8C257.204 673.365 256.653 675.606 255.823 678.396C254.162 683.974 251.38 691.758 246.866 700.717C237.835 718.645 221.866 741.286 194.129 760.309C192.055 761.731 189.221 761.203 187.799 759.129C186.376 757.055 186.905 754.221 188.978 752.799C215.231 734.794 230.263 713.435 238.734 696.62C242.972 688.207 245.566 680.934 247.094 675.798C247.859 673.231 248.356 671.2 248.658 669.833C248.81 669.149 248.912 668.631 248.976 668.295C249.007 668.126 249.029 668.004 249.042 667.929C249.048 667.891 249.053 667.865 249.055 667.851L249.056 667.847C249.056 667.846 249.056 667.845 249.056 667.844C249.056 667.843 249.056 667.842 249.057 667.841C249.057 667.841 249.056 667.842 249.057 667.841C249.45 665.361 251.779 663.666 254.261 664.056Z" fill="#090E2B"/><path id="Fill 11" fill-rule="evenodd" clip-rule="evenodd" d="M658.603 500.48C620.591 406.998 676.937 341.014 599.628 163.94C522.318 -13.1342 417.027 -13.759 401.056 134.785C385.09 283.329 260.937 377.641 318.195 511.721C374.468 643.494 257.89 674.352 295.711 772.062C343.787 896.263 502.913 901 502.913 901C676.2 901 704.358 843.787 717.883 794.077C753.355 663.7 675.009 540.826 658.603 500.48Z" fill="#FFB201"/><path id="Stroke 15 (Stroke)" fill-rule="evenodd" clip-rule="evenodd" d="M590.434 341.087C592.901 341.573 594.507 343.967 594.021 346.434L589.553 345.554C594.021 346.434 594.02 346.436 594.02 346.438L594.019 346.444L594.016 346.46L594.005 346.511C593.997 346.554 593.984 346.614 593.968 346.691C593.936 346.845 593.889 347.066 593.826 347.353C593.699 347.927 593.507 348.763 593.241 349.844C592.709 352.006 591.88 355.151 590.675 359.143C588.267 367.126 584.359 378.503 578.339 392.199C566.299 419.588 545.799 456.273 511.926 493.613C510.236 495.476 507.357 495.616 505.494 493.927C503.632 492.237 503.491 489.357 505.181 487.495C538.286 451.001 558.286 415.186 570.002 388.534C575.859 375.209 579.643 364.18 581.957 356.512C583.113 352.679 583.902 349.686 584.399 347.668C584.647 346.66 584.822 345.895 584.933 345.39C584.989 345.138 585.029 344.95 585.054 344.83C585.066 344.77 585.075 344.727 585.08 344.701L585.086 344.675L585.086 344.674C585.086 344.673 585.086 344.672 585.086 344.672M590.434 341.087C587.967 340.601 585.574 342.206 585.086 344.672Z" fill="#090E2B"/><path id="Stroke 17 (Stroke)" fill-rule="evenodd" clip-rule="evenodd" d="M615.7 638.148C618.134 638.781 619.593 641.267 618.96 643.701L614.553 642.554C618.96 643.701 618.959 643.703 618.959 643.706L618.957 643.712L618.952 643.73L618.938 643.784C618.926 643.829 618.909 643.892 618.887 643.971C618.844 644.129 618.78 644.355 618.695 644.646C618.525 645.229 618.269 646.074 617.915 647.164C617.207 649.344 616.104 652.505 614.507 656.514C611.312 664.53 606.137 675.936 598.171 689.654C582.237 717.095 555.152 753.766 510.471 791.05C508.54 792.662 505.669 792.402 504.057 790.472C502.446 788.541 502.705 785.669 504.636 784.058C548.435 747.511 574.851 711.681 590.296 685.081C598.021 671.778 603.005 660.777 606.048 653.142C607.569 649.325 608.604 646.35 609.254 644.349C609.579 643.349 609.808 642.593 609.953 642.097C610.025 641.849 610.076 641.666 610.108 641.551C610.124 641.493 610.135 641.452 610.141 641.428L610.147 641.408L610.148 641.405L610.148 641.405C610.782 638.973 613.267 637.515 615.7 638.148Z" fill="#090E2B"/><path id="Stroke 19 (Stroke)" fill-rule="evenodd" clip-rule="evenodd" d="M424.065 495.938C424.065 495.939 424.065 495.94 424.066 495.94L424.066 495.942L424.07 495.973C424.075 496.005 424.082 496.056 424.093 496.127C424.114 496.27 424.148 496.491 424.196 496.788C424.293 497.382 424.447 498.279 424.671 499.452C425.121 501.798 425.852 505.248 426.971 509.593C429.209 518.285 432.995 530.543 439.165 544.7C451.508 573.019 473.354 608.846 511.382 638.985C513.353 640.547 513.684 643.411 512.122 645.382C510.56 647.353 507.696 647.684 505.726 646.122C466.252 614.836 443.598 577.663 430.817 548.338C424.425 533.673 420.491 520.948 418.152 511.864C416.982 507.32 416.21 503.683 415.727 501.164C415.486 499.905 415.317 498.924 415.208 498.249C415.153 497.912 415.113 497.651 415.086 497.469C415.072 497.379 415.062 497.308 415.055 497.257L415.046 497.197L415.044 497.178L415.043 497.172C415.042 497.169 415.042 497.167 419.554 496.554L415.042 497.167C414.703 494.675 416.449 492.381 418.94 492.042C421.431 491.703 423.725 493.447 424.065 495.937L424.065 495.938Z" fill="#090E2B"/><path id="Stroke 3 (Stroke)" fill-rule="evenodd" clip-rule="evenodd" d="M188.553 538C191.068 538 193.107 540.039 193.107 542.553V969.553C193.107 972.068 191.068 974.107 188.553 974.107C186.039 974.107 184 972.068 184 969.553V542.553C184 540.039 186.039 538 188.553 538Z" fill="#090E2B"/><path id="Stroke 13 (Stroke)" fill-rule="evenodd" clip-rule="evenodd" d="M505.553 253C508.068 253 510.107 255.039 510.107 257.553V963.553C510.107 966.068 508.068 968.107 505.553 968.107C503.039 968.107 501 966.068 501 963.553V257.553C501 255.039 503.039 253 505.553 253Z" fill="#090E2B"/></g></g></g><g id="Screen" transform="translate(479 528) scale(1 1)"><g id="Screen/Laptop 1"><g id="Group"><path id="Fill 1" fill-rule="evenodd" clip-rule="evenodd" d="M2021.4 1329.31H156.899C116.669 1329.31 84.0586 1296.7 84.0586 1256.47V72.835C84.0586 32.61 116.669 0 156.899 0H2021.4C2061.63 0 2094.23 32.61 2094.23 72.835V1256.47C2094.23 1296.7 2061.63 1329.31 2021.4 1329.31" fill="#008BF2"/><path id="Fill 4" fill-rule="evenodd" clip-rule="evenodd" d="M2088.89 1347.31H88.985C39.84 1347.31 0 1307.46 0 1258.32V1230.99H2177.88V1258.32C2177.88 1307.46 2138.03 1347.31 2088.89 1347.31" fill="#276DFF"/><path id="Fill 7" fill-rule="evenodd" clip-rule="evenodd" d="M138.016 1175.4H2034.66V52.812H138.016V1175.4Z" fill="white"/><path id="Fill 9" fill-rule="evenodd" clip-rule="evenodd" d="M890.988 1230.99L918.013 1273.98H1298.29L1323.39 1230.99H890.988Z" fill="#090E2B"/><g id="Group 3"><g id="Face"><path id="Mask" fill-rule="evenodd" clip-rule="evenodd" d="M651.163 846.688C651.163 746.348 569.818 665.003 469.478 665.003C369.138 665.003 287.793 746.348 287.793 846.688C287.793 947.022 369.138 1028.37 469.478 1028.37C569.818 1028.37 651.163 947.022 651.163 846.688" fill="#FFDFEA"/><mask id="mask0_301_17252526ed80e-cc02-4cdc-afe1-7544290ed9c8" style="mask-type:alpha" maskUnits="userSpaceOnUse" x="287" y="665" width="365" height="364" fill="#ffffff"><path id="Mask_2" fill-rule="evenodd" clip-rule="evenodd" d="M651.163 846.688C651.163 746.348 569.818 665.003 469.478 665.003C369.138 665.003 287.793 746.348 287.793 846.688C287.793 947.022 369.138 1028.37 469.478 1028.37C569.818 1028.37 651.163 947.022 651.163 846.688" fill="#ffffff"/></mask><g mask="url(#mask0_301_17252526ed80e-cc02-4cdc-afe1-7544290ed9c8)"><g id="Character 2"><path id="neck" fill-rule="evenodd" clip-rule="evenodd" d="M488.453 896.942C488.453 896.942 481.735 939.119 488.243 951.689C493.426 961.698 524.004 975.387 524.004 975.387L529.48 1004.77L415.949 1016.42C402.812 1013.51 355.258 1001.32 370.437 982.276C385.616 963.229 417.771 957.977 422.998 949.534C433.034 933.325 434.868 900.376 434.592 887.93C434.592 884.838 488.453 896.942 488.453 896.942" fill="#09B9C6"/><g id="t-shirt"><path id="T-Shirt" fill-rule="evenodd" clip-rule="evenodd" d="M509.309 967.132C506.998 971.43 496.153 991.599 483.166 993.002C464.027 995.071 436.78 981.276 416.909 971.214C407.241 966.319 399.319 962.308 394.927 961.438C392.695 960.997 359.559 971.246 338.615 988.578C332.346 993.766 314.338 1011.21 317.657 1036.31C318.09 1039.59 315.912 1050.81 313.33 1064.1C309.276 1084.98 304.228 1110.98 306.73 1119.42C314.212 1144.69 343.685 1146.19 378.142 1147.68C446.895 1150.67 510.02 1148.69 533.963 1147.94C538.809 1147.79 542.049 1147.68 543.407 1147.68C580.071 1147.68 593.45 1147.68 605.619 1129.02C590.563 1090.22 573.515 1042.26 570.878 1029.45C564.481 998.361 545.682 986.823 538.738 982.561C538.628 982.494 538.521 982.428 538.418 982.364C537.881 982.016 537.339 981.668 536.792 981.32C536.698 981.252 536.613 981.188 536.538 981.128C536.537 981.137 536.536 981.147 536.535 981.156C524.322 973.408 510.056 965.969 509.751 966.339C509.707 966.392 509.557 966.671 509.309 967.132Z" fill="#FF0057"/><path id="Fill 15" fill-rule="evenodd" clip-rule="evenodd" d="M561.126 1064.03C563.517 1073.56 563.545 1081.6 563.087 1091.38C561.933 1108.68 559.354 1107.39 555.263 1128.16C553.179 1138.73 552.015 1145.16 551.349 1146.82C550.445 1149.08 550.715 1142.74 553.234 1127.8C555.748 1110.79 558.373 1112.7 559.991 1095.72C561.609 1078.74 561.043 1076.37 558.305 1063.81C555.822 1052.75 551.945 1042.91 548.622 1032.04C548.431 1030.53 544.586 1021.04 546.534 1022.44C551.068 1036.32 557.472 1049.88 561.126 1064.03Z" fill="#090E2B"/></g><g id="Head"><path id="Fill 1_2" fill-rule="evenodd" clip-rule="evenodd" d="M490.232 798.098C499.039 783.17 516.588 763.118 547.623 770.068C590.711 779.719 553.246 827.511 555.163 850.468C562.172 934.414 541.173 965.75 511.945 965.75C483.115 965.75 470.198 946.956 485.34 909.813C498.951 876.424 474.014 825.587 490.232 798.098Z" fill="#090E2B"/><path id="Fill 4_2" fill-rule="evenodd" clip-rule="evenodd" d="M552.329 838.31C550.423 865.985 558.603 924.303 518.778 934.628C490.848 941.869 427.791 923.004 420.757 875.902C419.527 867.664 406.291 817.862 439.274 789.084C467.853 764.148 543.703 766.771 550.199 779.641C562.287 803.589 554.236 810.635 552.329 838.31Z" fill="#09B9C6"/><path id="Fill 6" fill-rule="evenodd" clip-rule="evenodd" d="M555.084 777.646C556.507 792.906 542.811 801.607 523.969 804.761C495.074 809.597 464.492 803.379 444.605 820.066C438.77 824.962 444.553 845.128 438.055 851.345C433.795 855.42 431.848 846.668 431.629 845.902C429.761 839.378 427.748 845.035 425.103 843.714C424.319 868.249 424.319 882.91 436.237 901.759C450.269 923.951 480.887 979.27 471.274 1021.42C458.953 1075.45 389.061 1087.65 400.909 1010.62C412.757 933.581 375.14 947.571 375.137 898.208C375.134 865.946 394.832 838.585 400.909 799.589C412.757 723.557 453.456 715.279 500.896 727.762C534.194 736.524 553.529 760.969 555.084 777.646Z" fill="#090E2B"/><path id="Fill 9_2" fill-rule="evenodd" clip-rule="evenodd" d="M419.751 837.448C414.796 837.079 403.954 838.15 408.472 860.26C411.436 874.763 430.522 877.816 434.542 877.041C441.736 875.654 435.091 864.547 434.542 854.229C434.17 847.256 428.938 838.133 419.751 837.448Z" fill="#09B9C6"/><path id="Fill 11" fill-rule="evenodd" clip-rule="evenodd" d="M479.602 930.445C479.856 930.541 480.273 931.72 480.006 931.771C474.611 932.82 460.938 927.591 452.538 920.373C451.555 919.528 447.875 916.31 449.568 916.739C457.091 921.936 477.094 929.508 479.602 930.445Z" fill="#090E2B"/><path id="Fill 13" fill-rule="evenodd" clip-rule="evenodd" d="M416.243 845.841C413.657 845.976 412.699 848.658 415.276 848.497C418.657 848.286 422.977 851.413 424.982 853.962C422.545 854.255 420.54 854.846 418.681 856.857C417.556 858.074 417.661 859.487 418.925 858.422C422.023 855.813 425.081 855.719 425.985 855.774C426.131 855.894 427.938 860.079 428.221 861.855C430.234 862.392 427.082 845.278 416.243 845.841" fill="#090E2B"/></g><g id="Face_2"><g id="eye1"><path id="white" fill-rule="evenodd" clip-rule="evenodd" d="M467.359 843.561C467.359 843.561 475.489 835.526 489.311 838.025C500.558 840.059 504.78 849.232 504.75 850.743C503.983 853.805 498.396 856.597 494.546 857.85C490.695 859.104 471.447 860.689 467.359 843.561" fill="white"/><path id="Fill 3" fill-rule="evenodd" clip-rule="evenodd" d="M496.71 846.119C496.841 851.02 492.342 855.117 486.662 855.268C480.982 855.42 476.272 851.569 476.141 846.668C476.01 841.766 479.011 837.478 486.189 837.518C491.87 837.55 496.579 841.217 496.71 846.119" fill="#090E2B"/><path id="Fill 5" fill-rule="evenodd" clip-rule="evenodd" d="M463.73 841.668C464.947 841.742 466.263 842.556 467.414 842.543L467.301 842.608C476.547 833.663 496.476 833.465 502.575 844.783C503.14 845.832 504.295 848.101 504.215 848.992C504.194 849.223 503.668 848.598 503.509 848.43C501.519 846.309 499.051 844.083 496.548 842.641C487.776 837.582 476.71 837.421 467.847 843.547C466.352 845.325 460.033 842.819 463.73 841.668" fill="#090E2B"/><path id="Fill 14" fill-rule="evenodd" clip-rule="evenodd" d="M501.853 832.207C490.012 826.669 476.416 824.954 464.527 831.495C463.787 831.867 462.212 831.582 462.52 830.811C463.29 828.884 466.609 825.808 469.622 824.152C479.496 818.727 495.069 818.989 502.774 826.483C505.071 828.073 506.124 833.271 501.853 832.207" fill="#090E2B"/></g><g id="eye2"><path id="white_2" fill-rule="evenodd" clip-rule="evenodd" d="M520.805 850.167C520.805 850.971 525.144 855.958 535.168 855.941C542.893 855.928 551.425 848.952 551.726 845.551C552.027 842.149 545.771 838.349 538.74 837.842C528.906 837.134 520.801 844.798 520.805 850.167" fill="white"/><path id="Fill 10" fill-rule="evenodd" clip-rule="evenodd" d="M545.168 844.006C545.171 850.043 540.912 853.794 536.269 853.918C531.626 854.042 527.548 851.174 526.801 846.59C525.83 840.628 531.256 837.631 535.898 837.507C540.541 837.383 545.166 839.361 545.168 844.006" fill="#090E2B"/><path id="Fill 12" fill-rule="evenodd" clip-rule="evenodd" d="M520.618 848.229C521.85 837.277 537.999 833.331 546.574 838.176C548.847 839.461 550.405 840.932 551.215 843.561C551.273 843.754 551.012 843.714 550.48 843.403C548.974 842.524 547.814 841.927 546.102 841.326C537.424 838.279 526.636 839.664 522.072 848.744C521.688 849.526 520.424 849.072 520.618 848.229" fill="#090E2B"/><path id="Fill 17" fill-rule="evenodd" clip-rule="evenodd" d="M521.91 828.602C525.048 820.992 537.221 820.885 544.663 822.934C546.529 823.449 548.098 824.098 549.152 824.798C551.093 826.086 552.207 828.395 549.113 828.564C548.006 828.624 546.247 828.161 545.167 828.011C538.798 827.126 532.359 828.473 526.603 831.412C524.389 832.816 520.487 831.678 521.91 828.602" fill="#090E2B"/></g><path id="nose" fill-rule="evenodd" clip-rule="evenodd" d="M517.996 863.472C518.385 863.472 520.968 867.894 521.916 869.447C524.934 874.392 528.261 879.929 523.35 883.113C520.971 884.656 513.492 882.265 513.492 880.45C513.492 877.688 520.318 882.544 521.924 879.74C522.866 878.312 519.339 871.069 517.996 866.773C517.247 864.376 517.608 863.472 517.996 863.472Z" fill="#090E2B"/><g id="lips"><path id="Fill 21" fill-rule="evenodd" clip-rule="evenodd" d="M517.455 892.618C524.831 892.334 531.166 897.81 532.341 899.557C533.515 901.305 533.016 901.93 532.406 902.018C530.01 902.366 527.183 901.645 523.025 901.121C519.497 900.675 514.678 902.618 511.942 902.691C509.208 902.764 503.552 900.62 503.638 898.702C503.724 896.784 511.026 892.865 517.455 892.618Z" fill="#090E2B"/><path id="Fill 23" fill-rule="evenodd" clip-rule="evenodd" d="M510.521 904.093C519.841 906.235 528.176 904.283 530.272 904.227C532.368 904.172 536.695 902.642 537.109 905.599C537.259 906.678 524.602 919.118 506.158 913.367C497.221 910.58 492.453 899.548 495.276 899.121C499.524 898.477 500.296 901.742 510.521 904.093Z" fill="#090E2B"/></g></g></g></g></g><path id="Fill 70" fill-rule="evenodd" clip-rule="evenodd" d="M742.871 709.012L746.126 719.032C746.581 720.422 747.876 721.372 749.341 721.372H759.876C763.156 721.372 764.516 725.562 761.866 727.487L753.346 733.682C752.156 734.537 751.661 736.067 752.116 737.457L755.371 747.477C756.386 750.592 752.816 753.187 750.166 751.257L741.641 745.067C740.461 744.207 738.851 744.207 737.666 745.067L729.146 751.257C726.496 753.187 722.926 750.592 723.941 747.477L727.196 737.457C727.651 736.067 727.151 734.537 725.966 733.682L717.446 727.487C714.791 725.562 716.156 721.372 719.436 721.372H729.966C731.431 721.372 732.731 720.422 733.186 719.032L736.436 709.012C737.451 705.897 741.861 705.897 742.871 709.012" fill="#FFB201"/><path id="Fill 72" fill-rule="evenodd" clip-rule="evenodd" d="M811.861 709.012L815.116 719.032C815.566 720.422 816.866 721.372 818.331 721.372H828.866C832.141 721.372 833.506 725.562 830.851 727.487L822.331 733.682C821.146 734.537 820.651 736.067 821.106 737.457L824.361 747.477C825.371 750.592 821.806 753.187 819.151 751.257L810.631 745.067C809.446 744.207 807.841 744.207 806.656 745.067L798.131 751.257C795.481 753.187 791.916 750.592 792.926 747.477L796.181 737.457C796.636 736.067 796.141 734.537 794.956 733.682L786.431 727.487C783.781 725.562 785.146 721.372 788.421 721.372H798.951C800.421 721.372 801.721 720.422 802.171 719.032L805.426 709.012C806.441 705.897 810.846 705.897 811.861 709.012" fill="#FFB201"/><path id="Fill 74" fill-rule="evenodd" clip-rule="evenodd" d="M880.845 709.012L884.1 719.032C884.55 720.422 885.85 721.372 887.315 721.372H897.85C901.125 721.372 902.49 725.562 899.84 727.487L891.315 733.682C890.13 734.537 889.635 736.067 890.09 737.457L893.345 747.477C894.355 750.592 890.79 753.187 888.135 751.257L879.615 745.067C878.43 744.207 876.825 744.207 875.64 745.067L867.115 751.257C864.465 753.187 860.9 750.592 861.91 747.477L865.165 737.457C865.62 736.067 865.125 734.537 863.94 733.682L855.415 727.487C852.765 725.562 854.13 721.372 857.405 721.372H867.935C869.405 721.372 870.705 720.422 871.155 719.032L874.41 709.012C875.425 705.897 879.83 705.897 880.845 709.012" fill="#FFB201"/><path id="Fill 76" fill-rule="evenodd" clip-rule="evenodd" d="M949.832 709.012L953.087 719.032C953.537 720.422 954.837 721.372 956.302 721.372H966.837C970.112 721.372 971.477 725.562 968.827 727.487L960.302 733.682C959.117 734.537 958.622 736.067 959.077 737.457L962.332 747.477C963.342 750.592 959.777 753.187 957.122 751.257L948.602 745.067C947.417 744.207 945.812 744.207 944.627 745.067L936.102 751.257C933.452 753.187 929.887 750.592 930.897 747.477L934.157 737.457C934.607 736.067 934.112 734.537 932.927 733.682L924.407 727.487C921.752 725.562 923.117 721.372 926.392 721.372H936.927C938.392 721.372 939.692 720.422 940.142 719.032L943.397 709.012C944.412 705.897 948.817 705.897 949.832 709.012" fill="#FFB201"/><path id="Fill 78" fill-rule="evenodd" clip-rule="evenodd" d="M1018.82 709.012L1022.07 719.032C1022.53 720.422 1023.83 721.372 1025.29 721.372H1035.82C1039.1 721.372 1040.46 725.562 1037.81 727.487L1029.29 733.682C1028.1 734.537 1027.61 736.067 1028.06 737.457L1031.32 747.477C1032.33 750.592 1028.76 753.187 1026.11 751.257L1017.59 745.067C1016.41 744.207 1014.8 744.207 1013.61 745.067L1005.09 751.257C1002.44 753.187 998.878 750.592 999.888 747.477L1003.14 737.457C1003.59 736.067 1003.1 734.537 1001.91 733.682L993.393 727.487C990.743 725.562 992.103 721.372 995.383 721.372H1005.91C1007.38 721.372 1008.68 720.422 1009.13 719.032L1012.39 709.012C1013.4 705.897 1017.81 705.897 1018.82 709.012" fill="#CBD9EC"/><path id="Fill 80" d="M1107.71 826.726H737.699C727.964 826.726 720.074 818.836 720.074 809.101V801.131C720.074 791.401 727.964 783.506 737.699 783.506H1107.71C1117.44 783.506 1125.33 791.401 1125.33 801.131V809.101C1125.33 818.836 1117.44 826.726 1107.71 826.726" fill="#C7D2F2"/><path id="Stroke 85 (Stroke)" fill-rule="evenodd" clip-rule="evenodd" d="M722.398 888.271C722.399 884.129 725.758 880.772 729.9 880.773L1753 881.002C1757.14 881.003 1760.5 884.362 1760.5 888.504C1760.5 892.646 1757.14 896.003 1753 896.002L729.897 895.773C725.755 895.772 722.398 892.413 722.398 888.271Z" fill="#C7D2F2"/><path id="Stroke 86 (Stroke)" fill-rule="evenodd" clip-rule="evenodd" d="M722.398 946.131C722.398 941.989 725.756 938.631 729.898 938.631H1268.62C1272.76 938.631 1276.12 941.989 1276.12 946.131C1276.12 950.273 1272.76 953.631 1268.62 953.631H729.898C725.756 953.631 722.398 950.273 722.398 946.131Z" fill="#C7D2F2"/></g><g id="Group 2 Copy"><g id="Face Copy"><path id="Mask_3" fill-rule="evenodd" clip-rule="evenodd" d="M651.163 375.688C651.163 275.348 569.818 194.003 469.478 194.003C369.138 194.003 287.793 275.348 287.793 375.688C287.793 476.022 369.138 557.367 469.478 557.367C569.818 557.367 651.163 476.022 651.163 375.688" fill="#DCD6FF"/><mask id="mask1_301_17252526ed80e-cc02-4cdc-afe1-7544290ed9c8" style="mask-type:alpha" maskUnits="userSpaceOnUse" x="287" y="194" width="365" height="364" fill="#ffffff"><path id="Mask_4" fill-rule="evenodd" clip-rule="evenodd" d="M651.163 375.688C651.163 275.348 569.818 194.003 469.478 194.003C369.138 194.003 287.793 275.348 287.793 375.688C287.793 476.022 369.138 557.367 469.478 557.367C569.818 557.367 651.163 476.022 651.163 375.688" fill="#ffffff"/></mask><g mask="url(#mask1_301_17252526ed80e-cc02-4cdc-afe1-7544290ed9c8)"><g id="Character 1"><path id="neck_2" fill-rule="evenodd" clip-rule="evenodd" d="M488.453 425.942C488.453 425.942 481.735 468.119 488.243 480.689C493.426 490.698 524.004 504.387 524.004 504.387L529.48 533.77L415.949 545.424C402.812 542.51 355.258 530.324 370.437 511.276C385.616 492.229 417.771 486.977 422.998 478.534C433.034 462.325 434.868 429.376 434.592 416.93C434.592 413.838 488.453 425.942 488.453 425.942" fill="#09B9C6"/><g id="t-shirt_2"><path id="T-Shirt_2" fill-rule="evenodd" clip-rule="evenodd" d="M509.309 496.132C506.998 500.43 496.153 520.599 483.166 522.002C464.027 524.071 436.78 510.276 416.909 500.214C407.241 495.319 399.319 491.308 394.927 490.438C392.695 489.997 359.559 500.246 338.615 517.578C332.346 522.766 314.338 540.206 317.657 565.309C318.09 568.589 315.912 579.807 313.33 593.104C309.276 613.98 304.228 639.978 306.73 648.424C314.212 673.689 343.685 675.189 378.142 676.684C446.895 679.667 510.02 677.688 533.963 676.938C538.809 676.786 542.049 676.684 543.407 676.684C580.071 676.684 593.45 676.684 605.619 658.022C590.563 619.225 573.515 571.265 570.878 558.451C564.481 527.361 545.682 515.823 538.738 511.561C538.628 511.494 538.521 511.428 538.418 511.364C537.881 511.016 537.339 510.668 536.792 510.32C536.698 510.252 536.613 510.188 536.538 510.128C536.537 510.137 536.536 510.147 536.535 510.156C524.322 502.408 510.056 494.969 509.751 495.339C509.707 495.392 509.557 495.671 509.309 496.132Z" fill="#3615F6"/><path id="Fill 15_2" fill-rule="evenodd" clip-rule="evenodd" d="M561.126 593.033C563.517 602.561 563.545 610.596 563.087 620.376C561.933 637.684 559.354 636.386 555.263 657.157C553.179 667.734 552.015 674.161 551.349 675.824C550.445 678.081 550.715 671.743 553.234 656.796C555.748 639.793 558.373 641.696 559.991 624.717C561.609 607.738 561.043 605.365 558.305 592.808C555.822 581.749 551.945 571.911 548.622 561.044C548.431 559.529 544.586 550.035 546.534 551.442C551.068 565.32 557.472 578.877 561.126 593.033Z" fill="#090E2B"/></g><g id="Head_2"><path id="Fill 1_3" fill-rule="evenodd" clip-rule="evenodd" d="M517.792 484.128L516.488 471.523L520.508 484.128C520.508 484.128 589.556 481.719 590.674 468.303C591.792 454.887 565.089 394.884 565.089 356.711C565.756 366.73 578.37 414.729 583.696 418.947C569.994 394.255 562.27 323.074 561.32 317.741C557.396 295.708 551.184 279.575 546.25 272.686C538.492 261.855 496.852 254.444 483.859 279.075C470.355 304.673 488.012 337.332 483.859 370.029C476.85 425.194 480.778 471.523 489.309 486.12L517.792 484.128Z" fill="#090E2B"/><path id="Fill 3_2" fill-rule="evenodd" clip-rule="evenodd" d="M548.317 301.059C548.317 301.059 555.542 381.006 555.542 403.367C555.542 425.727 554.215 452.175 530.586 459.836C505.31 468.032 454.834 453.602 443.624 450.365C395.401 436.444 425.503 338.449 432.211 306.027C438.919 273.604 548.317 301.059 548.317 301.059" fill="#09B9C6"/><path id="Fill 5_2" fill-rule="evenodd" clip-rule="evenodd" d="M443.746 332.079C443.746 332.079 435.92 393.569 443.746 419.283C451.572 444.998 453.154 475.971 448.45 482.759C443.746 489.548 426.827 484.334 414.074 484.128C401.985 483.933 398.054 484.84 395.908 483.933C392.239 478.29 392.317 468.475 392.317 468.475V484.128C392.317 484.128 347.008 480.758 347.008 457.696C347.008 438.058 357.651 416.099 372.636 384.452C389.343 349.165 386.972 329.129 392.317 300.476C399.537 261.773 424.981 247.666 448.45 243.485C489.127 236.237 534.694 247.644 549.212 278.413C560.717 302.797 552.988 325.542 552.988 325.542C552.988 325.542 543.952 323.008 522.586 323.008C507.858 323.008 478.68 325.542 478.68 325.542L474.847 300.476V326.613L443.746 332.079Z" fill="#090E2B"/><path id="Fill 8" fill-rule="evenodd" clip-rule="evenodd" d="M460.134 454.712C466.543 456.365 471.925 457.215 477.893 458.505C478.745 458.69 480.246 458.977 480.446 459.143C481.662 460.154 479.445 461.278 474.977 460.415C468.434 459.15 457.965 454.152 460.134 454.712" fill="black"/></g><g id="Face_3"><g id="eye1_2"><path id="Fill 1_4" fill-rule="evenodd" clip-rule="evenodd" d="M459.557 354.604C461.333 346.621 484.706 343.823 494.991 350.004C498.547 352.117 505.151 357.922 499.304 361.082C497.76 361.754 496.26 361.065 494.991 360.246C480.973 350.504 458.318 360.169 459.557 354.604Z" fill="#090E2B"/><path id="Fill 6_2" fill-rule="evenodd" clip-rule="evenodd" d="M478.517 369.036C473.229 370.536 468.696 374.786 468.275 378.308C468.02 380.436 476.37 385.545 484.423 385.942C495.017 386.463 500.357 380.724 500.338 378.89C499.625 373.34 493.234 364.862 478.517 369.036Z" fill="white"/><path id="Fill 8_2" fill-rule="evenodd" clip-rule="evenodd" d="M494.906 372.193C486.763 366.039 474.151 370.049 468.277 378.307C467.94 378.735 468.037 377.658 468.271 377.167C471.105 371.22 476.218 368.413 482.146 367.189C485.713 366.452 489.039 366.392 492.518 367.95C493.863 368.551 496.239 370.383 498.075 372.455C499.507 374.07 500.713 376.839 499.056 375.86C497.759 375.093 495.986 373.01 494.906 372.193Z" fill="#090E2B"/><path id="Fill 10_2" fill-rule="evenodd" clip-rule="evenodd" d="M484.322 382.701C488.849 382.701 492.519 379.353 492.519 375.222C492.519 371.092 488.849 367.743 484.322 367.743C479.795 367.743 476.125 371.092 476.125 375.222C476.125 379.353 479.795 382.701 484.322 382.701Z" fill="#090E2B"/></g><g id="eye2_2"><path id="Fill 4_3" fill-rule="evenodd" clip-rule="evenodd" d="M542.939 353.286C546.293 354.774 550.758 359.712 547.041 359.712C543.324 359.712 535.274 358.657 529.877 360.884C527.992 361.366 526.561 362.289 524.668 362.514C520.36 363.353 518.02 358.193 521.065 355.074C524.506 351.55 536.123 349.879 542.939 353.286Z" fill="#090E2B"/><path id="Fill 12_2" fill-rule="evenodd" clip-rule="evenodd" d="M539.139 385.659C544.51 384.41 548.527 379.54 548.073 375.901C547.187 371.079 537.902 368 532.701 370.633C527.55 373.24 524.327 379.065 524.743 381.365C525.344 382.957 533.65 386.936 539.139 385.659Z" fill="white"/><path id="Fill 14_2" fill-rule="evenodd" clip-rule="evenodd" d="M534.696 383.031C538.234 383.031 541.102 380.277 541.102 376.881C541.102 373.484 539.081 370.274 534.696 370.731C531.177 371.097 528.289 373.484 528.289 376.881C528.289 380.277 531.158 383.031 534.696 383.031Z" fill="#090E2B"/><path id="Fill 22" fill-rule="evenodd" clip-rule="evenodd" d="M524.935 378.062C526.964 370.488 536.125 366.593 543.37 370.179C544.39 370.711 546.046 371.905 547.286 373.347C548.427 374.677 548.278 375.374 547.812 375.236C547.04 375.006 545.407 373.541 544.08 372.911C537.37 369.728 530.389 371.514 525.278 378.983C525.027 379.37 524.789 378.499 524.935 378.062" fill="#090E2B"/></g><path id="nose_2" fill-rule="evenodd" clip-rule="evenodd" d="M524.469 407.763C523.494 412.682 517.45 413.16 513.514 412.046C510.314 411.14 509.485 409.276 510.567 408.678C512.33 407.704 517.981 410.414 520.067 407.827C523.787 403.216 512.373 386.259 515.999 388.984C520.792 392.585 525.12 404.48 524.469 407.763Z" fill="#090E2B"/><g id="lips_2"><path id="Fill 18" fill-rule="evenodd" clip-rule="evenodd" d="M520.674 430.132C517.239 431.849 512.351 433.62 506.722 432.815C501.094 432.011 498.061 428.716 496.829 426.3C494.72 422.168 497.174 419.063 500.391 420.097C503.606 421.132 505.45 425.583 508.608 426.356C512.485 427.305 518.888 424.333 522.545 423.375C526.379 422.37 532.74 421.996 532.74 428.424C532.74 432.022 530.603 431.292 528.891 429.154C527.18 427.016 524.109 428.414 520.674 430.132Z" fill="#090E2B"/><path id="Fill 20" fill-rule="evenodd" clip-rule="evenodd" d="M518.939 437.123C514.518 436.486 510.336 437.044 510.576 439.99C510.815 442.937 518.418 445.454 521.806 440.946C522.524 439.991 523.359 437.76 518.939 437.123Z" fill="#090E2B"/></g></g></g></g></g><path id="Fill 185" fill-rule="evenodd" clip-rule="evenodd" d="M742.871 234.776L746.126 244.796C746.581 246.186 747.876 247.131 749.341 247.131H759.876C763.156 247.131 764.516 251.326 761.866 253.251L753.346 259.446C752.156 260.301 751.661 261.831 752.116 263.221L755.371 273.241C756.386 276.356 752.816 278.951 750.166 277.021L741.641 270.831C740.461 269.971 738.851 269.971 737.666 270.831L729.146 277.021C726.496 278.951 722.926 276.356 723.941 273.241L727.196 263.221C727.651 261.831 727.151 260.301 725.966 259.446L717.446 253.251C714.791 251.326 716.156 247.131 719.436 247.131H729.966C731.431 247.131 732.731 246.186 733.186 244.796L736.436 234.776C737.451 231.661 741.861 231.661 742.871 234.776" fill="#FFB201"/><path id="Fill 187" fill-rule="evenodd" clip-rule="evenodd" d="M811.861 234.776L815.116 244.796C815.566 246.186 816.866 247.131 818.331 247.131H828.866C832.141 247.131 833.506 251.326 830.851 253.251L822.331 259.446C821.146 260.301 820.651 261.831 821.106 263.221L824.361 273.241C825.371 276.356 821.806 278.951 819.151 277.021L810.631 270.831C809.446 269.971 807.841 269.971 806.656 270.831L798.131 277.021C795.481 278.951 791.916 276.356 792.926 273.241L796.181 263.221C796.636 261.831 796.141 260.301 794.956 259.446L786.431 253.251C783.781 251.326 785.146 247.131 788.421 247.131H798.951C800.421 247.131 801.721 246.186 802.171 244.796L805.426 234.776C806.441 231.661 810.846 231.661 811.861 234.776" fill="#FFB201"/><path id="Fill 189" fill-rule="evenodd" clip-rule="evenodd" d="M880.845 234.776L884.1 244.796C884.55 246.186 885.85 247.131 887.315 247.131H897.85C901.125 247.131 902.49 251.326 899.84 253.251L891.315 259.446C890.13 260.301 889.635 261.831 890.09 263.221L893.345 273.241C894.355 276.356 890.79 278.951 888.135 277.021L879.615 270.831C878.43 269.971 876.825 269.971 875.64 270.831L867.115 277.021C864.465 278.951 860.9 276.356 861.91 273.241L865.165 263.221C865.62 261.831 865.125 260.301 863.94 259.446L855.415 253.251C852.765 251.326 854.13 247.131 857.405 247.131H867.935C869.405 247.131 870.705 246.186 871.155 244.796L874.41 234.776C875.425 231.661 879.83 231.661 880.845 234.776" fill="#FFB201"/><path id="Fill 191" fill-rule="evenodd" clip-rule="evenodd" d="M949.832 234.776L953.087 244.796C953.537 246.186 954.837 247.131 956.302 247.131H966.837C970.112 247.131 971.477 251.326 968.827 253.251L960.302 259.446C959.117 260.301 958.622 261.831 959.077 263.221L962.332 273.241C963.342 276.356 959.777 278.951 957.122 277.021L948.602 270.831C947.417 269.971 945.812 269.971 944.627 270.831L936.102 277.021C933.452 278.951 929.887 276.356 930.897 273.241L934.157 263.221C934.607 261.831 934.112 260.301 932.927 259.446L924.407 253.251C921.752 251.326 923.117 247.131 926.392 247.131H936.927C938.392 247.131 939.692 246.186 940.142 244.796L943.397 234.776C944.412 231.661 948.817 231.661 949.832 234.776" fill="#FFB201"/><path id="Fill 193" fill-rule="evenodd" clip-rule="evenodd" d="M1018.82 234.776L1022.07 244.796C1022.53 246.186 1023.83 247.131 1025.29 247.131H1035.82C1039.1 247.131 1040.46 251.326 1037.81 253.251L1029.29 259.446C1028.1 260.301 1027.61 261.831 1028.06 263.221L1031.32 273.241C1032.33 276.356 1028.76 278.951 1026.11 277.021L1017.59 270.831C1016.41 269.971 1014.8 269.971 1013.61 270.831L1005.09 277.021C1002.44 278.951 998.878 276.356 999.888 273.241L1003.14 263.221C1003.59 261.831 1003.1 260.301 1001.91 259.446L993.393 253.251C990.743 251.326 992.103 247.131 995.383 247.131H1005.91C1007.38 247.131 1008.68 246.186 1009.13 244.796L1012.39 234.776C1013.4 231.661 1017.81 231.661 1018.82 234.776" fill="#FFB201"/><path id="Fill 195" d="M1107.71 352.491H737.699C727.964 352.491 720.074 344.601 720.074 334.866V326.896C720.074 317.166 727.964 309.271 737.699 309.271H1107.71C1117.44 309.271 1125.33 317.166 1125.33 326.896V334.866C1125.33 344.601 1117.44 352.491 1107.71 352.491" fill="#C7D2F2"/><path id="Stroke 200 (Stroke)" fill-rule="evenodd" clip-rule="evenodd" d="M722.398 414.033C722.401 409.891 725.76 406.535 729.903 406.537L1584 407.002C1588.14 407.004 1591.5 410.364 1591.5 414.506C1591.49 418.648 1588.14 422.004 1583.99 422.002L729.894 421.537C725.752 421.535 722.396 418.175 722.398 414.033Z" fill="#C7D2F2"/><path id="Stroke 201 (Stroke)" fill-rule="evenodd" clip-rule="evenodd" d="M1406.5 472.886C1406.5 477.028 1403.14 480.388 1399 480.391L729.903 480.779C725.761 480.781 722.401 477.425 722.398 473.283C722.396 469.141 725.752 465.781 729.894 465.779L1398.99 465.391C1403.13 465.388 1406.49 468.744 1406.5 472.886Z" fill="#C7D2F2"/><path id="Stroke 202 (Stroke)" fill-rule="evenodd" clip-rule="evenodd" d="M722.398 531.749C722.398 527.607 725.756 524.249 729.898 524.249H1268.62C1272.76 524.249 1276.12 527.607 1276.12 531.749C1276.12 535.891 1272.76 539.249 1268.62 539.249H729.898C725.756 539.249 722.398 535.891 722.398 531.749Z" fill="#C7D2F2"/></g></g></g></g><g id="Medium Plants" transform="translate(-112 1073) scale(1 1)"><g id="Medium Plants/Plant 4"><g id="Group 16"><path id="Fill 1" fill-rule="evenodd" clip-rule="evenodd" d="M756.51 242.475C756.51 242.475 748.896 301.099 635.282 372.111C604.264 391.427 589.95 411.763 579.268 430.623C569.044 433.917 553.706 438.121 544.388 437.439C544.388 437.439 558.364 441.417 573.474 441.417C558.818 469.253 544.17 492.431 489.522 501.747C489.522 501.747 431.88 467.167 476.902 367.567C488.718 377.791 504.056 397.105 504.056 397.105C502.238 382.223 488.604 365.181 481.788 357.453C481.9 357.341 481.9 357.227 482.014 357.113C515.078 295.081 578.702 292.921 639.94 289.173C639.258 297.465 637.214 309.851 631.874 319.393C631.874 319.393 648.12 307.123 653.12 288.263C663.23 287.581 673.23 286.673 683 285.309C711.176 281.445 741.172 265.881 756.51 242.475" fill="#009BA0"/><path id="Fill 3" d="M104.391 257.375C119.961 255.077 138.365 254.708 158.723 257.49C186.781 261.325 215.021 270.762 242.555 287.024C242.887 287.22 243.073 287.587 243.043 287.964L243.025 288.09L235.939 321.971L251.743 293.968C252.008 293.499 252.589 293.33 253.058 293.563L253.164 293.624C262.811 299.972 272.331 307.262 281.817 315.593C317.398 346.763 339.34 378.773 350.182 410.377C357.612 432.035 359.047 450.791 357.048 465.395C356.965 466.005 356.878 466.577 356.79 467.109L356.657 467.878L356.522 468.587L356.387 469.234L356.27 469.734L356.231 469.848L356.192 469.931L356.135 470.028L356.067 470.117L355.991 470.196L355.937 470.243L355.839 470.314L355.734 470.371L355.723 470.375C355.685 470.394 355.651 470.407 355.616 470.418L355.51 470.446L355.399 470.463L355.286 470.467L355.157 470.456L355.04 470.431L354.926 470.392L354.842 470.353L354.746 470.296L354.71 470.27C350.526 467.159 346.28 464.451 341.848 462.036L340.822 461.483L339.861 460.978C339.701 460.895 339.541 460.812 339.382 460.73L338.423 460.242L337.463 459.763C337.303 459.684 337.143 459.606 336.982 459.528L336.016 459.063L335.042 458.605L334.06 458.154C333.895 458.079 333.73 458.005 333.565 457.931L332.564 457.488C332.397 457.414 332.228 457.341 332.059 457.268L331.036 456.83L329.995 456.396L328.933 455.962C328.754 455.89 328.575 455.818 328.394 455.746L327.298 455.313C327.113 455.241 326.928 455.169 326.741 455.097L325.605 454.662L324.441 454.225L323.245 453.784L322.016 453.34L320.104 452.662L318.781 452.201L317.417 451.733L315.289 451.014L313.812 450.521L300.81 446.227L296.409 444.749L293.321 443.692L290.319 442.634L288.165 441.849L286.409 441.187L284.967 440.627L283.089 439.871L282.094 439.46L281.031 439.013L279.945 438.548L278.825 438.063L277.662 437.552L275.811 436.731L275.161 436.441C259.668 429.514 244.417 420.555 227.881 408.188C227.381 407.814 227.349 407.089 227.784 406.67L227.884 406.585L248.071 391.581L222.318 403.14C222.025 403.271 221.69 403.253 221.416 403.098L221.302 403.023L220.2 402.173L218.74 401.019L217.435 399.968L215.948 398.756C208.317 392.489 200.44 385.063 192.559 376.879L190.808 375.047C187.889 371.975 184.973 368.803 182.07 365.551L180.33 363.59C180.041 363.262 179.751 362.933 179.462 362.603L177.728 360.616C177.44 360.283 177.152 359.95 176.863 359.616L175.137 357.604L173.417 355.576L171.704 353.535C171.418 353.193 171.134 352.851 170.849 352.509L169.146 350.448C168.863 350.103 168.58 349.758 168.297 349.412L166.606 347.334C166.325 346.987 166.044 346.639 165.764 346.291L164.086 344.197L162.418 342.094C162.141 341.743 161.864 341.392 161.587 341.04L159.935 338.926C159.386 338.22 158.838 337.513 158.293 336.805L156.663 334.679L155.045 332.549C154.777 332.193 154.509 331.838 154.241 331.482L152.643 329.347C152.378 328.99 152.113 328.634 151.849 328.278L150.272 326.14C149.749 325.427 149.228 324.714 148.709 324.001L147.162 321.862L145.63 319.725L144.115 317.591L142.757 315.686L141.409 313.813C141.185 313.504 140.962 313.195 140.739 312.888L139.408 311.061L138.087 309.264L136.778 307.497L135.479 305.761L134.192 304.055L132.915 302.378L131.65 300.732L130.395 299.115L129.152 297.527L127.92 295.969L126.698 294.44C126.496 294.188 126.294 293.937 126.092 293.687L124.888 292.201L123.694 290.745C123.496 290.504 123.299 290.265 123.102 290.027L121.925 288.613L120.76 287.228C120.567 287 120.374 286.772 120.182 286.546L119.033 285.204L117.896 283.889L116.77 282.602L115.655 281.344L114.552 280.113L113.46 278.909L112.379 277.733L111.31 276.584C111.133 276.395 110.956 276.207 110.78 276.02L109.727 274.912L108.687 273.83L107.657 272.776C107.487 272.602 107.316 272.43 107.147 272.258L106.111 271.221C105.77 270.882 105.434 270.55 105.102 270.226L104.121 269.273C103.798 268.963 103.48 268.659 103.166 268.363L102.239 267.494L101.338 266.666C101.191 266.532 101.044 266.399 100.898 266.268L100.039 265.501L99.2071 264.774L98.4025 264.087C98.2707 263.975 98.1401 263.866 98.0106 263.758L97.2829 263.158L96.6345 262.636C96.5306 262.554 96.4287 262.473 96.3288 262.395L95.7545 261.952C95.6629 261.883 95.5734 261.815 95.4859 261.75L94.9602 261.364L94.574 261.093L94.4576 261.015C93.729 260.544 93.9045 259.433 94.7427 259.209L95.3946 259.047L96.2565 258.848L96.9103 258.705L97.2606 258.631C97.7707 258.523 98.3022 258.416 98.8549 258.31L99.9882 258.097L101.177 257.887L102.422 257.679L103.721 257.475C103.942 257.441 104.165 257.408 104.391 257.375Z" fill="#017C7F"/><path id="Fill 5" fill-rule="evenodd" clip-rule="evenodd" d="M425.476 500.758C425.476 500.758 371.894 484.878 334.03 416.386C346.928 412.642 355.25 403.988 355.25 403.988C346.096 406.568 329.452 407.65 329.452 407.65C250.686 308.722 290.412 144 290.412 144C299.15 165.72 342.584 196.79 377.784 242.474C372.958 246.72 355.988 263.918 351.744 270.658C351.744 270.658 370.814 256.03 380.966 251.118C413.256 293.392 437.626 345.97 446.946 387.414C467.252 478.29 425.476 500.758 425.476 500.758" fill="#009BA0"/><path id="Fill 7" fill-rule="evenodd" clip-rule="evenodd" d="M307.222 204.438C320.284 240.12 334.03 275.57 349.004 310.488C356.54 327.92 364.332 345.262 373.168 362.048C374.292 364.136 375.348 366.262 376.526 368.314L380.104 374.45C382.468 378.544 384.994 382.608 387.43 386.688C392.162 394.948 396.818 403.266 400.884 411.89C409.214 429.026 415.73 447.09 420.016 465.68C422.192 474.966 423.852 484.356 425.376 493.74C426.162 498.422 426.874 503.132 427.52 507.866C428.092 512.594 428.66 517.322 429.122 522.058C431.054 540.988 432.418 559.954 433.742 578.92C435.032 597.89 436.176 616.864 437.192 635.852C437.23 636.542 436.7 637.13 436.012 637.166C435.322 637.204 434.734 636.674 434.696 635.984V635.978C433.746 617.004 432.666 598.032 431.444 579.072C430.186 560.118 428.888 541.158 427.024 522.268C426.58 517.544 426.032 512.834 425.478 508.126C424.854 503.442 424.164 498.754 423.392 494.06C421.904 484.684 420.284 475.34 418.154 466.112C413.964 447.64 407.562 429.704 399.338 412.63C395.326 404.042 390.718 395.744 386.034 387.502C383.612 383.416 381.134 379.398 378.76 375.256L375.178 369.064C373.998 366.994 372.946 364.858 371.826 362.758C363.014 345.874 355.272 328.486 347.79 311.008C332.92 276.004 319.294 240.5 306.348 204.75C306.26 204.51 306.386 204.244 306.626 204.156C306.868 204.068 307.136 204.196 307.222 204.438" fill="black"/><path id="Fill 9" fill-rule="evenodd" clip-rule="evenodd" d="M152.687 283.442L247.419 349.072C263.221 360.03 278.265 372.102 292.363 385.192C295.941 388.408 299.315 391.842 302.785 395.174C306.111 398.65 309.567 402.004 312.767 405.602C319.359 412.618 325.473 420.07 331.367 427.684C337.193 435.358 342.543 443.392 347.429 451.712C352.135 460.134 356.355 468.846 359.415 478.054C360.189 480.342 360.775 482.682 361.465 484.994C362.093 487.32 362.879 489.614 363.371 491.97C364.421 496.668 365.679 501.328 366.555 506.06C368.493 515.488 370.123 524.972 371.599 534.474C377.361 572.512 380.867 610.814 383.359 649.188C383.403 649.876 382.881 650.472 382.193 650.516C381.503 650.56 380.909 650.038 380.863 649.348V649.344V649.324C378.525 611.036 375.165 572.734 369.565 534.782C368.131 525.302 366.541 515.842 364.647 506.45C363.793 501.734 362.561 497.106 361.535 492.428C361.055 490.078 360.285 487.816 359.673 485.504C358.999 483.214 358.425 480.886 357.671 478.626C354.701 469.568 350.559 460.924 345.929 452.566C341.119 444.304 335.841 436.308 330.079 428.658C324.247 421.068 318.195 413.63 311.657 406.62C308.489 403.026 305.059 399.672 301.759 396.198C298.315 392.866 294.967 389.432 291.415 386.214C277.413 373.112 262.469 361.024 246.745 350.032L152.271 284.042C152.105 283.928 152.063 283.7 152.179 283.534C152.293 283.368 152.521 283.326 152.687 283.442" fill="black"/><path id="Fill 11" fill-rule="evenodd" clip-rule="evenodd" d="M707.017 298.895C674.843 319.235 642.481 339.275 610.191 359.435L586.009 374.555C578.109 379.679 570.695 385.627 563.543 391.821C556.349 397.985 549.651 404.705 543.091 411.533C539.943 415.073 536.629 418.465 533.661 422.159L529.105 427.605L524.785 433.241C518.985 440.729 513.863 448.697 509.009 456.811C507.849 458.867 506.775 460.973 505.653 463.053C504.587 465.159 503.337 467.179 502.419 469.355L499.519 475.817L498.075 479.049L496.871 482.375L494.463 489.027C493.623 491.235 493.171 493.559 492.505 495.819C491.903 498.099 491.247 500.353 490.685 502.655L489.151 509.619L483.163 537.517C475.401 574.763 467.969 612.091 460.941 649.483C460.815 650.161 460.165 650.611 459.485 650.487C458.807 650.361 458.357 649.707 458.481 649.027C465.441 611.595 472.649 574.215 480.521 536.961L486.541 509.043L488.087 502.073C488.653 499.753 489.327 497.437 489.941 495.117C490.621 492.817 491.091 490.445 491.943 488.203L494.399 481.437L495.629 478.055L497.097 474.773L500.051 468.217C500.985 466.007 502.251 463.963 503.335 461.829C504.475 459.721 505.565 457.587 506.743 455.505C511.665 447.293 516.859 439.237 522.723 431.677L527.095 425.991L531.699 420.495C534.701 416.771 538.047 413.349 541.225 409.781C547.851 402.899 554.613 396.127 561.881 389.911C569.115 383.665 576.585 377.675 584.663 372.445C592.765 367.347 600.883 362.467 608.993 357.467C641.455 337.603 673.847 317.621 706.423 297.939C706.689 297.777 707.035 297.861 707.197 298.127C707.357 298.389 707.275 298.731 707.017 298.895" fill="black"/><g id="Group 15"><path id="Fill 13" fill-rule="evenodd" clip-rule="evenodd" d="M383.759 799.09H462.125C490.029 799.09 513.367 795.884 516.033 768.108L535.001 570.494H310.883L329.849 768.108C332.515 795.884 355.853 799.09 383.759 799.09" fill="#F0F1FF"/></g></g></g></g><g id="Flying Objects" opacity="0.5" transform="translate(2264 -80) scale(1 1)"><g id="Flying Objects/Cloud 1"><path id="cloud" fill-rule="evenodd" clip-rule="evenodd" d="M171.044 473.895C161.387 459.137 151.9 436.733 163.002 423.548C169.563 415.755 180.669 416.373 188.629 421.934C196.591 427.495 202.142 436.87 207.441 445.961C198.936 424.955 190.257 403.137 189.653 379.753C189.05 356.369 198.845 330.873 217.134 323.328C236.095 315.504 256.284 328.774 272.648 342.761C307.585 372.621 339.188 408.19 366.334 448.196C364.619 435.639 362.903 422.76 364.903 410.263C366.902 397.765 373.426 385.527 383.427 381.605C393.344 377.714 404.064 382.624 413.373 388.304C445.411 407.843 473.144 437.617 493 473.793C490.055 473.793 494.421 478.67 491.476 478.67L171.044 473.895Z" fill="#F0F1FF"/></g></g><g id="Outdoor Plants" transform="translate(2405 911) scale(1 1)"><g id="Outdoor Plants/Bush"><g id="Group 16 Copy"><path id="Fill 1" fill-rule="evenodd" clip-rule="evenodd" d="M100.395 964.969C102.956 964.611 105.816 965.245 108.376 964.886H656C655.749 944.057 643.866 913.873 625.677 903.68C607.501 893.499 583.903 893.822 566.014 904.469C574.079 861.735 579.919 817.087 568.156 775.202C556.417 733.318 522.971 694.759 479.773 689.59C439.267 684.757 399.934 710.204 376.612 743.666C353.29 777.128 342.831 817.637 332.815 857.165C333.952 838.466 324.678 819.48 309.254 808.856C293.817 798.232 272.769 796.366 255.705 804.094C236.655 812.72 223.982 831.814 218.107 851.889C212.244 871.976 212.256 893.224 212.315 914.136C200.11 886.476 164.821 871.581 136.497 882.133C108.161 892.697 91.516 936.077 100.395 964.969" fill="#F67A49"/><path id="Fill 4" fill-rule="evenodd" clip-rule="evenodd" d="M216.397 964.975C217.891 964.761 219.553 965.153 221.047 964.927H540C539.857 952.854 532.923 935.356 522.344 929.456C511.753 923.556 498.018 923.735 487.594 929.92C492.292 905.143 495.687 879.247 488.849 854.97C482 830.692 462.515 808.341 437.352 805.344C413.767 802.536 390.864 817.286 377.272 836.687C363.692 856.088 357.608 879.557 351.763 902.478C352.42 891.642 347.029 880.639 338.04 874.489C329.05 868.328 316.786 867.233 306.852 871.718C295.759 876.726 288.371 887.788 284.952 899.421C281.546 911.067 281.546 923.39 281.581 935.499C274.481 919.476 253.92 910.841 237.424 916.966C220.916 923.081 211.221 948.227 216.397 964.975" fill="#FFB201"/></g></g></g><g id="Flying Objects" opacity="0.5" transform="matrix(-1 0 0 1 1255 -177) scale(1 1)"><g id="Flying Objects/Cloud 1"><path id="cloud" fill-rule="evenodd" clip-rule="evenodd" d="M171.044 473.895C161.387 459.137 151.9 436.733 163.002 423.548C169.563 415.755 180.669 416.373 188.629 421.934C196.591 427.495 202.142 436.87 207.441 445.961C198.936 424.955 190.257 403.137 189.653 379.753C189.05 356.369 198.845 330.873 217.134 323.328C236.095 315.504 256.284 328.774 272.648 342.761C307.585 372.621 339.188 408.19 366.334 448.196C364.619 435.639 362.903 422.76 364.903 410.263C366.902 397.765 373.426 385.527 383.427 381.605C393.344 377.714 404.064 382.624 413.373 388.304C445.411 407.843 473.144 437.617 493 473.793C490.055 473.793 494.421 478.67 491.476 478.67L171.044 473.895Z" fill="#F0F1FF"/></g></g><g id="Floor"><path id="Path 4 Copy" d="M3214.29 1870C3216.22 1870 3217.79 1871.57 3217.79 1873.5C3217.79 1875.37 3216.33 1876.9 3214.48 1876.99L3214.29 1877H0.291016C-1.64198 1877 -3.20898 1875.43 -3.20898 1873.5C-3.20898 1871.63 -1.74471 1870.1 0.0989804 1870.01L0.291016 1870H3214.29Z" fill="#090E2B"/></g></g></svg>